<?xml version="1.0" encoding="utf-8"?>
<!-- Generator: Adobe Illustrator 24.1.1, SVG Export Plug-In . SVG Version: 6.00 Build 0)  -->
<svg version="1.1" id="Layer_1" xmlns="http://www.w3.org/2000/svg" xmlns:xlink="http://www.w3.org/1999/xlink" x="0px" y="0px"
	 viewBox="0 0 87.3 90.2" style="enable-background:new 0 0 87.3 90.2;" xml:space="preserve">
<g>
	<path d="M43.9,1.6c-1.5,0-34.9,0.1-40.6,7.6c-0.6,0.3-1.1,1-1.1,1.8c0,0.5,0.1,0.9,0.3,1.3v14.9c0,9.8,39.7,9.9,41.4,9.9
		c1.7,0,41.4-0.1,41.4-9.9V11.4C85.3,1.7,45.6,1.6,43.9,1.6z M43.9,5.6c21.5,0,34.5,3.3,37,5.5c-1.7,2.2-14.9,5.7-37.3,5.7
		c-21.5,0-34.5-3.3-37-5.5C8.4,9.1,21.5,5.6,43.9,5.6z M81.3,27.1c-1,2.2-14.3,5.9-37.4,5.9S7.6,29.3,6.5,27.1V15.8
		c10.3,5,35.8,5,37.1,5c1.4,0,27.7-0.1,37.6-5.3L81.3,27.1L81.3,27.1z"/>
	<path d="M83.3,33.6c-1.1,0-2,0.9-2,1.9c-1,2.2-14.3,6-37.4,6s-36.4-3.8-37.4-6c0-1.1-0.9-1.9-2-1.9c-1.1,0-2,0.9-2,2v17.3
		c0,9.8,39.7,9.9,41.4,9.9c1.7,0,41.4-0.1,41.4-9.9V35.6C85.3,34.5,84.4,33.6,83.3,33.6z M81.3,52.9c-1,2.2-14.3,5.9-37.4,5.9
		S7.6,55,6.5,52.9V40.3c10.1,5.1,36,5.2,37.4,5.2s27.3-0.1,37.4-5.2V52.9z"/>
	<path d="M83.3,59.6c-1.1,0-2,0.9-2,1.9c-1,2.2-14.3,5.9-37.4,5.9S7.6,63.7,6.5,61.5c0-1.1-0.9-1.9-2-1.9c-1.1,0-2,0.9-2,2v17.3
		c0,9.8,39.7,9.9,41.4,9.9c1.7,0,41.4-0.1,41.4-9.9V61.6C85.3,60.5,84.4,59.6,83.3,59.6z M81.3,78.9c-1,2.2-14.3,5.9-37.4,5.9
		S7.6,81,6.5,78.9V66.3c10.1,5.1,36,5.2,37.4,5.2s27.3-0.1,37.4-5.2V78.9z"/>
</g>
</svg>
