<?xml version="1.0" encoding="utf-8"?>
<!-- Generator: Adobe Illustrator 24.1.1, SVG Export Plug-In . SVG Version: 6.00 Build 0)  -->
<svg version="1.1" id="Layer_1" xmlns="http://www.w3.org/2000/svg" xmlns:xlink="http://www.w3.org/1999/xlink" x="0px" y="0px"
	 viewBox="0 0 61.2 53.1" style="enable-background:new 0 0 61.2 53.1;" xml:space="preserve">
<path d="M51.6,30.1c-0.2-0.4-0.5-0.6-0.9-0.6H36.6c3.3-5.3,7.1-12.1,7.1-16c0-7.2-5.8-13-13-13s-13,5.8-13,13c0,3.9,3.7,10.7,7.1,16
	H10.6c-0.4,0-0.8,0.2-0.9,0.6l-9,21c-0.2,0.5,0,1.1,0.5,1.3c0.1,0.1,0.3,0.1,0.4,0.1h58c0.6,0,1-0.4,1-1c0-0.1,0-0.3-0.1-0.4
	L51.6,30.1z M43.4,31.5H50L51,34l-1.3,0.4l-1.6-0.8c-0.2-0.1-0.5-0.1-0.7-0.1l-3.5,0.9l-1.2-1.2L43.4,31.5z M19.6,13.5
	c0-6.1,4.9-11,11-11s11,4.9,11,11c0,4.8-7.3,16.1-11,21.3C26.9,29.6,19.6,18.3,19.6,13.5z M33.1,34.7c2.2,0.5,3.5,1.5,3.5,2.2
	c0,1-2.3,2.5-6,2.5s-6-1.5-6-2.5c0-0.8,1.3-1.8,3.5-2.2c0.9,1.3,1.5,2.2,1.7,2.3c0.3,0.4,1,0.5,1.4,0.2c0.1-0.1,0.2-0.1,0.2-0.2
	C31.6,36.9,32.2,36.1,33.1,34.7z M11.3,31.5h6.5L17,32.6l-3.4,0.8l-2.9-0.7L11.3,31.5z M30.7,48.2l-0.8,2.3H3.2L10,34.6l3.4,0.9
	c0.2,0,0.3,0,0.5,0l4-1c0.2-0.1,0.5-0.2,0.6-0.4l1.7-2.6H26c0.3,0.5,0.7,1,1,1.5c-2.7,0.7-4.3,2.2-4.3,4c0,2.6,3.4,4.5,8,4.5
	s8-1.9,8-4.5c0-1.8-1.7-3.3-4.3-4c0.3-0.5,0.6-1,1-1.5h6l-0.6,1.7c-0.1,0.4,0,0.8,0.2,1l2,2c0.2,0.2,0.6,0.3,1,0.3l3.6-0.9l1.7,0.8
	c0.2,0.1,0.5,0.1,0.8,0.1l1.9-0.6l1.5,3.4l-4.5-0.8c-0.2,0-0.4,0-0.6,0.1l-5.9,3l-3.9,1c-0.3,0.1-0.5,0.3-0.7,0.5L36,46.6l-4.5,0.9
	C31.1,47.6,30.8,47.8,30.7,48.2z M32,50.5l0.4-1.1l4.4-0.9c0.3-0.1,0.6-0.3,0.7-0.5l1.8-3.6l3.6-0.9c0.1,0,0.1,0,0.2-0.1l5.7-2.9
	l5.4,0.9l3.9,9.1H32z"/>
<path d="M38.6,13.5c0-4.4-3.6-8-8-8s-8,3.6-8,8s3.6,8,8,8C35.1,21.5,38.6,17.9,38.6,13.5z M24.6,13.5c0-3.3,2.7-6,6-6s6,2.7,6,6
	s-2.7,6-6,6C27.3,19.5,24.6,16.8,24.6,13.5z"/>
<path d="M25.5,43c-0.1-0.2-0.2-0.3-0.3-0.4l-2.8-1.9l-1.9-2.8c-0.2-0.3-0.5-0.4-0.8-0.4h-3c-0.3,0-0.5,0.1-0.7,0.3l-1.6,1.6
	l-3.4-0.9c-0.5-0.1-1.1,0.2-1.2,0.7c0,0,0,0,0,0l-1,4c-0.1,0.3,0,0.6,0.1,0.8l2,3c0.1,0.2,0.3,0.4,0.6,0.4l4,1c0.1,0,0.2,0,0.2,0h3
	c0.2,0,0.3,0,0.4-0.1l1.6-0.8l2.6,0.9c0.1,0,0.2,0,0.3,0c0.3,0,0.5-0.1,0.7-0.3l2-2c0.3-0.3,0.4-0.8,0.2-1.2L25.5,43z M23.4,46.3
	L21,45.5c-0.3-0.1-0.5-0.1-0.8,0.1l-1.8,0.9h-2.6l-3.5-0.9l-1.5-2.3l0.6-2.6l3,0.8c0.3,0.1,0.7,0,0.9-0.3l1.7-1.7h2.1l1.7,2.6
	c0.1,0.1,0.2,0.2,0.3,0.3l2.8,1.9l0.6,1.1L23.4,46.3z"/>
</svg>
