<?xml version="1.0" encoding="UTF-8" standalone="no"?>
<svg
   xmlns:dc="http://purl.org/dc/elements/1.1/"
   xmlns:cc="http://creativecommons.org/ns#"
   xmlns:rdf="http://www.w3.org/1999/02/22-rdf-syntax-ns#"
   xmlns:svg="http://www.w3.org/2000/svg"
   xmlns="http://www.w3.org/2000/svg"
   xmlns:sodipodi="http://sodipodi.sourceforge.net/DTD/sodipodi-0.dtd"
   xmlns:inkscape="http://www.inkscape.org/namespaces/inkscape"
   width="100%"
   viewBox="0 0 1116.678 77.09"
   version="1.1"
   id="svg1435"
   sodipodi:docname="mapsdataprocesing.svg"
   inkscape:version="0.92.3 (2405546, 2018-03-11)">
  <metadata
     id="metadata1441">
    <rdf:RDF>
      <cc:Work
         rdf:about="">
        <dc:format>image/svg+xml</dc:format>
        <dc:type
           rdf:resource="http://purl.org/dc/dcmitype/StillImage" />
        <dc:title></dc:title>
      </cc:Work>
    </rdf:RDF>
  </metadata>
  <defs
     id="defs1439" />
  <sodipodi:namedview
     pagecolor="#ffffff"
     bordercolor="#666666"
     borderopacity="1"
     objecttolerance="10"
     gridtolerance="10"
     guidetolerance="10"
     inkscape:pageopacity="0"
     inkscape:pageshadow="2"
     inkscape:window-width="1920"
     inkscape:window-height="986"
     id="namedview1437"
     showgrid="false"
     inkscape:zoom="0.35104122"
     inkscape:cx="558.33899"
     inkscape:cy="38.544998"
     inkscape:window-x="-11"
     inkscape:window-y="-11"
     inkscape:window-maximized="1"
     inkscape:current-layer="svg1435" />
  <g
     id="svgGroup"
     stroke-linecap="round"
     fill-rule="evenodd"
     font-size="9pt"
     stroke="#000"
     stroke-width="0.25mm"
     fill="none"
     style="stroke:#000;stroke-width:0.25mm;fill:#ffffff">
    <path
       d="M 897.22 47.949 L 896.146 47.656 A 19.131 19.131 0 0 0 893.636 46.447 A 23.535 23.535 0 0 0 891.947 45.85 A 29.712 29.712 0 0 1 890.027 45.181 Q 889.164 44.845 888.423 44.483 A 16.677 16.677 0 0 1 887.943 44.238 A 3.577 3.577 0 0 1 887.372 44.491 Q 886.617 44.745 885.941 44.531 Q 885.318 44.334 884.452 44.138 A 35.412 35.412 0 0 0 883.548 43.945 A 66.048 66.048 0 0 1 877.925 43.379 A 59.926 59.926 0 0 1 877.152 43.262 Q 874.076 42.773 871.244 41.504 A 3.905 3.905 0 0 0 870.866 40.781 A 3.533 3.533 0 0 0 870.755 40.625 A 0.626 0.626 0 0 0 870.386 40.39 Q 870.144 40.333 869.794 40.404 A 2.645 2.645 0 0 0 869.681 40.43 Q 869.095 39.648 868.509 38.916 A 11.403 11.403 0 0 1 867.559 37.522 A 12.727 12.727 0 0 1 867.435 37.305 A 59.168 59.168 0 0 0 867.568 36.474 Q 867.63 36.066 867.677 35.711 A 28.271 28.271 0 0 0 867.728 35.303 A 1.768 1.768 0 0 0 867.74 35.096 Q 867.74 34.375 867.142 33.691 A 70.338 70.338 0 0 0 867.325 33.087 Q 867.582 32.227 867.728 31.641 Q 867.91 30.914 867.754 29.766 A 10.118 10.118 0 0 0 867.728 29.59 A 8.598 8.598 0 0 1 869.925 26.074 A 16.398 16.398 0 0 1 873.246 23.584 A 22.986 22.986 0 0 1 877.005 21.875 Q 878.959 21.191 880.716 20.703 A 116.617 116.617 0 0 1 886.609 18.392 A 135.551 135.551 0 0 1 889.066 17.529 A 117.095 117.095 0 0 1 898.148 14.844 A 54.265 54.265 0 0 1 907.67 13.33 Q 911.3 13.076 915.201 13.875 A 34.588 34.588 0 0 1 917.923 14.551 A 6.913 6.913 0 0 0 918.802 16.406 A 57.102 57.102 0 0 0 920.023 18.164 A 23.37 23.37 0 0 1 920.759 19.244 A 19.555 19.555 0 0 1 921.146 19.873 A 4.475 4.475 0 0 1 921.626 21.011 A 3.999 3.999 0 0 1 921.732 21.582 A 8.188 8.188 0 0 1 922.398 22.249 A 22.986 22.986 0 0 1 923.392 21.875 Q 925.345 21.191 927.103 20.703 A 116.617 116.617 0 0 1 932.996 18.392 A 135.551 135.551 0 0 1 935.453 17.529 A 117.095 117.095 0 0 1 944.535 14.844 A 54.265 54.265 0 0 1 954.056 13.33 Q 957.687 13.076 961.588 13.875 A 34.588 34.588 0 0 1 964.31 14.551 A 6.913 6.913 0 0 0 965.189 16.406 A 57.102 57.102 0 0 0 966.41 18.164 A 23.37 23.37 0 0 1 967.146 19.244 A 19.555 19.555 0 0 1 967.533 19.873 A 4.475 4.475 0 0 1 968.013 21.011 A 3.999 3.999 0 0 1 968.119 21.582 Q 969.095 22.461 969.681 23.486 Q 970.267 24.512 969.877 26.172 A 33.468 33.468 0 0 1 968.557 27.177 A 28.501 28.501 0 0 1 967.972 27.588 A 13.234 13.234 0 0 1 965.97 28.711 A 23.084 23.084 0 0 0 960.495 28.052 A 23.49 23.49 0 0 0 958.646 28.125 A 663.042 663.042 0 0 1 955.339 28.378 Q 953.562 28.51 952.005 28.613 A 2.949 2.949 0 0 0 950.875 27.891 A 2.956 2.956 0 0 0 949.906 27.734 Q 948.685 27.734 947.367 28.125 L 944.73 28.906 Q 943.851 29.167 943.037 29.167 A 4.843 4.843 0 0 1 942.24 29.102 A 4.837 4.837 0 0 1 940.649 29.935 A 6.182 6.182 0 0 1 939.847 30.127 Q 938.431 30.371 936.771 30.566 A 1.368 1.368 0 0 0 936.754 30.669 Q 936.735 30.832 936.766 30.951 A 0.373 0.373 0 0 0 936.966 31.201 Q 937.257 31.346 937.067 31.828 A 1.669 1.669 0 0 1 937.064 31.836 A 3.171 3.171 0 0 0 938.379 32.744 A 3.848 3.848 0 0 0 938.578 32.813 A 71.55 71.55 0 0 0 940.024 33.252 A 82.01 82.01 0 0 0 940.531 33.398 A 9.469 9.469 0 0 1 941.551 33.751 A 7.287 7.287 0 0 1 942.337 34.131 A 2.193 2.193 0 0 1 943.273 35.172 A 3.003 3.003 0 0 1 943.412 35.547 Q 944.877 35.547 945.951 36.23 A 6.253 6.253 0 0 1 947.415 37.506 A 5.817 5.817 0 0 1 947.709 37.891 Q 948.392 38.867 948.734 39.99 A 9.041 9.041 0 0 1 948.955 40.862 Q 949.076 41.47 949.076 41.992 A 2.669 2.669 0 0 0 949.185 42.245 Q 949.405 42.687 949.674 42.687 A 0.352 0.352 0 0 0 949.759 42.676 A 0.546 0.546 0 0 1 949.892 42.66 Q 950.209 42.66 950.586 43.015 A 2.609 2.609 0 0 1 950.638 43.066 A 4.735 4.735 0 0 0 951.106 44.267 Q 951.375 44.761 951.773 45.261 A 9.21 9.21 0 0 0 952.103 45.654 A 10.885 10.885 0 0 1 953.959 48.535 Q 954.126 50.633 954.222 52.335 A 110.188 110.188 0 0 1 954.252 52.881 A 8.273 8.273 0 0 1 954.262 53.305 Q 954.262 55.002 953.568 56.738 A 21.379 21.379 0 0 1 949.515 63.184 Q 946.927 66.016 943.656 68.213 Q 940.384 70.41 936.673 71.973 A 78.162 78.162 0 0 1 931.217 74.042 A 68.198 68.198 0 0 1 929.447 74.609 A 1.605 1.605 0 0 0 929.056 74.561 A 1.605 1.605 0 0 0 928.666 74.609 A 0.525 0.525 0 0 1 928.62 74.619 Q 928.287 74.671 928.47 74.121 A 3.989 3.989 0 0 1 927.491 74.761 A 3.515 3.515 0 0 1 926.761 75 Q 925.834 75.195 924.759 75.146 Q 923.685 75.098 922.562 75 A 8.455 8.455 0 0 0 921.83 74.967 Q 921.248 74.967 920.709 75.053 A 6.384 6.384 0 0 0 920.462 75.098 A 23.944 23.944 0 0 1 919.74 74.344 A 19.088 19.088 0 0 1 919.242 73.779 A 3.874 3.874 0 0 1 918.718 72.963 A 5.323 5.323 0 0 1 918.412 72.168 A 0.705 0.705 0 0 1 918.24 72.149 Q 917.933 72.072 917.972 71.68 A 1.119 1.119 0 0 0 917.977 71.621 Q 917.997 71.191 917.63 71.191 A 18.803 18.803 0 0 0 917.757 70.977 Q 918.201 70.215 918.169 70.074 A 0.062 0.062 0 0 0 918.168 70.068 A 0.28 0.28 0 0 0 918.098 69.959 Q 918.029 69.891 917.903 69.836 A 1.11 1.11 0 0 0 917.875 69.824 Q 917.63 69.727 917.435 69.58 Q 917.24 69.434 917.337 69.141 A 2.974 2.974 0 0 0 917.633 68.092 Q 917.667 67.743 917.633 67.36 A 4.552 4.552 0 0 0 917.63 67.334 A 491.517 491.517 0 0 1 917.435 65.234 Q 917.337 64.16 917.582 63.184 Q 917.826 62.207 918.998 61.621 A 21.219 21.219 0 0 0 921.478 61.77 A 18.273 18.273 0 0 0 925.296 61.377 A 28.349 28.349 0 0 0 930.829 59.607 A 26.445 26.445 0 0 0 930.912 59.57 A 55.835 55.835 0 0 0 935.941 57.031 A 60.402 60.402 0 0 1 940.091 54.863 A 54.707 54.707 0 0 1 940.677 54.59 A 4.525 4.525 0 0 1 941.044 53.761 A 3.58 3.58 0 0 1 941.507 53.125 A 11.587 11.587 0 0 1 942.63 52.051 Q 943.216 51.563 943.705 50.977 A 3.094 3.094 0 0 0 944.201 50.13 A 4.063 4.063 0 0 0 944.388 49.512 Q 944.455 49.042 944.269 48.826 A 0.492 0.492 0 0 0 944.046 48.682 Q 943.633 48.544 943.609 48.017 A 1.462 1.462 0 0 1 943.607 47.949 L 942.533 47.656 A 19.131 19.131 0 0 0 940.023 46.447 A 23.535 23.535 0 0 0 938.334 45.85 A 29.712 29.712 0 0 1 936.414 45.181 Q 935.551 44.845 934.81 44.483 A 16.677 16.677 0 0 1 934.33 44.238 A 3.577 3.577 0 0 1 933.759 44.491 Q 933.004 44.745 932.328 44.531 Q 931.704 44.334 930.839 44.138 A 35.412 35.412 0 0 0 929.935 43.945 A 66.048 66.048 0 0 1 924.312 43.379 A 59.926 59.926 0 0 1 923.539 43.262 Q 920.462 42.773 917.63 41.504 A 3.905 3.905 0 0 0 917.253 40.781 A 3.533 3.533 0 0 0 917.142 40.625 A 0.626 0.626 0 0 0 916.772 40.39 Q 916.53 40.333 916.181 40.404 A 2.645 2.645 0 0 0 916.068 40.43 Q 915.482 39.648 914.896 38.916 A 11.403 11.403 0 0 1 913.945 37.522 A 12.727 12.727 0 0 1 913.822 37.305 A 59.168 59.168 0 0 0 913.955 36.474 Q 914.017 36.066 914.064 35.711 A 28.271 28.271 0 0 0 914.115 35.303 A 1.768 1.768 0 0 0 914.127 35.096 Q 914.127 34.375 913.529 33.691 A 70.338 70.338 0 0 0 913.712 33.087 Q 913.968 32.227 914.115 31.641 Q 914.296 30.914 914.14 29.766 A 10.118 10.118 0 0 0 914.115 29.59 A 8.598 8.598 0 0 1 914.783 28.062 A 23.084 23.084 0 0 0 914.109 28.052 A 23.49 23.49 0 0 0 912.259 28.125 A 663.042 663.042 0 0 1 908.952 28.378 Q 907.175 28.51 905.619 28.613 A 2.949 2.949 0 0 0 904.488 27.891 A 2.956 2.956 0 0 0 903.519 27.734 Q 902.298 27.734 900.98 28.125 L 898.343 28.906 Q 897.464 29.167 896.651 29.167 A 4.843 4.843 0 0 1 895.853 29.102 A 4.837 4.837 0 0 1 894.263 29.935 A 6.182 6.182 0 0 1 893.461 30.127 Q 892.045 30.371 890.384 30.566 A 1.368 1.368 0 0 0 890.368 30.669 Q 890.348 30.832 890.379 30.951 A 0.373 0.373 0 0 0 890.58 31.201 Q 890.87 31.346 890.68 31.828 A 1.669 1.669 0 0 1 890.677 31.836 A 3.171 3.171 0 0 0 891.992 32.744 A 3.848 3.848 0 0 0 892.191 32.813 A 71.55 71.55 0 0 0 893.638 33.252 A 82.01 82.01 0 0 0 894.144 33.398 A 9.469 9.469 0 0 1 895.165 33.751 A 7.287 7.287 0 0 1 895.951 34.131 A 2.193 2.193 0 0 1 896.886 35.172 A 3.003 3.003 0 0 1 897.025 35.547 Q 898.49 35.547 899.564 36.23 A 6.253 6.253 0 0 1 901.028 37.506 A 5.817 5.817 0 0 1 901.322 37.891 Q 902.005 38.867 902.347 39.99 A 9.041 9.041 0 0 1 902.569 40.862 Q 902.689 41.47 902.689 41.992 A 2.669 2.669 0 0 0 902.798 42.245 Q 903.018 42.687 903.287 42.687 A 0.352 0.352 0 0 0 903.373 42.676 A 0.546 0.546 0 0 1 903.506 42.66 Q 903.823 42.66 904.199 43.015 A 2.609 2.609 0 0 1 904.252 43.066 A 4.735 4.735 0 0 0 904.719 44.267 Q 904.988 44.761 905.386 45.261 A 9.21 9.21 0 0 0 905.716 45.654 A 10.885 10.885 0 0 1 907.572 48.535 Q 907.74 50.633 907.835 52.335 A 110.188 110.188 0 0 1 907.865 52.881 A 8.273 8.273 0 0 1 907.876 53.305 Q 907.876 55.002 907.181 56.738 A 21.379 21.379 0 0 1 903.128 63.184 Q 900.541 66.016 897.269 68.213 Q 893.998 70.41 890.287 71.973 A 78.162 78.162 0 0 1 884.83 74.042 A 68.198 68.198 0 0 1 883.06 74.609 A 1.605 1.605 0 0 0 882.67 74.561 A 1.605 1.605 0 0 0 882.279 74.609 A 0.525 0.525 0 0 1 882.233 74.619 Q 881.9 74.671 882.084 74.121 A 3.989 3.989 0 0 1 881.104 74.761 A 3.515 3.515 0 0 1 880.375 75 Q 879.447 75.195 878.373 75.146 Q 877.298 75.098 876.175 75 A 8.455 8.455 0 0 0 875.443 74.967 Q 874.861 74.967 874.322 75.053 A 6.384 6.384 0 0 0 874.076 75.098 A 23.944 23.944 0 0 1 873.353 74.344 A 19.088 19.088 0 0 1 872.855 73.779 A 3.874 3.874 0 0 1 872.331 72.963 A 5.323 5.323 0 0 1 872.025 72.168 A 0.705 0.705 0 0 1 871.853 72.149 Q 871.546 72.072 871.586 71.68 A 1.119 1.119 0 0 0 871.59 71.621 Q 871.61 71.191 871.244 71.191 A 18.803 18.803 0 0 0 871.37 70.977 Q 871.814 70.215 871.782 70.074 A 0.062 0.062 0 0 0 871.781 70.068 A 0.28 0.28 0 0 0 871.711 69.959 Q 871.642 69.891 871.516 69.836 A 1.11 1.11 0 0 0 871.488 69.824 Q 871.244 69.727 871.048 69.58 Q 870.853 69.434 870.951 69.141 A 2.974 2.974 0 0 0 871.246 68.092 Q 871.28 67.743 871.246 67.36 A 4.552 4.552 0 0 0 871.244 67.334 A 491.517 491.517 0 0 1 871.048 65.234 Q 870.951 64.16 871.195 63.184 Q 871.439 62.207 872.611 61.621 A 21.219 21.219 0 0 0 875.091 61.77 A 18.273 18.273 0 0 0 878.91 61.377 A 28.349 28.349 0 0 0 884.442 59.607 A 26.445 26.445 0 0 0 884.525 59.57 A 55.835 55.835 0 0 0 889.554 57.031 A 60.402 60.402 0 0 1 893.704 54.863 A 54.707 54.707 0 0 1 894.291 54.59 A 4.525 4.525 0 0 1 894.658 53.761 A 3.58 3.58 0 0 1 895.121 53.125 A 11.587 11.587 0 0 1 896.244 52.051 Q 896.83 51.563 897.318 50.977 A 3.094 3.094 0 0 0 897.814 50.13 A 4.063 4.063 0 0 0 898.002 49.512 Q 898.069 49.042 897.882 48.826 A 0.492 0.492 0 0 0 897.66 48.682 Q 897.246 48.544 897.222 48.017 A 1.462 1.462 0 0 1 897.22 47.949 Z M 450.638 54.199 L 450.248 55.371 Q 449.662 55.957 449.564 56.299 A 0.978 0.978 0 0 1 449.401 56.618 Q 449.316 56.731 449.194 56.838 A 2.006 2.006 0 0 1 449.076 56.934 Q 448.978 58.008 448.392 59.082 A 6.686 6.686 0 0 0 448.203 59.616 A 5.292 5.292 0 0 0 448.099 60.01 A 7.634 7.634 0 0 0 448.056 60.214 Q 448.02 60.405 448.007 60.534 A 1.2 1.2 0 0 0 448.002 60.645 A 3.038 3.038 0 0 1 447.975 61.065 Q 447.887 61.69 447.513 61.914 A 2.546 2.546 0 0 1 447.562 62.415 Q 447.562 62.647 447.522 62.889 A 3.215 3.215 0 0 1 447.513 62.939 A 61.69 61.69 0 0 1 447.367 63.718 A 53.671 53.671 0 0 1 447.318 63.965 Q 447.025 65.137 447.123 65.82 A 21.046 21.046 0 0 0 447.37 66.143 Q 447.484 66.29 447.59 66.42 A 12.328 12.328 0 0 0 447.66 66.504 Q 447.881 66.769 447.982 67.194 A 2.602 2.602 0 0 1 448.002 67.285 Q 448.443 67.58 448.719 67.708 A 1.56 1.56 0 0 0 448.88 67.773 Q 449.233 68.038 449.904 68.382 A 16.346 16.346 0 0 0 450.052 68.457 L 450.931 69.434 A 9.056 9.056 0 0 1 451.035 70.246 Q 451.126 71.379 450.88 72.299 A 4.252 4.252 0 0 1 450.052 73.926 Q 448.587 75.781 445.072 75.781 L 443.9 75.781 Q 443.525 75.406 443.38 75.146 A 0.871 0.871 0 0 1 443.314 75 A 105.648 105.648 0 0 1 442.942 74.86 Q 442.411 74.658 442.045 74.512 Q 441.617 74.341 441.265 73.871 A 3.098 3.098 0 0 1 441.166 73.73 Q 439.896 73.145 439.115 72.754 L 438.236 72.266 L 438.236 71.094 A 6.234 6.234 0 0 1 437.211 69.141 Q 436.869 68.066 436.673 66.992 A 21.191 21.191 0 0 0 436.357 65.741 A 18.361 18.361 0 0 0 436.234 65.332 A 5.87 5.87 0 0 0 435.914 64.518 A 4.683 4.683 0 0 0 435.599 63.965 A 42.933 42.933 0 0 1 435.573 62.486 Q 435.573 57.78 436.673 54.395 A 169.818 169.818 0 0 1 438.97 47.783 A 154.847 154.847 0 0 1 439.31 46.875 Q 440.091 44.922 440.873 42.92 A 41.296 41.296 0 0 0 442.24 38.77 L 443.119 37.793 A 607.062 607.062 0 0 0 443.445 37.045 Q 443.912 35.974 444.242 35.205 A 105.392 105.392 0 0 1 445.139 33.173 A 114.758 114.758 0 0 1 445.17 33.105 A 39.087 39.087 0 0 0 445.581 32.108 A 34.141 34.141 0 0 0 445.707 31.787 Q 445.951 31.152 446.146 30.664 A 12.382 12.382 0 0 0 445.585 30.676 A 9.49 9.49 0 0 0 445.072 30.713 A 10.103 10.103 0 0 0 444.095 30.859 Q 443.509 30.957 443.021 31.006 A 9.808 9.808 0 0 1 442.045 31.055 A 7.656 7.656 0 0 1 441.727 31.049 Q 441.288 31.03 441.068 30.957 A 5.52 5.52 0 0 1 439 31.439 A 6.441 6.441 0 0 1 438.724 31.445 L 437.748 31.445 A 3.061 3.061 0 0 1 437.438 31.43 A 2.397 2.397 0 0 1 437.211 31.396 A 2.775 2.775 0 0 0 437.006 31.363 Q 436.901 31.35 436.806 31.348 A 1.615 1.615 0 0 0 436.771 31.348 A 5.306 5.306 0 0 0 436.159 31.381 Q 435.861 31.415 435.611 31.487 A 2.324 2.324 0 0 0 435.209 31.641 L 432.962 31.641 L 431.986 31.641 A 2.025 2.025 0 0 0 431.833 31.647 Q 431.759 31.653 431.675 31.663 A 4.617 4.617 0 0 0 431.498 31.689 Q 431.301 31.722 431.148 31.733 A 1.981 1.981 0 0 1 431.009 31.738 A 7.27 7.27 0 0 1 430.163 31.687 A 9.13 9.13 0 0 1 429.545 31.592 Q 428.763 31.445 427.884 30.957 Q 426.738 29.429 426.339 29.302 A 0.289 0.289 0 0 0 426.322 29.297 L 425.443 28.125 Q 425.345 27.539 425.15 27.002 A 15.53 15.53 0 0 1 424.956 26.433 Q 424.861 26.135 424.765 25.803 A 24.951 24.951 0 0 1 424.759 25.781 Q 424.369 24.805 424.027 23.682 A 7.284 7.284 0 0 1 423.793 22.615 Q 423.712 22.061 423.692 21.43 A 13.453 13.453 0 0 1 423.685 20.996 Q 423.783 20.217 424.074 19.826 A 1.244 1.244 0 0 1 424.076 19.824 A 20.755 20.755 0 0 0 424.282 19.545 Q 424.382 19.407 424.467 19.283 A 10.446 10.446 0 0 0 424.564 19.141 L 424.857 17.676 L 426.127 17.773 L 428.861 17.773 Q 431.986 17.773 435.209 17.529 A 670.193 670.193 0 0 0 441.423 17.029 A 731.971 731.971 0 0 0 441.849 16.992 A 1645.562 1645.562 0 0 1 445.804 16.602 A 616.467 616.467 0 0 1 448.89 16.309 A 684.186 684.186 0 0 1 449.955 16.211 A 41.999 41.999 0 0 1 450.534 14.96 A 36.309 36.309 0 0 1 450.736 14.551 L 451.712 14.063 Q 453.341 13.972 454.09 14.427 A 1.563 1.563 0 0 1 454.203 14.502 A 13.298 13.298 0 0 1 454.796 14.962 Q 455.06 15.18 455.281 15.389 A 7.354 7.354 0 0 1 455.423 15.527 A 218.446 218.446 0 0 0 459.769 15.088 A 72.951 72.951 0 0 0 464.212 14.453 A 220.592 220.592 0 0 1 470.902 13.574 A 58.18 58.18 0 0 1 475.818 13.208 A 51.5 51.5 0 0 1 477.396 13.184 A 34.917 34.917 0 0 1 479.674 13.256 A 31.387 31.387 0 0 1 480.033 13.281 Q 481.302 13.379 482.377 13.574 L 483.353 14.258 A 3.538 3.538 0 0 0 483.945 15.098 A 4.224 4.224 0 0 0 484.183 15.332 A 34.564 34.564 0 0 0 485.306 16.309 A 20.2 20.2 0 0 1 486.625 17.641 A 25.904 25.904 0 0 1 487.65 18.848 A 3.997 3.997 0 0 1 488.364 20.276 Q 488.702 21.472 488.529 23.145 Q 488.224 23.602 487.978 23.911 A 4.766 4.766 0 0 1 487.878 24.034 L 488.529 24.121 A 14.618 14.618 0 0 0 493.314 20.557 A 41.404 41.404 0 0 0 495.324 18.116 Q 496.27 16.878 497.237 15.451 A 67.813 67.813 0 0 0 497.513 15.039 L 498.49 13.672 L 499.759 14.453 A 3.512 3.512 0 0 0 500.141 14.649 Q 500.55 14.83 501.127 14.99 A 86.792 86.792 0 0 1 502.03 15.247 A 102.558 102.558 0 0 1 502.982 15.527 A 42.382 42.382 0 0 1 505.484 16.161 A 36.724 36.724 0 0 1 506.302 16.406 A 7.077 7.077 0 0 1 507.638 16.971 A 5.413 5.413 0 0 1 508.841 17.871 Q 509.427 19.434 509.525 20.215 Q 509.623 20.996 509.818 21.777 A 117.356 117.356 0 0 1 510.355 25.098 A 32.743 32.743 0 0 1 510.563 26.855 A 44.306 44.306 0 0 1 510.697 28.809 Q 511.185 30.469 511.527 32.08 Q 511.869 33.691 512.162 35.352 A 354.264 354.264 0 0 0 513.016 39.341 A 322.688 322.688 0 0 0 513.138 39.893 Q 513.627 42.09 514.408 44.043 A 10.033 10.033 0 0 1 514.68 44.046 Q 515.226 44.061 515.384 44.141 A 5.312 5.312 0 0 1 516.41 43.848 A 27.217 27.217 0 0 1 516.945 43.756 Q 517.267 43.704 517.63 43.652 L 518.705 43.555 L 519.095 44.531 Q 519.178 44.943 519.817 45.355 A 4.53 4.53 0 0 0 520.072 45.508 A 6.598 6.598 0 0 1 520.732 45.59 Q 521.506 45.729 521.927 46.045 Q 522.513 46.484 523.002 46.973 Q 523.365 47.336 523.728 47.53 A 2.231 2.231 0 0 0 523.783 47.559 L 525.248 48.145 L 524.466 49.609 A 11.588 11.588 0 0 1 523.105 51.541 A 15.419 15.419 0 0 1 521.683 52.979 A 17.202 17.202 0 0 1 517.63 55.664 A 15.827 15.827 0 0 1 517.748 56.498 A 13.684 13.684 0 0 1 517.777 56.787 A 4.619 4.619 0 0 0 517.895 57.478 A 5.683 5.683 0 0 0 518.021 57.91 Q 518.314 59.57 518.509 61.328 A 16.127 16.127 0 0 1 518.607 63.11 A 17.483 17.483 0 0 1 518.509 64.941 L 518.314 65.332 A 14.36 14.36 0 0 1 517.386 67.4 A 18.055 18.055 0 0 1 516.605 68.701 Q 515.482 70.41 513.968 71.729 Q 512.455 73.047 510.599 73.926 A 10.167 10.167 0 0 1 506.693 74.902 Q 505.757 74.686 505.272 74.444 A 1.737 1.737 0 0 1 504.984 74.268 Q 504.545 73.926 504.056 73.633 Q 503.763 73.438 503.519 73.291 Q 503.309 73.165 503.136 73.075 A 4.649 4.649 0 0 0 503.08 73.047 L 501.908 72.559 L 502.298 71.289 A 2.864 2.864 0 0 0 502.352 71.026 Q 502.442 70.431 502.201 70.068 A 2.879 2.879 0 0 0 502.004 69.811 Q 501.78 69.546 501.41 69.196 A 16.797 16.797 0 0 0 501.029 68.848 L 500.443 68.262 A 4.329 4.329 0 0 1 500.148 67.937 A 3.389 3.389 0 0 1 499.955 67.676 L 498.295 65.82 L 500.931 65.137 A 12.548 12.548 0 0 0 502.115 64.746 Q 503.275 64.292 503.901 63.708 A 2.766 2.766 0 0 0 504.203 63.379 A 2.722 2.722 0 0 0 504.619 62.572 Q 504.93 61.645 504.863 60.179 A 13.206 13.206 0 0 0 504.837 59.766 A 12.584 12.584 0 0 0 503.901 59.613 Q 502.891 59.489 502.083 59.582 A 5.015 5.015 0 0 0 501.566 59.668 A 46.492 46.492 0 0 0 498.88 60.352 A 43.58 43.58 0 0 1 495.316 61.182 A 19.38 19.38 0 0 1 493.05 61.467 A 24.516 24.516 0 0 1 491.361 61.523 A 22.19 22.19 0 0 1 490.422 61.504 A 18.215 18.215 0 0 1 489.896 61.475 Q 489.212 61.426 488.431 61.328 L 487.455 61.133 A 11.231 11.231 0 0 0 487.381 60.763 Q 487.223 60.031 487.064 59.912 A 3.421 3.421 0 0 1 486.82 59.71 A 4.12 4.12 0 0 1 486.673 59.57 Q 486.185 59.082 485.648 58.252 A 2.168 2.168 0 0 1 485.317 57.3 Q 485.277 56.943 485.333 56.534 A 4.291 4.291 0 0 1 485.404 56.152 A 5.116 5.116 0 0 1 484.978 55.164 A 4.224 4.224 0 0 1 484.818 54.395 A 10.943 10.943 0 0 0 483.939 56.836 L 483.548 57.813 L 482.572 58.008 A 0.427 0.427 0 0 0 482.427 58.131 Q 482.336 58.247 482.279 58.447 A 3.832 3.832 0 0 0 482.232 58.628 Q 482.191 58.804 482.183 58.93 A 0.905 0.905 0 0 0 482.181 58.984 L 481.693 60.645 A 3.931 3.931 0 0 1 481.449 60.87 A 3.267 3.267 0 0 1 481.302 60.986 A 3.421 3.421 0 0 0 481.058 61.189 A 4.12 4.12 0 0 0 480.912 61.328 Q 480.716 62.207 480.423 63.086 A 50.046 50.046 0 0 1 480.021 64.248 A 42.728 42.728 0 0 1 479.837 64.746 A 28.314 28.314 0 0 0 479.106 66.892 A 25.495 25.495 0 0 0 479.007 67.236 Q 478.666 68.457 478.763 69.629 L 478.373 70.703 A 4.384 4.384 0 0 1 477.741 71.327 A 3.693 3.693 0 0 1 477.298 71.631 A 20.689 20.689 0 0 1 476.127 72.266 Q 475.962 72.43 475.694 72.56 A 2.504 2.504 0 0 1 475.589 72.607 A 18.384 18.384 0 0 0 475.428 72.678 Q 475.199 72.778 475.052 72.852 L 474.759 73.926 L 473.587 74.121 A 108.382 108.382 0 0 0 473.09 74.213 Q 472.476 74.327 472.147 74.398 A 11.258 11.258 0 0 0 472.074 74.414 Q 471.634 74.512 471.048 74.512 L 470.072 74.414 A 73.094 73.094 0 0 1 469.565 73.996 Q 469.019 73.54 468.633 73.197 A 19.574 19.574 0 0 1 468.412 72.998 A 8.576 8.576 0 0 0 467.625 72.362 A 10.72 10.72 0 0 0 467.045 71.973 A 12.414 12.414 0 0 1 466.675 71.456 Q 466.143 70.663 466.068 70.215 A 38.811 38.811 0 0 0 465.97 69.653 A 29.799 29.799 0 0 0 465.873 69.141 Q 465.744 68.756 465.679 68.456 A 3.344 3.344 0 0 1 465.628 68.164 A 1.472 1.472 0 0 0 465.581 67.931 Q 465.545 67.809 465.489 67.713 A 0.687 0.687 0 0 0 465.384 67.578 L 464.115 66.406 L 465.189 65.527 L 465.287 63.867 Q 467.24 58.887 469.437 54.297 A 1161.873 1161.873 0 0 1 473.978 44.922 A 137.187 137.187 0 0 0 475.492 41.797 A 137.187 137.187 0 0 1 477.005 38.672 Q 476.914 38.397 476.908 38.037 A 3.052 3.052 0 0 1 476.908 37.988 A 1.865 1.865 0 0 1 476.945 37.628 Q 476.98 37.453 477.046 37.261 A 3.541 3.541 0 0 1 477.103 37.109 A 47.511 47.511 0 0 0 477.854 35.912 Q 478.252 35.254 478.579 34.659 A 25.574 25.574 0 0 0 478.861 34.131 A 204.966 204.966 0 0 0 480.228 31.445 A 74.317 74.317 0 0 1 481.839 28.223 A 21.05 21.05 0 0 1 482.912 26.434 A 27.041 27.041 0 0 1 483.019 26.275 A 8.132 8.132 0 0 1 482.67 26.416 A 5.047 5.047 0 0 1 482.206 26.563 A 6.584 6.584 0 0 1 481.791 26.66 A 26.193 26.193 0 0 1 481.275 26.655 Q 480.761 26.645 480.399 26.613 A 7.454 7.454 0 0 1 480.375 26.611 Q 479.837 26.563 479.252 26.563 A 39.879 39.879 0 0 0 476.381 26.671 A 50.358 50.358 0 0 0 473.978 26.904 A 257.727 257.727 0 0 0 468.412 27.637 A 95.064 95.064 0 0 1 465.564 28.021 A 83.831 83.831 0 0 1 464.652 28.125 A 94.307 94.307 0 0 1 462.931 28.296 A 68.529 68.529 0 0 1 461.38 28.418 A 59.167 59.167 0 0 1 460.74 30.325 Q 460.422 31.217 460.104 32.004 A 35.553 35.553 0 0 1 460.013 32.227 Q 459.33 33.887 458.548 35.449 A 43.394 43.394 0 0 0 457.132 38.818 A 57.199 57.199 0 0 0 456.283 41.284 A 67.596 67.596 0 0 0 455.912 42.48 A 36.361 36.361 0 0 0 455.071 43.892 Q 454.692 44.565 454.386 45.185 A 21.732 21.732 0 0 0 454.3 45.361 A 13.228 13.228 0 0 0 453.633 47.047 A 16.692 16.692 0 0 0 453.275 48.34 A 11.315 11.315 0 0 0 451.917 50.472 A 9.994 9.994 0 0 0 451.517 51.416 Q 451.069 52.65 450.792 53.626 A 18.922 18.922 0 0 0 450.638 54.199 Z M 195.633 13.647 A 37.767 37.767 0 0 0 191.752 12.988 A 0.433 0.433 0 0 0 191.745 12.988 Q 191.52 12.991 191.442 13.229 A 0.793 0.793 0 0 0 191.41 13.379 A 0.628 0.628 0 0 1 191.409 13.381 Q 191.365 13.731 190.965 13.607 A 1.213 1.213 0 0 1 190.873 13.574 A 11.585 11.585 0 0 0 189.608 13.299 Q 188.555 13.13 187.394 13.13 A 16.299 16.299 0 0 0 187.015 13.135 Q 184.916 13.184 182.865 13.623 A 19.403 19.403 0 0 0 182.231 13.77 A 17.131 17.131 0 0 0 179.056 14.893 Q 177.298 15.723 176.127 16.699 A 9.098 9.098 0 0 0 174.741 17.459 A 11.29 11.29 0 0 0 173.148 18.75 A 17.446 17.446 0 0 0 172.626 19.276 A 19.253 19.253 0 0 0 170.56 21.875 Q 169.388 23.633 168.412 25.732 A 43.17 43.17 0 0 0 168.172 26.257 A 38.865 38.865 0 0 0 166.752 29.883 A 6.888 6.888 0 0 1 166.694 30.788 A 5.407 5.407 0 0 1 166.263 32.324 Q 165.775 33.398 164.505 34.375 A 2.37 2.37 0 0 1 164.488 34.389 Q 164.015 34.76 163.871 34.473 A 0.342 0.342 0 0 0 163.701 34.315 Q 163.515 34.229 163.164 34.262 A 2.718 2.718 0 0 0 163.041 34.277 A 67.57 67.57 0 0 1 161.185 37.012 A 20.858 20.858 0 0 0 160.946 37.354 A 18.773 18.773 0 0 0 159.525 39.795 A 13.424 13.424 0 0 0 158.5 42.773 A 8.116 8.116 0 0 0 158.316 44.513 Q 158.316 45.282 158.451 46.094 A 1.691 1.691 0 0 0 158.418 46.089 Q 158.032 46.032 157.868 46.198 A 0.401 0.401 0 0 0 157.767 46.387 A 4.853 4.853 0 0 1 157.738 46.499 Q 157.691 46.669 157.626 46.857 A 8.643 8.643 0 0 1 157.474 47.266 A 3.634 3.634 0 0 1 157.903 48.005 A 4.236 4.236 0 0 1 158.207 49.121 A 3.139 3.139 0 0 0 158.26 49.414 A 2.309 2.309 0 0 0 159.134 50.781 A 2.555 2.555 0 0 1 159.132 50.782 A 1.843 1.843 0 0 1 158.548 50.879 A 0.82 0.82 0 0 0 158.508 50.88 Q 158.249 50.893 158.158 51.074 A 4.369 4.369 0 0 1 158.807 51.428 A 2.805 2.805 0 0 1 160.111 53.516 Q 160.306 55.176 159.964 57.178 A 47.647 47.647 0 0 1 159.086 61.23 A 20.308 20.308 0 0 1 158.717 62.482 Q 158.525 63.06 158.317 63.544 A 8.348 8.348 0 0 1 157.865 64.453 A 3.132 3.132 0 0 0 157.879 64.752 A 2.308 2.308 0 0 0 158.548 66.211 A 3.75 3.75 0 0 0 158.155 66.548 Q 157.579 67.12 157.579 67.733 A 1.372 1.372 0 0 0 157.621 68.066 Q 157.758 68.616 158.034 69.196 A 8.65 8.65 0 0 0 158.548 70.117 A 117.798 117.798 0 0 0 159.916 72.217 A 4.257 4.257 0 0 1 159.943 72.259 Q 160.447 73.035 160.447 73.782 A 2.22 2.22 0 0 1 160.404 74.219 Q 161.38 74.316 161.918 74.658 A 25.684 25.684 0 0 0 162.491 75.012 A 35.3 35.3 0 0 0 163.138 75.391 A 67.739 67.739 0 0 0 163.53 75.305 Q 164.13 75.173 164.8 75.015 A 118.752 118.752 0 0 0 166.263 74.658 Q 168.021 74.219 169.681 74.219 Q 171.146 72.266 172.025 69.922 A 27.198 27.198 0 0 0 173.343 65.088 A 32.257 32.257 0 0 0 173.832 60.107 A 83.316 83.316 0 0 0 173.848 58.474 Q 173.848 58.274 173.847 58.075 A 70.58 70.58 0 0 0 173.783 55.371 A 1050.605 1050.605 0 0 1 183.597 53.418 Q 188.627 52.441 193.314 51.074 Q 198.002 49.707 202.054 47.51 Q 206.107 45.313 208.939 41.797 A 20.559 20.559 0 0 0 209.54 40.143 A 17.086 17.086 0 0 0 209.846 39.073 A 61.295 61.295 0 0 1 210.892 40.43 A 2.645 2.645 0 0 1 211.005 40.404 Q 211.355 40.333 211.597 40.39 A 0.626 0.626 0 0 1 211.966 40.625 A 3.533 3.533 0 0 1 212.077 40.781 A 3.905 3.905 0 0 1 212.455 41.504 Q 215.287 42.773 218.363 43.262 A 59.926 59.926 0 0 0 219.136 43.379 A 66.048 66.048 0 0 0 224.759 43.945 A 35.412 35.412 0 0 1 225.663 44.138 Q 226.529 44.334 227.152 44.531 Q 227.828 44.745 228.583 44.491 A 3.577 3.577 0 0 0 229.154 44.238 A 16.677 16.677 0 0 0 229.634 44.483 Q 230.375 44.845 231.238 45.181 A 29.712 29.712 0 0 0 233.158 45.85 A 23.535 23.535 0 0 1 234.847 46.447 A 19.131 19.131 0 0 1 237.357 47.656 L 238.431 47.949 A 1.462 1.462 0 0 0 238.433 48.017 Q 238.457 48.544 238.871 48.682 A 0.492 0.492 0 0 1 239.093 48.826 Q 239.28 49.042 239.212 49.512 A 4.063 4.063 0 0 1 239.025 50.13 A 3.094 3.094 0 0 1 238.529 50.977 Q 238.041 51.563 237.455 52.051 A 11.587 11.587 0 0 0 236.332 53.125 A 3.58 3.58 0 0 0 235.869 53.761 A 4.525 4.525 0 0 0 235.502 54.59 A 54.707 54.707 0 0 0 234.915 54.863 A 60.402 60.402 0 0 0 230.765 57.031 A 55.835 55.835 0 0 1 225.736 59.57 A 26.445 26.445 0 0 1 225.653 59.607 A 28.349 28.349 0 0 1 220.121 61.377 A 18.273 18.273 0 0 1 216.302 61.77 A 21.219 21.219 0 0 1 213.822 61.621 Q 212.65 62.207 212.406 63.184 Q 212.162 64.16 212.259 65.234 A 491.517 491.517 0 0 0 212.455 67.334 A 4.552 4.552 0 0 1 212.457 67.36 Q 212.491 67.743 212.457 68.092 A 2.974 2.974 0 0 1 212.162 69.141 Q 212.064 69.434 212.259 69.58 Q 212.455 69.727 212.699 69.824 A 1.11 1.11 0 0 1 212.727 69.836 Q 212.853 69.891 212.922 69.959 A 0.28 0.28 0 0 1 212.992 70.068 A 0.062 0.062 0 0 1 212.993 70.074 Q 213.025 70.215 212.581 70.977 A 18.803 18.803 0 0 1 212.455 71.191 Q 212.821 71.191 212.801 71.621 A 1.119 1.119 0 0 1 212.796 71.68 Q 212.757 72.072 213.064 72.149 A 0.705 0.705 0 0 0 213.236 72.168 A 5.323 5.323 0 0 0 213.542 72.963 A 3.874 3.874 0 0 0 214.066 73.779 A 19.088 19.088 0 0 0 214.564 74.344 A 23.944 23.944 0 0 0 215.287 75.098 A 6.384 6.384 0 0 1 215.533 75.053 Q 216.072 74.967 216.654 74.967 A 8.455 8.455 0 0 1 217.386 75 Q 218.509 75.098 219.584 75.146 Q 220.658 75.195 221.586 75 A 3.515 3.515 0 0 0 222.315 74.761 A 3.989 3.989 0 0 0 223.295 74.121 Q 223.111 74.671 223.444 74.619 A 0.525 0.525 0 0 0 223.49 74.609 A 1.605 1.605 0 0 1 223.88 74.561 A 1.605 1.605 0 0 1 224.271 74.609 A 68.198 68.198 0 0 0 226.041 74.042 A 78.162 78.162 0 0 0 231.498 71.973 Q 235.209 70.41 238.48 68.213 Q 241.752 66.016 244.339 63.184 A 21.379 21.379 0 0 0 248.392 56.738 Q 249.087 55.002 249.087 53.305 A 8.273 8.273 0 0 0 249.076 52.881 A 110.188 110.188 0 0 0 249.046 52.335 Q 248.951 50.633 248.783 48.535 A 10.885 10.885 0 0 0 246.927 45.654 A 9.21 9.21 0 0 1 246.597 45.261 Q 246.199 44.761 245.93 44.267 A 4.735 4.735 0 0 1 245.462 43.066 A 2.609 2.609 0 0 0 245.41 43.015 Q 245.034 42.66 244.716 42.66 A 0.546 0.546 0 0 0 244.584 42.676 A 0.352 0.352 0 0 1 244.498 42.687 Q 244.229 42.687 244.009 42.245 A 2.669 2.669 0 0 1 243.9 41.992 Q 243.9 41.47 243.779 40.862 A 9.041 9.041 0 0 0 243.558 39.99 Q 243.216 38.867 242.533 37.891 A 5.817 5.817 0 0 0 242.239 37.506 A 6.253 6.253 0 0 0 240.775 36.23 Q 239.701 35.547 238.236 35.547 A 3.003 3.003 0 0 0 238.097 35.172 A 2.193 2.193 0 0 0 237.162 34.131 A 7.287 7.287 0 0 0 236.376 33.751 A 9.469 9.469 0 0 0 235.355 33.398 A 82.01 82.01 0 0 1 234.848 33.252 A 71.55 71.55 0 0 1 233.402 32.813 A 3.848 3.848 0 0 1 233.203 32.744 A 3.171 3.171 0 0 1 231.888 31.836 A 1.669 1.669 0 0 0 231.891 31.828 Q 232.081 31.346 231.791 31.201 A 0.373 0.373 0 0 1 231.59 30.951 Q 231.559 30.832 231.579 30.669 A 1.368 1.368 0 0 1 231.595 30.566 Q 233.255 30.371 234.671 30.127 A 6.182 6.182 0 0 0 235.473 29.935 A 4.837 4.837 0 0 0 237.064 29.102 A 4.843 4.843 0 0 0 237.862 29.167 Q 238.675 29.167 239.554 28.906 L 242.191 28.125 Q 243.509 27.734 244.73 27.734 A 2.956 2.956 0 0 1 245.699 27.891 A 2.949 2.949 0 0 1 246.83 28.613 Q 248.386 28.51 250.163 28.378 A 663.042 663.042 0 0 0 253.47 28.125 A 23.49 23.49 0 0 1 255.32 28.052 A 23.084 23.084 0 0 1 260.795 28.711 A 13.234 13.234 0 0 0 262.796 27.588 A 28.501 28.501 0 0 0 263.381 27.177 A 33.468 33.468 0 0 0 264.701 26.172 Q 265.091 24.512 264.505 23.486 Q 263.92 22.461 262.943 21.582 A 3.999 3.999 0 0 0 262.837 21.011 A 4.475 4.475 0 0 0 262.357 19.873 A 19.555 19.555 0 0 0 261.97 19.244 A 23.37 23.37 0 0 0 261.234 18.164 A 57.102 57.102 0 0 1 260.013 16.406 A 6.913 6.913 0 0 1 259.134 14.551 A 34.588 34.588 0 0 0 256.412 13.875 Q 252.511 13.076 248.88 13.33 A 54.265 54.265 0 0 0 239.359 14.844 A 117.095 117.095 0 0 0 230.277 17.529 A 135.551 135.551 0 0 0 227.82 18.392 A 116.617 116.617 0 0 0 221.927 20.703 Q 220.17 21.191 218.216 21.875 A 22.986 22.986 0 0 0 214.457 23.584 A 16.398 16.398 0 0 0 211.136 26.074 A 8.598 8.598 0 0 0 209.498 28.264 A 27.315 27.315 0 0 0 207.523 23.047 A 63.422 63.422 0 0 0 206.806 21.655 A 55.515 55.515 0 0 0 204.545 17.773 Q 202.298 15.82 199.076 14.648 A 28.516 28.516 0 0 0 195.633 13.647 Z M 34.525 2.344 L 34.818 3.711 Q 35.013 4.395 35.453 4.639 Q 35.892 4.883 36.185 4.883 A 23.664 23.664 0 0 1 37.089 5.109 Q 37.803 5.304 38.382 5.518 A 7.611 7.611 0 0 0 39.97 5.91 A 8.782 8.782 0 0 0 40.384 5.957 Q 40.775 6.543 41.117 7.129 A 9.094 9.094 0 0 0 41.693 8.001 A 8.07 8.07 0 0 0 41.849 8.203 A 45.742 45.742 0 0 1 43.83 11.327 A 35.863 35.863 0 0 1 45.072 13.672 Q 46.101 15.809 45.462 18.267 A 9.36 9.36 0 0 1 45.072 19.434 L 45.17 20.508 A 3.35 3.35 0 0 1 45.437 20.946 Q 45.658 21.384 45.658 21.777 Q 45.658 22.363 45.462 23.438 Q 45.365 24.219 45.316 25.146 Q 45.284 25.751 45.398 26.418 A 7.652 7.652 0 0 0 45.56 27.148 L 46.244 27.93 A 7.889 7.889 0 0 0 47.687 28.49 A 5.984 5.984 0 0 0 49.271 28.711 A 7.459 7.459 0 0 0 51.506 28.385 A 6.643 6.643 0 0 0 52.787 27.832 A 60.373 60.373 0 0 0 54.976 26.541 A 52.071 52.071 0 0 0 55.716 26.074 A 19.996 19.996 0 0 1 56.691 25.406 Q 57.225 25.064 57.718 24.805 A 8.074 8.074 0 0 1 58.746 24.348 A 6.423 6.423 0 0 1 59.525 24.121 Q 61.56 22.183 63.258 20.678 A 102.777 102.777 0 0 1 63.285 20.654 A 187.595 187.595 0 0 1 66.618 17.773 A 205.225 205.225 0 0 1 66.849 17.578 A 91.759 91.759 0 0 0 73.685 11.475 A 22.335 22.335 0 0 0 77.752 5.939 A 27.45 27.45 0 0 0 78.959 3.32 Q 80.033 2.637 81.4 2.637 A 7.333 7.333 0 0 1 83.835 3.063 A 8.45 8.45 0 0 1 84.134 3.174 A 33.532 33.532 0 0 1 86.869 4.395 A 3.871 3.871 0 0 0 87.099 4.537 Q 87.215 4.604 87.323 4.652 A 2.06 2.06 0 0 0 87.406 4.688 Q 87.65 4.785 87.943 4.98 A 2.549 2.549 0 0 0 88.458 6.511 A 3.57 3.57 0 0 0 88.822 6.934 Q 89.243 7.271 89.446 7.39 A 1.032 1.032 0 0 0 89.505 7.422 L 89.896 7.617 Q 90.494 7.991 90.949 8.308 A 15.574 15.574 0 0 1 91.214 8.496 A 2.419 2.419 0 0 1 91.905 9.285 A 3.027 3.027 0 0 1 92.045 9.57 Q 92.923 12.207 94.974 13.672 A 4.753 4.753 0 0 0 94.896 14.523 A 4.522 4.522 0 0 0 95.072 15.771 A 20.694 20.694 0 0 0 95.755 17.773 A 5.006 5.006 0 0 1 95.926 18.15 A 3.673 3.673 0 0 1 96.048 18.506 A 6.055 6.055 0 0 0 96.134 18.78 Q 96.219 19.029 96.341 19.336 L 94.193 19.141 L 94.486 21.289 A 6.97 6.97 0 0 1 94.589 22.43 Q 94.596 23.121 94.479 23.87 A 11.365 11.365 0 0 1 94.242 25 A 20.502 20.502 0 0 1 93.892 26.196 Q 93.691 26.806 93.474 27.313 A 8.348 8.348 0 0 1 93.021 28.223 Q 93.182 30.637 93.21 32.223 A 35.876 35.876 0 0 1 93.216 32.861 A 26.308 26.308 0 0 1 93.148 34.805 A 21.142 21.142 0 0 1 93.021 36.035 A 15.216 15.216 0 0 1 92.467 38.57 A 13.987 13.987 0 0 1 92.386 38.818 A 23.915 23.915 0 0 1 91.778 40.436 A 29.992 29.992 0 0 1 91.263 41.602 A 43.707 43.707 0 0 1 91.325 43.899 Q 91.325 47.883 90.567 51.481 A 31.577 31.577 0 0 1 89.554 55.176 A 131.912 131.912 0 0 1 86.286 63.791 A 114.043 114.043 0 0 1 85.013 66.699 A 25.628 25.628 0 0 1 84.647 67.516 A 21.167 21.167 0 0 1 84.427 67.969 A 8.998 8.998 0 0 0 83.964 69.067 A 8.271 8.271 0 0 0 83.939 69.141 A 15.047 15.047 0 0 0 82.792 69.501 A 12.074 12.074 0 0 0 81.986 69.824 Q 81.107 70.215 80.326 70.703 A 14.114 14.114 0 0 1 78.748 71.575 A 12.319 12.319 0 0 1 78.177 71.826 A 5.876 5.876 0 0 1 75.931 72.266 Q 71.244 68.848 71.097 60.449 A 36.957 36.957 0 0 1 71.092 59.805 Q 71.092 51.558 74.662 39.063 A 1.376 1.376 0 0 0 75.248 38.052 Q 75.27 37.86 75.252 37.643 A 2.59 2.59 0 0 0 75.248 37.598 L 75.248 36.523 L 74.271 36.426 A 4.204 4.204 0 0 0 73.807 36.45 A 3.142 3.142 0 0 0 73.392 36.523 A 0.53 0.53 0 0 0 73.124 36.696 Q 72.972 36.867 72.865 37.197 A 3.1 3.1 0 0 0 72.806 37.402 A 172.448 172.448 0 0 1 68.69 40.267 A 208.729 208.729 0 0 1 66.019 42.041 Q 62.357 44.434 58.451 46.436 Q 54.545 48.438 50.492 49.756 A 27.071 27.071 0 0 1 45.521 50.889 A 22.97 22.97 0 0 1 42.63 51.074 A 14.817 14.817 0 0 1 30.577 45.354 A 22.977 22.977 0 0 1 27.884 41.113 L 27.005 39.355 L 26.029 40.918 A 11.358 11.358 0 0 0 25.867 41.198 Q 25.635 41.611 25.252 42.344 A 118.362 118.362 0 0 0 25.003 42.822 A 29.946 29.946 0 0 0 24.294 44.297 Q 23.916 45.137 23.539 46.094 A 37.305 37.305 0 0 0 22.269 49.902 Q 21.732 51.855 21.927 53.32 A 22.609 22.609 0 0 0 20.339 54.936 A 26.582 26.582 0 0 0 19.632 55.762 A 8.409 8.409 0 0 0 18.021 58.887 A 1.883 1.883 0 0 0 17.919 59.226 Q 17.891 59.374 17.891 59.516 A 1.371 1.371 0 0 0 17.923 59.814 A 5.489 5.489 0 0 0 18.074 60.354 A 6.935 6.935 0 0 0 18.216 60.742 A 3.067 3.067 0 0 1 18.146 61.096 Q 18.036 61.508 17.826 61.719 A 5.721 5.721 0 0 1 17.465 62.048 A 7.32 7.32 0 0 1 17.142 62.305 A 29.771 29.771 0 0 0 16.166 63.33 A 6.722 6.722 0 0 0 15.437 64.3 A 7.658 7.658 0 0 0 15.287 64.551 Q 15.091 65.137 14.994 65.771 Q 14.91 66.317 14.826 66.754 A 18.333 18.333 0 0 1 14.798 66.895 Q 14.798 67.969 14.505 68.359 A 95.945 95.945 0 0 1 14.032 69.339 Q 13.346 70.74 12.796 71.729 A 14.237 14.237 0 0 1 12.343 72.491 Q 11.85 73.26 11.38 73.73 Q 10.697 74.414 9.964 74.658 A 4.535 4.535 0 0 1 9.171 74.841 Q 8.744 74.902 8.255 74.902 A 9.564 9.564 0 0 1 7.7 74.884 Q 7.065 74.847 6.151 74.733 A 50.9 50.9 0 0 1 5.228 74.609 A 11.652 11.652 0 0 1 3.937 72.94 Q 3.387 72.088 2.888 71.05 A 22.747 22.747 0 0 1 2.445 70.068 A 30.484 30.484 0 0 1 0.692 64.425 A 33.871 33.871 0 0 1 0.589 63.916 A 31.829 31.829 0 0 1 0 57.84 A 31.317 31.317 0 0 1 0.003 57.373 A 17.655 17.655 0 0 1 0.309 54.285 A 13.58 13.58 0 0 1 1.127 51.563 A 0.275 0.275 0 0 1 1.141 51.505 Q 1.243 51.184 2.054 49.219 A 473.373 473.373 0 0 1 2.552 48.019 Q 3.295 46.233 4.302 43.848 A 1402.518 1402.518 0 0 1 4.447 43.506 A 601.221 601.221 0 0 1 6.009 39.844 A 821.261 821.261 0 0 1 7.767 35.791 A 701.625 701.625 0 0 1 11.478 27.441 A 212.588 212.588 0 0 1 13.297 23.523 A 163.483 163.483 0 0 1 15.043 19.971 Q 16.674 16.755 17.904 14.919 A 21.493 21.493 0 0 1 18.021 14.746 A 67.62 67.62 0 0 0 19.16 12.912 A 57.85 57.85 0 0 0 19.632 12.109 A 70.229 70.229 0 0 1 20.353 10.889 A 56.875 56.875 0 0 1 21.048 9.766 A 3299.086 3299.086 0 0 1 22.086 8.069 A 2640.092 2640.092 0 0 1 23.05 6.494 A 17.88 17.88 0 0 1 24.789 4.109 A 16.262 16.262 0 0 1 25.101 3.76 Q 26.224 2.539 27.591 1.611 A 12.103 12.103 0 0 1 29.105 0.745 Q 29.883 0.367 30.79 0.043 A 19.981 19.981 0 0 1 30.912 0 A 17.576 17.576 0 0 1 32.006 0.498 A 12.84 12.84 0 0 1 32.962 1.025 A 6.725 6.725 0 0 1 34.525 2.344 Z M 1087.943 41.992 L 1094.681 37.5 Q 1095.504 38.098 1096.612 38.782 A 48.577 48.577 0 0 0 1097.318 39.209 Q 1098.88 40.137 1100.589 41.064 A 173.326 173.326 0 0 0 1104.105 42.92 A 108.232 108.232 0 0 1 1106.268 44.061 A 89.671 89.671 0 0 1 1107.474 44.727 A 8.688 8.688 0 0 1 1109.916 46.289 Q 1110.99 47.266 1111.966 48.291 Q 1112.943 49.316 1113.968 50.293 A 9.62 9.62 0 0 0 1115.983 51.755 A 11.001 11.001 0 0 0 1116.361 51.953 A 7.085 7.085 0 0 0 1116.302 52.441 Q 1116.224 53.379 1116.459 54.004 A 3.279 3.279 0 0 1 1116.623 54.645 Q 1116.705 55.159 1116.666 55.794 A 7.462 7.462 0 0 1 1116.654 55.957 A 18.03 18.03 0 0 1 1113.152 60.462 A 16.294 16.294 0 0 1 1110.502 62.451 Q 1106.693 64.746 1102.103 66.26 A 110.116 110.116 0 0 1 1093.734 68.647 A 121.733 121.733 0 0 1 1092.484 68.945 A 68.75 68.75 0 0 0 1082.767 71.973 A 33.138 33.138 0 0 0 1081.79 71.986 Q 1081.257 72.002 1080.788 72.036 A 17.961 17.961 0 0 0 1080.375 72.07 Q 1079.349 72.168 1078.421 72.314 Q 1077.494 72.461 1076.615 72.607 A 23.021 23.021 0 0 1 1075.687 72.742 A 30.653 30.653 0 0 1 1074.662 72.852 A 1.073 1.073 0 0 0 1074.581 72.835 Q 1074.443 72.811 1074.348 72.838 A 0.256 0.256 0 0 0 1074.173 72.998 A 1.301 1.301 0 0 1 1073.88 73.438 Q 1072.395 73.7 1071.184 73.727 A 12.361 12.361 0 0 1 1070.902 73.73 L 1068.705 73.73 A 8.681 8.681 0 0 0 1066.692 73.974 A 9.918 9.918 0 0 0 1066.312 74.072 Q 1065.091 74.414 1064.115 74.316 A 18.901 18.901 0 0 1 1058.925 73.35 A 14.29 14.29 0 0 1 1052.64 69.092 A 17.551 17.551 0 0 1 1049.405 63.318 Q 1048.572 60.905 1048.211 58.007 A 35.121 35.121 0 0 1 1048.002 55.664 A 1.657 1.657 0 0 0 1048.018 55.565 Q 1048.055 55.298 1047.97 55.171 A 0.243 0.243 0 0 0 1047.855 55.078 A 1.301 1.301 0 0 1 1047.416 54.785 A 6.52 6.52 0 0 1 1047.454 54.053 Q 1047.513 53.536 1047.66 53.125 Q 1047.902 52.446 1047.711 51.382 A 6.543 6.543 0 0 0 1047.709 51.367 Q 1050.248 45.996 1053.47 41.357 A 37.404 37.404 0 0 1 1061.185 33.203 A 11.113 11.113 0 0 0 1061.883 32.553 A 8.659 8.659 0 0 0 1062.357 32.031 A 29.179 29.179 0 0 0 1063.285 30.859 Q 1063.724 30.273 1064.31 29.834 A 3.294 3.294 0 0 1 1065.056 29.419 A 4.548 4.548 0 0 1 1065.775 29.199 A 25.245 25.245 0 0 1 1069.291 25.903 A 29.578 29.578 0 0 1 1070.658 24.902 A 88.557 88.557 0 0 1 1076.615 21.143 A 1047.703 1047.703 0 0 0 1082.816 17.529 Q 1085.892 15.723 1088.431 13.477 A 5.948 5.948 0 0 0 1088.828 13.641 Q 1089.472 13.879 1089.852 13.81 A 0.737 0.737 0 0 0 1089.994 13.77 Q 1090.394 13.609 1090.861 13.712 A 2.05 2.05 0 0 1 1091.068 13.77 A 4.995 4.995 0 0 0 1091.705 14.806 A 3.654 3.654 0 0 0 1092.972 15.82 Q 1094.193 16.406 1095.414 17.041 Q 1096.634 17.676 1097.709 18.555 A 5.369 5.369 0 0 1 1099.001 20.121 A 6.767 6.767 0 0 1 1099.369 20.898 A 1.157 1.157 0 0 0 1099.178 20.913 Q 1098.801 20.976 1098.83 21.321 A 0.649 0.649 0 0 0 1098.832 21.338 A 2.897 2.897 0 0 0 1099.013 22.066 A 3.349 3.349 0 0 0 1099.076 22.217 A 1.806 1.806 0 0 1 1099.213 22.678 Q 1099.232 22.799 1099.232 22.92 A 1.591 1.591 0 0 1 1099.222 23.096 Q 1099.183 23.45 1098.731 23.519 A 1.612 1.612 0 0 1 1098.49 23.535 A 0.72 0.72 0 0 0 1098.594 23.797 Q 1098.707 23.967 1098.924 24.034 A 0.979 0.979 0 0 0 1099.125 24.072 Q 1099.662 24.121 1099.662 24.609 A 1.586 1.586 0 0 1 1099.63 24.935 Q 1099.574 25.203 1099.418 25.391 Q 1099.203 25.648 1099.328 26.207 A 2.818 2.818 0 0 0 1099.369 26.367 Q 1097.416 27.637 1095.023 28.809 A 343.531 343.531 0 0 0 1091.324 30.649 A 390.565 390.565 0 0 0 1090.043 31.299 A 218.388 218.388 0 0 0 1086.051 33.386 A 248.527 248.527 0 0 0 1084.671 34.131 A 46.135 46.135 0 0 0 1079.252 37.598 A 81.57 81.57 0 0 0 1075.411 40.632 A 95 95 0 0 0 1073.88 41.943 Q 1071.146 44.336 1068.607 46.973 A 82.598 82.598 0 0 0 1063.822 52.393 A 45.18 45.18 0 0 0 1061.281 55.853 A 37.339 37.339 0 0 0 1060.013 57.91 A 3.316 3.316 0 0 0 1060.15 58.211 Q 1060.225 58.354 1060.305 58.467 A 1.396 1.396 0 0 0 1060.453 58.643 A 1.454 1.454 0 0 1 1060.629 58.86 Q 1060.708 58.977 1060.781 59.124 A 3.441 3.441 0 0 1 1060.892 59.375 Q 1063.583 59.543 1065.948 59.386 A 31.415 31.415 0 0 0 1066.703 59.326 A 17.486 17.486 0 0 1 1068.287 59.254 A 18.265 18.265 0 0 1 1072.123 59.668 A 0.9 0.9 0 0 0 1072.461 59.244 A 1.226 1.226 0 0 0 1072.513 59.082 A 0.859 0.859 0 0 1 1072.937 58.531 A 1.186 1.186 0 0 1 1073.002 58.496 Q 1078.568 57.91 1083.353 56.689 A 557.269 557.269 0 0 0 1093.119 54.102 A 211.225 211.225 0 0 1 1092.374 53.821 A 155.579 155.579 0 0 1 1091.703 53.564 A 29.697 29.697 0 0 0 1090.787 53.229 A 25.673 25.673 0 0 0 1090.482 53.125 Q 1090.044 52.687 1090.43 52.368 A 0.991 0.991 0 0 1 1090.531 52.295 A 5.958 5.958 0 0 0 1091.089 51.895 A 4.815 4.815 0 0 0 1091.459 51.563 A 7.107 7.107 0 0 1 1089.927 50.401 A 6.267 6.267 0 0 1 1089.261 49.609 Q 1088.571 48.635 1088.32 47.12 A 9.909 9.909 0 0 1 1088.236 46.484 A 1.785 1.785 0 0 0 1088.593 46.091 A 1.395 1.395 0 0 0 1088.822 45.313 A 1.272 1.272 0 0 0 1088.702 44.753 Q 1088.556 44.452 1088.236 44.238 A 2.289 2.289 0 0 0 1088.132 44.215 Q 1087.832 44.154 1087.748 44.238 A 0.446 0.446 0 0 0 1087.674 44.338 Q 1087.647 44.387 1087.626 44.448 A 0.991 0.991 0 0 0 1087.601 44.531 A 1.19 1.19 0 0 1 1087.531 44.736 A 0.974 0.974 0 0 1 1087.455 44.873 A 0.137 0.137 0 0 1 1087.364 44.931 Q 1087.26 44.953 1087.067 44.871 A 1.787 1.787 0 0 1 1086.966 44.824 Q 1087.064 43.945 1087.406 43.359 A 4.655 4.655 0 0 0 1087.744 42.638 A 6.05 6.05 0 0 0 1087.943 41.992 Z M 868.544 18.825 A 8.343 8.343 0 0 0 868.509 18.555 A 17.883 17.883 0 0 1 868.164 18.405 A 15.976 15.976 0 0 1 865.14 16.65 Q 863.627 15.527 862.65 13.867 Q 862.74 14.677 862.291 14.451 A 0.937 0.937 0 0 1 862.211 14.404 A 0.838 0.838 0 0 0 862.202 14.399 Q 861.752 14.12 861.405 14.703 A 2.271 2.271 0 0 0 861.283 14.941 A 1.629 1.629 0 0 1 860.625 14.794 Q 860.372 14.682 860.108 14.487 A 4.413 4.413 0 0 1 859.623 14.063 Q 857.315 14.502 855.286 14.818 A 89.474 89.474 0 0 1 852.298 15.234 A 263.403 263.403 0 0 0 850.702 15.433 A 235.447 235.447 0 0 0 846.097 16.064 A 85.332 85.332 0 0 0 840.043 17.188 A 53.923 53.923 0 0 0 839.161 17.391 Q 837.814 17.715 836.319 18.142 A 95.677 95.677 0 0 0 833.06 19.141 A 173.716 173.716 0 0 1 830.961 19.604 A 149.334 149.334 0 0 1 828.959 20.02 A 29.706 29.706 0 0 0 827.535 20.34 A 24.666 24.666 0 0 0 825.345 20.996 A 14.23 14.23 0 0 0 822.269 22.51 Q 820.853 23.438 819.877 24.902 Q 820.365 26.563 820.56 28.174 A 44.843 44.843 0 0 0 821.048 31.299 A 14.283 14.283 0 0 0 821.127 31.677 A 15.554 15.554 0 0 0 821.976 34.326 A 7.3 7.3 0 0 0 822.687 35.626 A 8.843 8.843 0 0 0 823.978 37.109 A 43.055 43.055 0 0 1 823.371 38.667 A 33.785 33.785 0 0 1 822.562 40.479 A 255.629 255.629 0 0 1 821.097 43.457 A 65.245 65.245 0 0 0 819.681 46.484 A 35.764 35.764 0 0 0 819.346 47.278 A 40.494 40.494 0 0 0 818.412 49.805 A 2.084 2.084 0 0 0 818.395 49.802 Q 817.959 49.744 817.767 49.908 A 0.423 0.423 0 0 0 817.63 50.146 A 0.639 0.639 0 0 1 817.299 50.596 A 0.924 0.924 0 0 1 817.045 50.684 A 3.371 3.371 0 0 1 817.053 50.725 Q 817.324 52.068 816.41 53.223 A 6.125 6.125 0 0 0 815.189 55.859 Q 814.896 57.227 815.043 58.887 A 41.558 41.558 0 0 0 815.482 62.256 A 235.43 235.43 0 0 0 815.628 63.101 A 206.925 206.925 0 0 0 816.068 65.527 A 36.249 36.249 0 0 1 816.086 65.626 Q 816.223 66.366 816.315 67.039 A 22.397 22.397 0 0 1 816.459 68.359 A 3.027 3.027 0 0 1 817.036 68.698 A 1.951 1.951 0 0 1 817.777 69.775 Q 818.021 70.703 818.802 71.387 A 9.134 9.134 0 0 0 821.001 73.002 A 11.417 11.417 0 0 0 823.587 73.975 A 26.778 26.778 0 0 0 824.324 74.148 A 29.262 29.262 0 0 0 829.74 74.805 Q 832.962 74.902 836.087 74.512 A 87.363 87.363 0 0 0 837.504 74.323 Q 839.739 74.007 841.459 73.633 A 4.237 4.237 0 0 1 842.126 73.683 A 3.072 3.072 0 0 1 842.826 73.877 A 1.685 1.685 0 0 0 843.151 73.974 Q 843.496 74.042 843.92 73.99 A 3.861 3.861 0 0 0 844.291 73.926 A 318.693 318.693 0 0 1 847.745 73.291 A 237.107 237.107 0 0 1 850.882 72.754 A 35.107 35.107 0 0 0 853.214 72.293 A 27.942 27.942 0 0 0 856.302 71.387 Q 858.744 70.508 860.648 68.799 Q 861.838 67.731 862.857 66.071 A 20.164 20.164 0 0 0 864.017 63.867 A 1.685 1.685 0 0 1 863.903 63.882 Q 863.407 63.93 863.187 63.623 A 1.882 1.882 0 0 1 862.977 63.238 A 2.448 2.448 0 0 1 862.845 62.793 A 13.662 13.662 0 0 0 862.779 62.483 A 16.166 16.166 0 0 0 862.601 61.768 A 2.054 2.054 0 0 0 862.064 60.84 A 2.807 2.807 0 0 1 862.028 60.844 Q 861.821 60.864 861.63 60.851 A 1.749 1.749 0 0 1 860.599 60.449 A 8.325 8.325 0 0 1 860.309 60.196 A 9.447 9.447 0 0 1 859.476 59.326 A 58.873 58.873 0 0 1 858.927 58.667 A 70.524 70.524 0 0 1 858.353 57.959 A 3.808 3.808 0 0 0 858.068 57.64 A 3.033 3.033 0 0 0 856.986 56.934 Q 854.74 57.715 852.054 58.057 A 15.407 15.407 0 0 0 849.845 58.496 A 11.399 11.399 0 0 0 847.416 59.473 A 58.857 58.857 0 0 0 846.545 59.452 Q 844.794 59.423 843.416 59.513 A 22.2 22.2 0 0 0 842.24 59.619 A 688.028 688.028 0 0 0 838.236 60.107 A 46.526 46.526 0 0 1 836.991 60.246 A 54.997 54.997 0 0 1 834.086 60.449 A 15.464 15.464 0 0 1 833.993 60.453 Q 832.513 60.51 830.533 60.307 A 45.557 45.557 0 0 1 828.568 60.059 A 42.655 42.655 0 0 1 828.576 60.038 A 38.544 38.544 0 0 1 830.814 55.078 Q 832.084 52.734 833.646 50.684 A 6.504 6.504 0 0 0 834.755 50.944 Q 835.344 51.031 835.999 51.031 A 10.303 10.303 0 0 0 836.332 51.025 A 8.424 8.424 0 0 1 836.603 51.021 Q 837.231 51.021 837.779 51.118 A 4.759 4.759 0 0 1 838.92 51.465 A 1.933 1.933 0 0 1 839.126 51.353 Q 839.756 51.059 840.725 51.13 A 6.207 6.207 0 0 1 841.117 51.172 Q 842.027 51.297 842.675 51.14 A 2.152 2.152 0 0 0 843.314 50.879 A 2.823 2.823 0 0 0 843.432 50.963 Q 843.628 51.095 843.782 51.143 A 0.558 0.558 0 0 0 843.949 51.172 L 844.681 51.172 A 17.074 17.074 0 0 0 845.392 51.187 Q 846.114 51.187 846.792 51.123 A 12.014 12.014 0 0 0 848.929 50.732 A 19.381 19.381 0 0 0 852.543 49.316 A 25.87 25.87 0 0 0 855.814 47.314 A 182.684 182.684 0 0 1 858.939 45.117 Q 859.223 44.407 859.223 43.723 A 3.263 3.263 0 0 0 859.183 43.213 Q 859.037 42.285 858.646 41.504 Q 858.356 41.533 858.088 41.515 A 2.539 2.539 0 0 1 856.937 41.162 A 6.601 6.601 0 0 1 856.395 40.798 A 7.933 7.933 0 0 1 855.521 40.039 A 57.116 57.116 0 0 1 854.154 38.623 A 10.719 10.719 0 0 0 853.556 38.029 A 8.218 8.218 0 0 0 852.787 37.402 Q 852.689 37.012 852.884 36.865 Q 853.055 36.737 853.002 36.347 A 1.938 1.938 0 0 0 852.982 36.23 Q 848.978 36.328 844.828 36.719 Q 842.123 36.973 839.729 36.938 A 35.068 35.068 0 0 1 837.259 36.816 A 1.995 1.995 0 0 1 837.171 36.611 Q 836.975 36.075 837.015 35.303 Q 837.064 34.375 836.673 33.496 A 36.179 36.179 0 0 1 838.431 32.959 A 3.875 3.875 0 0 0 838.725 32.865 A 3.171 3.171 0 0 0 839.896 32.129 A 11.746 11.746 0 0 0 840.435 32.171 Q 841.467 32.226 842.201 32.062 A 3.18 3.18 0 0 0 842.875 31.836 A 2.496 2.496 0 0 1 843.961 31.592 Q 844.25 31.592 844.555 31.654 A 3.858 3.858 0 0 1 845.17 31.836 A 21.954 21.954 0 0 1 847.188 30.749 A 17.871 17.871 0 0 1 851.664 29.297 A 926.369 926.369 0 0 1 858.06 28.174 A 26.386 26.386 0 0 0 858.835 28.029 A 23.332 23.332 0 0 0 863.871 26.416 Q 865.57 25.644 867.015 24.03 A 15.157 15.157 0 0 0 868.607 21.875 A 9.252 9.252 0 0 1 868.542 21.637 Q 868.412 21.129 868.412 20.85 A 4.416 4.416 0 0 1 868.419 20.6 A 3.573 3.573 0 0 1 868.461 20.215 A 24.755 24.755 0 0 0 868.509 19.91 A 31.019 31.019 0 0 0 868.558 19.58 Q 868.597 19.309 868.544 18.825 Z M 1010.99 55.762 A 1.743 1.743 0 0 0 1009.815 56.607 A 2.215 2.215 0 0 0 1009.72 56.787 A 26.967 26.967 0 0 0 1008.988 58.496 A 29.994 29.994 0 0 1 1008.646 59.338 A 23.802 23.802 0 0 1 1008.304 60.107 A 1.625 1.625 0 0 1 1008.085 60.461 A 1.002 1.002 0 0 1 1007.279 60.84 A 2.936 2.936 0 0 1 1007.004 61.781 A 2.693 2.693 0 0 1 1006.742 62.207 A 16.071 16.071 0 0 0 1005.912 63.428 Q 1005.521 64.063 1005.326 64.795 Q 1005.13 65.527 1005.521 66.504 A 2.468 2.468 0 0 0 1004.624 67.825 A 3.311 3.311 0 0 0 1004.545 68.164 A 33.24 33.24 0 0 1 1004.224 69.72 A 29.415 29.415 0 0 1 1004.105 70.215 A 4.336 4.336 0 0 1 1003.722 71.221 A 3.677 3.677 0 0 1 1003.275 71.875 A 1.493 1.493 0 0 1 1002.683 72.284 Q 1002.128 72.506 1001.247 72.467 A 6.563 6.563 0 0 1 1001.127 72.461 A 1.781 1.781 0 0 0 1001.058 72.558 Q 1000.859 72.864 1001.029 72.949 A 0.287 0.287 0 0 1 1001.131 73.043 Q 1001.24 73.195 1001.308 73.554 A 3.678 3.678 0 0 1 1001.322 73.633 A 4.802 4.802 0 0 0 1000.994 73.584 Q 1000.285 73.506 999.852 73.703 A 1.157 1.157 0 0 0 999.711 73.779 Q 999.173 74.121 998.392 74.219 A 6.443 6.443 0 0 1 995.316 72.168 Q 994.095 70.703 993.168 68.896 A 40.84 40.84 0 0 1 991.507 65.234 A 50.672 50.672 0 0 0 990.876 63.704 Q 990.576 63.012 990.285 62.406 A 28.478 28.478 0 0 0 990.091 62.012 A 4.873 4.873 0 0 0 990.264 60.898 Q 990.282 60.399 990.189 59.912 A 5.217 5.217 0 0 0 989.962 59.08 Q 989.78 58.588 989.505 58.203 A 1319.187 1319.187 0 0 1 994.51 47.705 A 1613.201 1613.201 0 0 1 999.955 36.523 Q 1005.619 25 1010.697 13.77 A 48.97 48.97 0 0 1 1015.14 15.771 A 22.957 22.957 0 0 1 1018.902 18.166 A 21.233 21.233 0 0 1 1019.144 18.359 Q 1020.951 19.824 1022.22 21.729 A 10.75 10.75 0 0 1 1023.88 25.977 A 2.121 2.121 0 0 1 1023.821 26.136 Q 1023.649 26.541 1023.441 26.416 A 0.381 0.381 0 0 0 1023.373 26.384 Q 1023.206 26.324 1023.062 26.483 A 0.698 0.698 0 0 0 1023.002 26.563 A 7.313 7.313 0 0 1 1023.156 26.762 Q 1023.403 27.094 1023.441 27.246 A 0.803 0.803 0 0 1 1023.465 27.441 A 0.803 0.803 0 0 1 1023.441 27.637 Q 1023.397 27.813 1023.393 28.109 A 4.494 4.494 0 0 0 1023.392 28.174 Q 1023.392 28.516 1023.685 29.102 Q 1023.469 29.048 1023.328 29.083 A 0.312 0.312 0 0 0 1023.148 29.199 A 0.235 0.235 0 0 1 1023.011 29.286 Q 1022.838 29.329 1022.513 29.199 Q 1022.871 30.182 1022.778 30.838 A 1.695 1.695 0 0 1 1022.757 30.957 A 4.903 4.903 0 0 1 1022.532 31.716 A 4.02 4.02 0 0 1 1022.318 32.178 Q 1022.025 32.715 1021.83 33.35 A 1.764 1.764 0 0 0 1021.761 33.706 Q 1021.718 34.172 1021.876 34.779 A 5.27 5.27 0 0 0 1021.927 34.961 A 0.934 0.934 0 0 0 1021.762 34.975 Q 1021.59 35.006 1021.488 35.107 A 2.165 2.165 0 0 0 1021.34 35.27 A 1.695 1.695 0 0 0 1021.244 35.4 A 1.743 1.743 0 0 1 1021.118 35.565 A 2.229 2.229 0 0 1 1021 35.693 Q 1020.864 35.829 1020.601 35.755 A 0.955 0.955 0 0 1 1020.56 35.742 A 23.825 23.825 0 0 1 1020.78 38.965 A 23.654 23.654 0 0 1 1020.755 40.039 Q 1020.658 42.188 1020.609 44.385 Q 1020.562 46.49 1020.65 48.776 A 82.4 82.4 0 0 0 1020.658 48.975 Q 1020.755 51.367 1021.341 53.906 A 16.738 16.738 0 0 0 1026.119 49.8 A 16.012 16.012 0 0 0 1026.957 48.633 A 29.896 29.896 0 0 0 1029.76 43.121 A 34.691 34.691 0 0 0 1030.375 41.406 A 50.043 50.043 0 0 0 1031.995 35.071 A 58.005 58.005 0 0 0 1032.377 32.813 Q 1033.06 28.223 1033.841 23.438 Q 1034.72 22.559 1035.209 21.289 Q 1035.697 20.02 1036.087 18.604 L 1036.869 15.771 A 15.12 15.12 0 0 1 1037.466 14.018 A 12.757 12.757 0 0 1 1037.845 13.184 Q 1039.31 13.379 1040.336 14.111 A 18.034 18.034 0 0 1 1042.24 15.674 Q 1043.119 16.504 1044.095 17.236 A 4.557 4.557 0 0 0 1045.427 17.917 A 6.219 6.219 0 0 0 1046.537 18.164 A 71.959 71.959 0 0 1 1048.153 20.55 A 62.074 62.074 0 0 1 1048.685 21.387 A 9.008 9.008 0 0 1 1049.955 24.707 A 5.912 5.912 0 0 0 1049.323 26.104 A 6.881 6.881 0 0 0 1049.222 26.465 A 43.582 43.582 0 0 1 1048.685 28.418 Q 1048.392 29.395 1047.904 30.225 A 4.231 4.231 0 0 1 1046.853 31.412 A 5.064 5.064 0 0 1 1046.537 31.641 A 58.829 58.829 0 0 1 1046.207 34.07 A 45.236 45.236 0 0 1 1045.804 36.279 A 889.582 889.582 0 0 1 1044.925 40.43 A 54.766 54.766 0 0 0 1044.211 44.541 A 59.5 59.5 0 0 0 1044.193 44.678 A 24.947 24.947 0 0 0 1044.004 46.834 Q 1043.973 47.51 1043.973 48.221 A 34.888 34.888 0 0 0 1043.998 49.512 A 3102.902 3102.902 0 0 0 1043.192 51.831 A 3725.937 3725.937 0 0 0 1042.337 54.297 A 59.491 59.491 0 0 0 1041.643 56.425 Q 1041.345 57.406 1041.115 58.3 A 35.222 35.222 0 0 0 1040.97 58.887 Q 1039.408 60.156 1038.529 61.914 Q 1037.65 63.672 1036.673 65.43 Q 1036.297 65.806 1036.193 65.638 A 0.165 0.165 0 0 1 1036.185 65.625 A 0.287 0.287 0 0 0 1036.092 65.523 Q 1035.939 65.414 1035.581 65.346 A 3.678 3.678 0 0 0 1035.502 65.332 Q 1035.594 65.701 1035.512 65.896 A 0.377 0.377 0 0 1 1035.502 65.918 A 1.305 1.305 0 0 1 1035.262 66.255 A 1.235 1.235 0 0 1 1035.257 66.26 A 0.585 0.585 0 0 0 1035.146 66.419 Q 1035.089 66.537 1035.062 66.699 A 0.733 0.733 0 0 0 1035.053 66.796 Q 1035.044 67.066 1035.205 67.472 A 3.582 3.582 0 0 0 1035.209 67.48 A 7.737 7.737 0 0 0 1032.767 69.141 A 18.664 18.664 0 0 1 1030.472 71.094 Q 1029.252 71.973 1027.543 72.266 A 4.781 4.781 0 0 1 1026.92 72.329 Q 1025.36 72.39 1023.099 71.582 A 37.586 37.586 0 0 1 1016.019 64.844 A 29.798 29.798 0 0 1 1012.465 59.214 A 37.101 37.101 0 0 1 1010.99 55.762 Z M 689.994 21.68 L 689.994 22.852 A 8.896 8.896 0 0 1 691.898 25.342 A 25.303 25.303 0 0 1 693.049 27.92 A 28.296 28.296 0 0 1 693.216 28.369 L 694.388 31.592 A 23.838 23.838 0 0 0 695.755 34.668 A 3.568 3.568 0 0 0 695.648 34.973 Q 695.603 35.125 695.581 35.26 A 1.482 1.482 0 0 0 695.56 35.498 A 1.828 1.828 0 0 0 695.604 35.886 A 2.484 2.484 0 0 0 695.707 36.23 A 7.193 7.193 0 0 1 695.951 37.012 A 1.531 1.531 0 0 1 695.986 37.211 Q 696.022 37.53 695.964 37.991 A 5.978 5.978 0 0 1 695.951 38.086 Q 695.658 42.383 693.168 45.02 A 20.161 20.161 0 0 1 688.025 48.923 A 23.257 23.257 0 0 1 687.162 49.365 A 47.567 47.567 0 0 1 680.389 52.022 A 52.77 52.77 0 0 1 679.642 52.246 Q 675.638 53.418 672.416 54.785 A 0.65 0.65 0 0 0 672.431 54.933 Q 672.478 55.134 672.67 55.168 A 0.489 0.489 0 0 0 672.757 55.176 A 0.335 0.335 0 0 1 672.874 55.194 Q 673.08 55.271 673.002 55.664 Q 675.345 57.129 676.712 58.008 Q 678.08 58.887 679.3 59.473 A 18.67 18.67 0 0 0 681.241 60.269 A 21.442 21.442 0 0 0 681.937 60.498 A 29.795 29.795 0 0 0 682.715 60.727 Q 683.988 61.084 685.892 61.523 A 781.904 781.904 0 0 1 687.092 61.801 Q 688.256 62.072 689.122 62.278 A 210.923 210.923 0 0 1 689.847 62.451 Q 691.263 62.793 692.435 63.037 Q 693.607 63.281 694.828 63.428 A 55.102 55.102 0 0 0 695.502 63.504 Q 696.264 63.586 697.298 63.681 A 214.452 214.452 0 0 0 698.295 63.77 Q 699.173 64.648 699.808 65.869 A 8.532 8.532 0 0 1 700.441 67.433 A 7.308 7.308 0 0 1 700.638 68.311 Q 700.768 69.124 700.768 69.895 A 8.764 8.764 0 0 1 700.736 70.654 Q 700.644 71.713 700.118 72.381 A 2.474 2.474 0 0 1 700.052 72.461 Q 700.145 72.738 700.456 72.709 A 0.734 0.734 0 0 0 700.492 72.705 Q 700.834 72.656 701.224 72.754 Q 700.638 73.145 700.248 73.73 L 699.466 74.902 A 5.506 5.506 0 0 1 698.767 75.758 A 5.014 5.014 0 0 1 698.587 75.928 Q 698.099 76.367 697.22 76.465 A 9.17 9.17 0 0 1 695.036 77.001 Q 692.719 77.29 689.737 76.641 A 24.305 24.305 0 0 1 689.603 76.611 Q 685.013 75.586 677.982 72.852 Q 674.466 71.484 672.269 70.459 A 40.535 40.535 0 0 1 670.338 69.498 Q 669.444 69.021 668.677 68.544 A 23.794 23.794 0 0 1 668.461 68.408 Q 666.849 67.383 665.531 66.211 Q 664.624 65.405 663.464 64.369 A 1875.13 1875.13 0 0 1 662.357 63.379 A 101.506 101.506 0 0 1 661.835 65.213 Q 661.253 67.183 660.752 68.524 A 23.156 23.156 0 0 1 660.453 69.287 A 15.551 15.551 0 0 1 659.415 71.326 Q 658.793 72.363 657.962 73.438 Q 657.003 73.29 656.49 73.533 A 1.009 1.009 0 0 0 656.205 73.73 A 7.026 7.026 0 0 1 655.13 74.609 Q 654.252 74.805 653.861 74.609 A 3.834 3.834 0 0 1 653.431 74.36 A 3.13 3.13 0 0 1 653.177 74.17 A 3.755 3.755 0 0 0 652.893 73.956 Q 652.742 73.853 652.566 73.75 A 6.732 6.732 0 0 0 652.445 73.682 A 1.57 1.57 0 0 0 652.1 73.545 Q 651.71 73.438 651.127 73.438 A 16.407 16.407 0 0 0 650.835 72.409 A 14.037 14.037 0 0 0 650.687 71.973 Q 650.451 71.31 649.435 71.473 A 3.191 3.191 0 0 0 649.369 71.484 Q 649.543 70.786 649.484 70.282 A 1.898 1.898 0 0 0 649.466 70.166 A 7.939 7.939 0 0 0 649.341 69.593 A 6.201 6.201 0 0 0 649.222 69.189 A 8.849 8.849 0 0 1 648.978 68.311 A 1.373 1.373 0 0 1 648.949 68.101 Q 648.929 67.791 649.024 67.385 A 4.263 4.263 0 0 1 649.076 67.188 A 0.664 0.664 0 0 1 648.594 66.977 Q 648.425 66.808 648.295 66.504 A 13.311 13.311 0 0 0 647.659 65.222 A 14.548 14.548 0 0 0 647.611 65.137 A 182.172 182.172 0 0 1 647.904 63.428 A 153.507 153.507 0 0 1 648.197 61.816 A 25.25 25.25 0 0 1 648.669 59.76 A 21.688 21.688 0 0 1 648.929 58.887 A 28.333 28.333 0 0 0 649.662 56.152 A 4.39 4.39 0 0 0 649.759 55.23 Q 649.759 54.561 649.559 53.87 A 5.941 5.941 0 0 0 649.369 53.32 A 0.826 0.826 0 0 0 649.454 53.377 Q 649.74 53.54 649.909 53.263 A 0.79 0.79 0 0 0 649.955 53.174 A 2.859 2.859 0 0 0 650.082 52.82 Q 650.185 52.471 650.248 52.002 Q 650.345 51.27 650.345 50.537 A 9.092 9.092 0 0 0 650.332 50.032 Q 650.319 49.803 650.294 49.605 A 4.133 4.133 0 0 0 650.248 49.316 A 40.465 40.465 0 0 0 651.859 44.092 Q 652.494 41.406 653.031 38.77 A 204.963 204.963 0 0 1 654.154 33.594 A 25.939 25.939 0 0 1 655.144 30.287 A 22.419 22.419 0 0 1 655.716 28.906 Q 656.454 28.772 657.306 28.937 A 6.372 6.372 0 0 1 658.109 29.15 A 5.423 5.423 0 0 1 658.703 29.385 Q 659.5 29.76 659.72 30.273 Q 662.259 28.32 664.212 25.537 Q 666.166 22.754 668.216 20.117 Q 670.267 17.48 672.757 15.43 A 10.505 10.505 0 0 1 676.594 13.453 A 14.187 14.187 0 0 1 679.056 12.988 A 60.836 60.836 0 0 0 681.53 14.745 A 75.9 75.9 0 0 0 683.402 15.967 A 12.74 12.74 0 0 1 687.357 19.922 A 8.599 8.599 0 0 1 687.994 20.273 Q 688.373 20.505 688.675 20.752 A 10.092 10.092 0 0 0 689.192 21.146 Q 689.464 21.34 689.779 21.543 A 18.282 18.282 0 0 0 689.994 21.68 Z M 148.685 64.941 L 148.49 65.332 A 14.36 14.36 0 0 1 147.562 67.4 A 18.055 18.055 0 0 1 146.781 68.701 Q 145.658 70.41 144.144 71.729 Q 142.63 73.047 140.775 73.926 A 10.167 10.167 0 0 1 136.869 74.902 Q 135.932 74.686 135.448 74.444 A 1.737 1.737 0 0 1 135.16 74.268 Q 134.72 73.926 134.232 73.633 Q 133.939 73.438 133.695 73.291 Q 133.485 73.165 133.311 73.075 A 4.649 4.649 0 0 0 133.255 73.047 L 132.084 72.559 L 132.474 71.289 A 2.864 2.864 0 0 0 132.528 71.026 Q 132.618 70.431 132.377 70.068 A 2.879 2.879 0 0 0 132.18 69.811 Q 131.956 69.546 131.586 69.196 A 16.797 16.797 0 0 0 131.205 68.848 L 130.619 68.262 A 4.329 4.329 0 0 1 130.324 67.937 A 3.389 3.389 0 0 1 130.13 67.676 L 128.47 65.82 L 131.107 65.137 A 12.548 12.548 0 0 0 132.29 64.746 Q 133.451 64.292 134.076 63.708 A 2.766 2.766 0 0 0 134.378 63.379 A 2.722 2.722 0 0 0 134.794 62.572 Q 135.105 61.645 135.039 60.179 A 13.206 13.206 0 0 0 135.013 59.766 A 12.584 12.584 0 0 0 134.076 59.613 Q 133.067 59.489 132.258 59.582 A 5.015 5.015 0 0 0 131.742 59.668 A 46.492 46.492 0 0 0 129.056 60.352 A 43.58 43.58 0 0 1 125.492 61.182 A 19.38 19.38 0 0 1 123.226 61.467 A 24.516 24.516 0 0 1 121.537 61.523 A 22.19 22.19 0 0 1 120.598 61.504 A 18.215 18.215 0 0 1 120.072 61.475 Q 119.388 61.426 118.607 61.328 L 117.63 61.133 A 11.231 11.231 0 0 0 117.557 60.763 Q 117.399 60.031 117.24 59.912 A 3.421 3.421 0 0 1 116.996 59.71 A 4.12 4.12 0 0 1 116.849 59.57 Q 116.361 59.082 115.824 58.252 A 2.168 2.168 0 0 1 115.493 57.3 Q 115.453 56.943 115.509 56.534 A 4.291 4.291 0 0 1 115.58 56.152 A 5.116 5.116 0 0 1 115.154 55.164 A 4.224 4.224 0 0 1 114.994 54.395 A 10.943 10.943 0 0 0 114.115 56.836 L 113.724 57.813 L 112.748 58.008 A 0.427 0.427 0 0 0 112.603 58.131 Q 112.512 58.247 112.455 58.447 A 3.832 3.832 0 0 0 112.407 58.628 Q 112.366 58.804 112.359 58.93 A 0.905 0.905 0 0 0 112.357 58.984 L 111.869 60.645 A 3.931 3.931 0 0 1 111.625 60.87 A 3.267 3.267 0 0 1 111.478 60.986 A 3.421 3.421 0 0 0 111.234 61.189 A 4.12 4.12 0 0 0 111.087 61.328 Q 110.892 62.207 110.599 63.086 A 50.046 50.046 0 0 1 110.196 64.248 A 42.728 42.728 0 0 1 110.013 64.746 A 28.314 28.314 0 0 0 109.282 66.892 A 25.495 25.495 0 0 0 109.183 67.236 Q 108.841 68.457 108.939 69.629 L 108.548 70.703 A 4.384 4.384 0 0 1 107.917 71.327 A 3.693 3.693 0 0 1 107.474 71.631 A 20.689 20.689 0 0 1 106.302 72.266 Q 106.138 72.43 105.87 72.56 A 2.504 2.504 0 0 1 105.765 72.607 A 18.384 18.384 0 0 0 105.603 72.678 Q 105.375 72.778 105.228 72.852 L 104.935 73.926 L 103.763 74.121 A 108.382 108.382 0 0 0 103.266 74.213 Q 102.652 74.327 102.323 74.398 A 11.258 11.258 0 0 0 102.25 74.414 Q 101.81 74.512 101.224 74.512 L 100.248 74.414 A 73.094 73.094 0 0 1 99.741 73.996 Q 99.194 73.54 98.809 73.197 A 19.574 19.574 0 0 1 98.587 72.998 A 8.576 8.576 0 0 0 97.801 72.362 A 10.72 10.72 0 0 0 97.22 71.973 A 12.414 12.414 0 0 1 96.851 71.456 Q 96.318 70.663 96.244 70.215 A 38.811 38.811 0 0 0 96.146 69.653 A 29.799 29.799 0 0 0 96.048 69.141 Q 95.92 68.756 95.855 68.456 A 3.344 3.344 0 0 1 95.804 68.164 A 1.472 1.472 0 0 0 95.757 67.931 Q 95.721 67.809 95.664 67.713 A 0.687 0.687 0 0 0 95.56 67.578 L 94.291 66.406 L 95.365 65.527 L 95.462 63.867 Q 97.416 58.887 99.613 54.297 A 1161.873 1161.873 0 0 1 104.154 44.922 A 137.187 137.187 0 0 0 105.668 41.797 A 137.187 137.187 0 0 1 107.181 38.672 Q 107.09 38.397 107.084 38.037 A 3.052 3.052 0 0 1 107.084 37.988 A 1.865 1.865 0 0 1 107.121 37.628 Q 107.155 37.453 107.222 37.261 A 3.541 3.541 0 0 1 107.279 37.109 A 47.511 47.511 0 0 0 108.03 35.912 Q 108.428 35.254 108.755 34.659 A 25.574 25.574 0 0 0 109.037 34.131 A 204.966 204.966 0 0 0 110.404 31.445 A 74.317 74.317 0 0 1 112.015 28.223 A 21.05 21.05 0 0 1 113.088 26.434 A 27.041 27.041 0 0 1 114.115 25 L 115.677 24.316 A 14.936 14.936 0 0 0 115.911 24.236 Q 116.014 24.2 116.126 24.159 A 26.877 26.877 0 0 0 116.361 24.072 A 2.277 2.277 0 0 1 116.887 23.946 A 2.919 2.919 0 0 1 117.24 23.926 L 118.705 24.121 A 14.618 14.618 0 0 0 123.49 20.557 A 41.404 41.404 0 0 0 125.499 18.116 Q 126.446 16.878 127.412 15.451 A 67.813 67.813 0 0 0 127.689 15.039 L 128.666 13.672 L 129.935 14.453 A 3.512 3.512 0 0 0 130.317 14.649 Q 130.726 14.83 131.302 14.99 A 86.792 86.792 0 0 1 132.206 15.247 A 102.558 102.558 0 0 1 133.158 15.527 A 42.382 42.382 0 0 1 135.659 16.161 A 36.724 36.724 0 0 1 136.478 16.406 A 7.077 7.077 0 0 1 137.814 16.971 A 5.413 5.413 0 0 1 139.017 17.871 Q 139.603 19.434 139.701 20.215 Q 139.798 20.996 139.994 21.777 A 117.356 117.356 0 0 1 140.531 25.098 A 32.743 32.743 0 0 1 140.738 26.855 A 44.306 44.306 0 0 1 140.873 28.809 Q 141.361 30.469 141.703 32.08 Q 142.045 33.691 142.337 35.352 A 354.264 354.264 0 0 0 143.192 39.341 A 322.688 322.688 0 0 0 143.314 39.893 Q 143.802 42.09 144.584 44.043 A 10.033 10.033 0 0 1 144.856 44.046 Q 145.401 44.061 145.56 44.141 A 5.312 5.312 0 0 1 146.586 43.848 A 27.217 27.217 0 0 1 147.121 43.756 Q 147.443 43.704 147.806 43.652 L 148.88 43.555 L 149.271 44.531 Q 149.353 44.943 149.992 45.355 A 4.53 4.53 0 0 0 150.248 45.508 A 6.598 6.598 0 0 1 150.908 45.59 Q 151.682 45.729 152.103 46.045 Q 152.689 46.484 153.177 46.973 Q 153.54 47.336 153.904 47.53 A 2.231 2.231 0 0 0 153.959 47.559 L 155.423 48.145 L 154.642 49.609 A 11.588 11.588 0 0 1 153.281 51.541 A 15.419 15.419 0 0 1 151.859 52.979 A 17.202 17.202 0 0 1 147.806 55.664 A 15.827 15.827 0 0 1 147.923 56.498 A 13.684 13.684 0 0 1 147.953 56.787 A 4.619 4.619 0 0 0 148.071 57.478 A 5.683 5.683 0 0 0 148.197 57.91 Q 148.49 59.57 148.685 61.328 A 16.127 16.127 0 0 1 148.783 63.11 A 17.483 17.483 0 0 1 148.685 64.941 Z M 422.416 64.941 L 422.22 65.332 A 14.36 14.36 0 0 1 421.292 67.4 A 18.055 18.055 0 0 1 420.511 68.701 Q 419.388 70.41 417.875 71.729 Q 416.361 73.047 414.505 73.926 A 10.167 10.167 0 0 1 410.599 74.902 Q 409.663 74.686 409.178 74.444 A 1.737 1.737 0 0 1 408.89 74.268 Q 408.451 73.926 407.962 73.633 Q 407.67 73.438 407.425 73.291 Q 407.216 73.165 407.042 73.075 A 4.649 4.649 0 0 0 406.986 73.047 L 405.814 72.559 L 406.205 71.289 A 2.864 2.864 0 0 0 406.258 71.026 Q 406.349 70.431 406.107 70.068 A 2.879 2.879 0 0 0 405.91 69.811 Q 405.686 69.546 405.316 69.196 A 16.797 16.797 0 0 0 404.935 68.848 L 404.349 68.262 A 4.329 4.329 0 0 1 404.054 67.937 A 3.389 3.389 0 0 1 403.861 67.676 L 402.201 65.82 L 404.837 65.137 A 12.548 12.548 0 0 0 406.021 64.746 Q 407.182 64.292 407.807 63.708 A 2.766 2.766 0 0 0 408.109 63.379 A 2.722 2.722 0 0 0 408.525 62.572 Q 408.836 61.645 408.769 60.179 A 13.206 13.206 0 0 0 408.744 59.766 A 12.584 12.584 0 0 0 407.807 59.613 Q 406.797 59.489 405.989 59.582 A 5.015 5.015 0 0 0 405.472 59.668 A 46.492 46.492 0 0 0 402.787 60.352 A 43.58 43.58 0 0 1 399.222 61.182 A 19.38 19.38 0 0 1 396.956 61.467 A 24.516 24.516 0 0 1 395.267 61.523 A 22.19 22.19 0 0 1 394.329 61.504 A 18.215 18.215 0 0 1 393.802 61.475 Q 393.119 61.426 392.337 61.328 L 391.361 61.133 A 11.231 11.231 0 0 0 391.288 60.763 Q 391.129 60.031 390.97 59.912 A 3.421 3.421 0 0 1 390.726 59.71 A 4.12 4.12 0 0 1 390.58 59.57 Q 390.091 59.082 389.554 58.252 A 2.168 2.168 0 0 1 389.223 57.3 Q 389.183 56.943 389.239 56.534 A 4.291 4.291 0 0 1 389.31 56.152 A 5.116 5.116 0 0 1 388.884 55.164 A 4.224 4.224 0 0 1 388.724 54.395 A 10.943 10.943 0 0 0 387.845 56.836 L 387.455 57.813 L 386.478 58.008 A 0.427 0.427 0 0 0 386.333 58.131 Q 386.242 58.247 386.185 58.447 A 3.832 3.832 0 0 0 386.138 58.628 Q 386.097 58.804 386.089 58.93 A 0.905 0.905 0 0 0 386.087 58.984 L 385.599 60.645 A 3.931 3.931 0 0 1 385.355 60.87 A 3.267 3.267 0 0 1 385.209 60.986 A 3.421 3.421 0 0 0 384.964 61.189 A 4.12 4.12 0 0 0 384.818 61.328 Q 384.623 62.207 384.33 63.086 A 50.046 50.046 0 0 1 383.927 64.248 A 42.728 42.728 0 0 1 383.744 64.746 A 28.314 28.314 0 0 0 383.013 66.892 A 25.495 25.495 0 0 0 382.914 67.236 Q 382.572 68.457 382.67 69.629 L 382.279 70.703 A 4.384 4.384 0 0 1 381.648 71.327 A 3.693 3.693 0 0 1 381.205 71.631 A 20.689 20.689 0 0 1 380.033 72.266 Q 379.868 72.43 379.6 72.56 A 2.504 2.504 0 0 1 379.496 72.607 A 18.384 18.384 0 0 0 379.334 72.678 Q 379.105 72.778 378.959 72.852 L 378.666 73.926 L 377.494 74.121 A 108.382 108.382 0 0 0 376.996 74.213 Q 376.382 74.327 376.054 74.398 A 11.258 11.258 0 0 0 375.98 74.414 Q 375.541 74.512 374.955 74.512 L 373.978 74.414 A 73.094 73.094 0 0 1 373.472 73.996 Q 372.925 73.54 372.539 73.197 A 19.574 19.574 0 0 1 372.318 72.998 A 8.576 8.576 0 0 0 371.531 72.362 A 10.72 10.72 0 0 0 370.951 71.973 A 12.414 12.414 0 0 1 370.582 71.456 Q 370.049 70.663 369.974 70.215 A 38.811 38.811 0 0 0 369.877 69.653 A 29.799 29.799 0 0 0 369.779 69.141 Q 369.651 68.756 369.586 68.456 A 3.344 3.344 0 0 1 369.535 68.164 A 1.472 1.472 0 0 0 369.488 67.931 Q 369.452 67.809 369.395 67.713 A 0.687 0.687 0 0 0 369.291 67.578 L 368.021 66.406 L 369.095 65.527 L 369.193 63.867 Q 371.146 58.887 373.343 54.297 A 1161.873 1161.873 0 0 1 377.884 44.922 A 137.187 137.187 0 0 0 379.398 41.797 A 137.187 137.187 0 0 1 380.912 38.672 Q 380.82 38.397 380.814 38.037 A 3.052 3.052 0 0 1 380.814 37.988 A 1.865 1.865 0 0 1 380.851 37.628 Q 380.886 37.453 380.952 37.261 A 3.541 3.541 0 0 1 381.009 37.109 A 47.511 47.511 0 0 0 381.76 35.912 Q 382.159 35.254 382.485 34.659 A 25.574 25.574 0 0 0 382.767 34.131 A 204.966 204.966 0 0 0 384.134 31.445 A 74.317 74.317 0 0 1 385.746 28.223 A 21.05 21.05 0 0 1 386.819 26.434 A 27.041 27.041 0 0 1 387.845 25 L 389.408 24.316 A 14.936 14.936 0 0 0 389.641 24.236 Q 389.744 24.2 389.857 24.159 A 26.877 26.877 0 0 0 390.091 24.072 A 2.277 2.277 0 0 1 390.618 23.946 A 2.919 2.919 0 0 1 390.97 23.926 L 392.435 24.121 A 14.618 14.618 0 0 0 397.22 20.557 A 41.404 41.404 0 0 0 399.23 18.116 Q 400.176 16.878 401.143 15.451 A 67.813 67.813 0 0 0 401.42 15.039 L 402.396 13.672 L 403.666 14.453 A 3.512 3.512 0 0 0 404.047 14.649 Q 404.456 14.83 405.033 14.99 A 86.792 86.792 0 0 1 405.936 15.247 A 102.558 102.558 0 0 1 406.888 15.527 A 42.382 42.382 0 0 1 409.39 16.161 A 36.724 36.724 0 0 1 410.209 16.406 A 7.077 7.077 0 0 1 411.545 16.971 A 5.413 5.413 0 0 1 412.748 17.871 Q 413.334 19.434 413.431 20.215 Q 413.529 20.996 413.724 21.777 A 117.356 117.356 0 0 1 414.261 25.098 A 32.743 32.743 0 0 1 414.469 26.855 A 44.306 44.306 0 0 1 414.603 28.809 Q 415.091 30.469 415.433 32.08 Q 415.775 33.691 416.068 35.352 A 354.264 354.264 0 0 0 416.922 39.341 A 322.688 322.688 0 0 0 417.045 39.893 Q 417.533 42.09 418.314 44.043 A 10.033 10.033 0 0 1 418.586 44.046 Q 419.132 44.061 419.291 44.141 A 5.312 5.312 0 0 1 420.316 43.848 A 27.217 27.217 0 0 1 420.852 43.756 Q 421.174 43.704 421.537 43.652 L 422.611 43.555 L 423.002 44.531 Q 423.084 44.943 423.723 45.355 A 4.53 4.53 0 0 0 423.978 45.508 A 6.598 6.598 0 0 1 424.638 45.59 Q 425.412 45.729 425.834 46.045 Q 426.42 46.484 426.908 46.973 Q 427.271 47.336 427.634 47.53 A 2.231 2.231 0 0 0 427.689 47.559 L 429.154 48.145 L 428.373 49.609 A 11.588 11.588 0 0 1 427.011 51.541 A 15.419 15.419 0 0 1 425.589 52.979 A 17.202 17.202 0 0 1 421.537 55.664 A 15.827 15.827 0 0 1 421.654 56.498 A 13.684 13.684 0 0 1 421.683 56.787 A 4.619 4.619 0 0 0 421.801 57.478 A 5.683 5.683 0 0 0 421.927 57.91 Q 422.22 59.57 422.416 61.328 A 16.127 16.127 0 0 1 422.513 63.11 A 17.483 17.483 0 0 1 422.416 64.941 Z M 587.115 45.852 A 0.71 0.71 0 0 0 587.064 45.996 A 5.006 5.006 0 0 1 587.775 46.367 A 3.435 3.435 0 0 1 589.408 48.877 A 10.549 10.549 0 0 1 589.425 49.002 Q 589.586 50.198 589.488 51.532 A 16.195 16.195 0 0 1 589.261 53.271 Q 588.822 55.664 588.187 58.105 A 19.061 19.061 0 0 0 588.06 58.623 Q 587.685 60.251 587.702 61.555 A 7.713 7.713 0 0 0 587.748 62.305 A 1.73 1.73 0 0 1 587.71 62.304 A 1.318 1.318 0 0 1 586.771 61.914 A 4.81 4.81 0 0 0 586.793 62.38 Q 586.901 63.493 587.552 64.063 A 4.333 4.333 0 0 0 587.219 64.325 Q 586.392 65.048 586.392 65.895 A 1.854 1.854 0 0 0 586.429 66.26 A 5.903 5.903 0 0 0 586.82 67.48 A 7.669 7.669 0 0 0 587.503 68.701 A 165.353 165.353 0 0 1 589.164 71.191 Q 589.994 72.461 589.701 73.633 A 6.148 6.148 0 0 1 589.795 73.642 Q 590.249 73.69 590.64 73.801 A 3.577 3.577 0 0 1 591.507 74.17 A 89.714 89.714 0 0 1 591.877 74.393 A 100.576 100.576 0 0 1 593.021 75.098 Q 593.864 74.85 594.82 74.602 A 80.302 80.302 0 0 1 596.781 74.121 A 16.747 16.747 0 0 1 597.487 73.973 Q 598.865 73.714 600.178 73.714 A 13.117 13.117 0 0 1 600.834 73.73 A 21.521 21.521 0 0 0 603.617 68.457 A 35.588 35.588 0 0 0 605.179 62.646 Q 605.716 59.668 605.814 56.689 A 95.496 95.496 0 0 0 605.825 56.318 Q 605.906 53.546 605.814 51.074 Q 611.478 49.805 617.484 48.73 A 100.883 100.883 0 0 0 629.105 45.947 A 64.91 64.91 0 0 0 629.804 45.73 A 58.754 58.754 0 0 0 639.603 41.65 A 26.12 26.12 0 0 0 647.904 34.766 A 25.421 25.421 0 0 0 648.272 33.789 A 22.093 22.093 0 0 0 649.564 26.953 A 29.682 29.682 0 0 0 649.573 26.211 A 27.69 27.69 0 0 0 648.734 19.385 Q 647.806 15.723 646.146 12.354 A 74.635 74.635 0 0 0 645.517 11.106 A 66.141 66.141 0 0 0 642.63 6.055 A 17.895 17.895 0 0 0 640.323 4.311 A 20.986 20.986 0 0 0 636.039 2.246 Q 632.181 0.879 627.298 0.293 Q 627.002 0.293 626.875 0.545 A 0.796 0.796 0 0 0 626.81 0.732 A 0.763 0.763 0 0 1 626.808 0.742 Q 626.707 1.17 626.224 0.977 A 14.632 14.632 0 0 0 624.69 0.647 Q 623.197 0.408 621.537 0.439 A 24.619 24.619 0 0 0 616.605 1.025 Q 614.212 1.563 612.113 2.539 A 21.252 21.252 0 0 0 611.702 2.736 Q 609.877 3.632 608.646 4.688 A 11.752 11.752 0 0 0 607.688 5.173 A 12.978 12.978 0 0 0 605.033 7.178 Q 603.373 8.789 601.908 10.938 A 30.391 30.391 0 0 0 599.32 15.576 A 59.856 59.856 0 0 0 597.318 20.605 A 8.085 8.085 0 0 1 597.308 21.016 A 6.889 6.889 0 0 1 596.732 23.486 A 4.36 4.36 0 0 1 596.496 23.942 Q 595.871 24.994 594.584 25.879 Q 594.161 26.301 593.958 26.103 A 0.35 0.35 0 0 1 593.9 26.025 Q 593.705 25.684 592.826 25.879 Q 591.752 27.539 590.628 29.15 A 28.686 28.686 0 0 0 590.559 29.251 A 26.202 26.202 0 0 0 588.675 32.422 A 14.51 14.51 0 0 0 587.455 35.938 A 9.945 9.945 0 0 0 587.402 36.204 Q 587.209 37.268 587.235 38.426 A 13.446 13.446 0 0 0 587.357 39.941 Q 586.883 39.874 586.667 40.088 A 0.566 0.566 0 0 0 586.527 40.332 A 11.619 11.619 0 0 1 586.185 41.309 A 3.804 3.804 0 0 1 586.824 42.306 A 4.639 4.639 0 0 1 587.162 43.506 A 4.565 4.565 0 0 0 587.371 44.366 A 3.273 3.273 0 0 0 588.138 45.605 Q 587.935 45.673 587.709 45.67 A 1.583 1.583 0 0 1 587.503 45.654 A 0.574 0.574 0 0 0 587.484 45.652 Q 587.229 45.624 587.115 45.852 Z M 803.569 73.758 A 16.666 16.666 0 0 0 804.252 73.73 A 220.492 220.492 0 0 1 807.572 71.24 Q 809.232 70.02 810.599 68.555 A 7.632 7.632 0 0 0 810.674 68.024 Q 810.748 67.321 810.665 66.724 A 3.632 3.632 0 0 0 810.404 65.771 A 8.31 8.31 0 0 0 809.134 63.721 A 17.382 17.382 0 0 0 807.425 61.963 A 10.51 10.51 0 0 1 805.814 60.156 A 272.173 272.173 0 0 1 791.214 59.57 A 68.182 68.182 0 0 1 788.515 59.336 A 59.953 59.953 0 0 1 777.494 57.129 A 27.409 27.409 0 0 1 776.42 54.932 A 8.422 8.422 0 0 1 776.004 53.723 A 11.197 11.197 0 0 1 775.736 52.344 A 24.655 24.655 0 0 1 776.761 50.83 A 1.989 1.989 0 0 0 776.964 50.482 Q 777.231 49.901 777.215 49.038 A 5.865 5.865 0 0 0 777.201 48.73 A 64.25 64.25 0 0 0 780.179 45.752 A 43.1 43.1 0 0 1 783.207 42.822 A 25.821 25.821 0 0 1 786.625 40.283 A 14.864 14.864 0 0 1 788.308 39.385 A 18.276 18.276 0 0 1 790.775 38.477 A 15.251 15.251 0 0 1 793.423 36.148 A 18.07 18.07 0 0 1 797.562 34.033 A 97.911 97.911 0 0 1 799.704 33.28 A 112.886 112.886 0 0 1 806.4 31.25 A 7.928 7.928 0 0 0 808.437 30.334 A 10.091 10.091 0 0 0 810.209 28.906 A 11.576 11.576 0 0 0 811.202 27.779 A 9.118 9.118 0 0 0 812.65 25.098 A 6.715 6.715 0 0 0 812.758 24.74 Q 813.265 22.88 812.552 21.143 A 3.755 3.755 0 0 0 811.594 19.792 Q 810.608 18.889 808.841 18.359 A 3.157 3.157 0 0 1 808.844 18.222 Q 808.865 17.744 809.037 17.529 A 0.295 0.295 0 0 0 809.102 17.339 Q 809.102 17.175 808.952 16.948 A 2.053 2.053 0 0 0 808.841 16.797 Q 808.09 16.734 807.599 16.531 A 1.851 1.851 0 0 1 807.132 16.26 A 1.561 1.561 0 0 0 806.717 16.014 Q 806.316 15.855 805.814 15.918 Q 805.887 15.771 806.015 15.46 A 24.242 24.242 0 0 0 806.107 15.234 Q 806.274 14.817 805.941 14.756 A 0.715 0.715 0 0 0 805.814 14.746 Q 805.636 15.19 805.419 15.19 A 0.224 0.224 0 0 1 805.375 15.186 A 0.558 0.558 0 0 1 805.346 15.179 Q 805.183 15.138 804.998 14.989 A 2.004 2.004 0 0 1 804.837 14.844 A 10.26 10.26 0 0 0 804.688 14.697 A 11.622 11.622 0 0 0 804.203 14.258 A 0.887 0.887 0 0 0 803.608 14.038 Q 803.572 14.038 803.536 14.04 A 1.255 1.255 0 0 0 803.373 14.063 Q 802.591 14.355 801.712 14.6 A 1.702 1.702 0 0 1 801.546 14.637 Q 800.987 14.734 800.6 14.376 A 1.522 1.522 0 0 1 800.345 14.063 Q 799.759 15.039 798.734 15.625 Q 797.709 16.211 796.586 16.748 Q 795.462 17.285 794.388 17.822 A 6.117 6.117 0 0 0 792.533 19.238 A 16.159 16.159 0 0 0 790.947 19.699 A 12.603 12.603 0 0 0 788.92 20.605 A 36.362 36.362 0 0 0 785.892 22.51 Q 784.427 23.535 782.914 24.463 A 10.68 10.68 0 0 1 781.321 25.259 A 13.86 13.86 0 0 1 779.349 25.879 Q 778.763 26.66 778.031 27.197 L 776.566 28.271 A 11.791 11.791 0 0 0 775.199 29.443 A 4.215 4.215 0 0 1 774.701 29.864 Q 774.416 30.072 774.059 30.274 A 10.307 10.307 0 0 1 773.295 30.664 A 246.285 246.285 0 0 0 767.777 36.963 A 20.708 20.708 0 0 0 765.917 39.543 A 24.19 24.19 0 0 0 763.627 44.531 A 44.428 44.428 0 0 0 763.602 46.011 Q 763.602 46.292 763.606 46.574 A 50.918 50.918 0 0 0 763.822 50.635 Q 764.115 53.809 764.994 56.836 Q 765.873 59.863 767.337 62.549 Q 768.802 65.234 771.146 67.09 Q 772.806 67.48 773.783 68.408 A 34.895 34.895 0 0 1 774.149 68.761 A 39.05 39.05 0 0 1 775.736 70.41 A 65.753 65.753 0 0 0 779.531 71.599 A 81.301 81.301 0 0 0 785.599 73.047 A 72.63 72.63 0 0 0 785.935 73.113 A 66.352 66.352 0 0 0 796.146 74.316 A 8.249 8.249 0 0 1 799.571 73.597 A 9.705 9.705 0 0 1 800.394 73.633 A 44.075 44.075 0 0 0 800.818 73.667 Q 802.372 73.784 803.569 73.758 Z M 319.323 73.974 A 11.482 11.482 0 0 0 321.244 74.609 A 237.531 237.531 0 0 1 334.671 68.896 A 148.086 148.086 0 0 0 347.904 62.988 Q 354.252 59.766 359.623 55.566 Q 364.994 51.367 368.509 45.215 L 368.509 43.848 A 4.244 4.244 0 0 1 368.531 43.411 A 3.17 3.17 0 0 1 368.607 42.969 L 368.802 42.188 A 7.114 7.114 0 0 1 368.812 42.148 Q 368.884 41.868 369.004 41.492 A 21.591 21.591 0 0 1 369.095 41.211 A 31.552 31.552 0 0 0 368.43 36.363 A 23.499 23.499 0 0 0 366.263 30.371 Q 363.822 25.781 360.16 22.217 A 57.423 57.423 0 0 0 352.054 15.674 Q 347.611 12.695 343.412 9.668 A 40.269 40.269 0 0 1 342.383 9.396 A 45.161 45.161 0 0 1 337.845 7.861 Q 335.013 6.738 332.084 5.518 Q 329.154 4.297 326.127 3.027 A 69.519 69.519 0 0 0 319.974 0.781 A 8.748 8.748 0 0 0 319.696 1.31 A 9.488 9.488 0 0 0 318.9 3.809 A 13.139 13.139 0 0 1 318.581 5.174 A 16.001 16.001 0 0 1 317.826 7.227 Q 318.412 9.473 319.046 11.182 Q 319.681 12.891 319.681 14.648 L 318.119 14.648 A 1.358 1.358 0 0 0 318.101 14.649 Q 317.397 14.658 317.509 15.4 A 1.857 1.857 0 0 0 317.533 15.527 Q 317.685 15.833 317.6 16.227 A 1.768 1.768 0 0 1 317.533 16.455 Q 317.337 16.992 317.24 18.066 A 58.094 58.094 0 0 1 318.157 21.936 A 70.712 70.712 0 0 1 319.193 28.906 A 49.91 49.91 0 0 1 319.444 33.875 A 46.404 46.404 0 0 1 318.998 40.332 A 1.541 1.541 0 0 0 318.994 40.334 Q 318.589 40.538 318.183 41.023 A 5.535 5.535 0 0 0 317.826 41.504 Q 317.533 44.629 316.654 47.559 A 147.196 147.196 0 0 1 316.202 49.036 A 165.398 165.398 0 0 1 314.701 53.613 Q 314.756 54.499 314.576 55.165 A 2.712 2.712 0 0 1 314.164 56.055 A 6.349 6.349 0 0 0 313.558 57.099 A 8.659 8.659 0 0 0 313.138 58.203 Q 313.431 61.035 313.675 63.672 A 24.525 24.525 0 0 0 313.927 65.588 A 19.98 19.98 0 0 0 314.652 68.506 Q 315.384 70.703 316.898 72.314 A 6.336 6.336 0 0 0 317.475 72.855 Q 318.264 73.51 319.323 73.974 Z M 728.47 21.094 L 728.47 20.02 Q 730.228 19.238 731.058 18.213 Q 731.888 17.188 733.06 15.723 Q 733.899 15.629 734.426 15.625 A 6.168 6.168 0 0 1 734.476 15.625 A 4.382 4.382 0 0 0 734.821 15.61 Q 735.315 15.57 736.087 15.43 A 19.049 19.049 0 0 1 736.561 14.642 Q 737.067 13.849 737.503 13.379 A 5.729 5.729 0 0 1 738.015 12.897 Q 738.295 12.662 738.643 12.416 A 14.558 14.558 0 0 1 739.408 11.914 A 8.061 8.061 0 0 0 741.473 12.608 A 9.379 9.379 0 0 0 741.996 12.695 Q 743.412 12.891 744.486 13.965 A 3.624 3.624 0 0 0 744.599 14.584 Q 744.751 15.126 745.072 15.479 Q 745.56 16.016 746.146 16.455 A 15.442 15.442 0 0 1 747.269 17.383 A 2.216 2.216 0 0 1 747.786 18.1 Q 747.92 18.388 747.999 18.739 A 3.819 3.819 0 0 1 748.002 18.75 Q 748.217 18.804 748.358 18.769 A 0.312 0.312 0 0 0 748.539 18.652 Q 748.685 18.457 749.076 18.555 A 10.61 10.61 0 0 0 749.223 19.163 Q 749.463 20.028 749.759 20.361 Q 750.056 20.695 750.352 21.507 A 11.548 11.548 0 0 1 750.541 22.07 A 9.264 9.264 0 0 0 749.808 24.072 A 2.172 2.172 0 0 1 748.75 25.498 A 2.814 2.814 0 0 1 748.587 25.586 Q 748.496 26.223 748.915 26.309 A 0.628 0.628 0 0 0 748.978 26.318 Q 749.395 26.36 749.527 26.722 A 0.908 0.908 0 0 1 749.564 26.855 Q 749.662 27.734 749.271 28.125 A 64.955 64.955 0 0 1 753.47 36.182 A 64.955 64.955 0 0 0 757.67 44.238 A 6.98 6.98 0 0 0 757.645 44.818 A 6.304 6.304 0 0 0 757.865 46.484 A 16.033 16.033 0 0 0 758.597 48.584 A 40.232 40.232 0 0 1 759.427 50.684 A 13.181 13.181 0 0 1 760.013 52.832 A 9.934 9.934 0 0 1 760.109 54.052 Q 760.125 54.892 760.013 55.811 A 16.7 16.7 0 0 1 759.33 58.936 Q 758.841 60.449 758.06 61.67 A 6.011 6.011 0 0 1 757.263 62.675 A 4.598 4.598 0 0 1 756.205 63.477 A 9.604 9.604 0 0 1 752.884 66.211 A 19.099 19.099 0 0 0 749.271 68.555 A 7.376 7.376 0 0 1 747.002 69.503 A 8.333 8.333 0 0 1 746.878 69.531 A 362.921 362.921 0 0 1 744.193 70.117 Q 743.27 70.621 742.058 71.16 A 43.859 43.859 0 0 1 741.654 71.338 Q 740.189 71.973 738.627 72.51 Q 737.064 73.047 735.502 73.291 A 15.577 15.577 0 0 1 734.467 73.419 Q 733.61 73.495 732.894 73.447 A 7.597 7.597 0 0 1 732.767 73.438 A 27.108 27.108 0 0 1 728.897 74.55 A 23.17 23.17 0 0 1 727.054 74.854 Q 724.332 75.188 720.721 74.447 A 31.369 31.369 0 0 1 720.56 74.414 A 19.457 19.457 0 0 1 718.415 74.595 Q 716.114 74.658 714.066 74.121 A 15.599 15.599 0 0 1 709.983 72.427 A 14.262 14.262 0 0 1 708.793 71.631 A 18.429 18.429 0 0 1 704.789 67.529 A 24.607 24.607 0 0 1 702.005 62.5 A 31.888 31.888 0 0 1 701.712 59.252 Q 701.609 56.459 702.056 53.954 A 21.101 21.101 0 0 1 702.396 52.393 A 34.169 34.169 0 0 1 705.629 44.236 A 32.096 32.096 0 0 1 705.765 43.994 A 44.541 44.541 0 0 1 710.795 36.865 A 666.503 666.503 0 0 0 716.098 30.664 A 612.203 612.203 0 0 0 716.263 30.469 A 1.909 1.909 0 0 0 716.466 30.525 Q 716.76 30.588 716.982 30.522 A 0.701 0.701 0 0 0 717.191 30.42 Q 717.512 30.191 717.79 29.789 A 3.658 3.658 0 0 0 717.826 29.736 Q 718.119 29.297 718.461 28.906 A 1.46 1.46 0 0 1 719.291 28.418 A 4.984 4.984 0 0 1 720.293 26.969 A 4.551 4.551 0 0 1 721.293 26.221 A 5.423 5.423 0 0 0 723.392 24.121 A 5.364 5.364 0 0 0 724.093 23.917 Q 724.456 23.783 724.75 23.603 A 3.133 3.133 0 0 0 724.857 23.535 Q 725.443 23.145 725.98 22.656 A 15.442 15.442 0 0 1 727.103 21.729 A 3.666 3.666 0 0 1 728.173 21.179 A 4.36 4.36 0 0 1 728.47 21.094 Z M 305.668 45.117 A 1.973 1.973 0 0 0 305.477 44.988 Q 304.831 44.602 303.568 44.434 A 6.165 6.165 0 0 0 303.245 43.673 A 4.494 4.494 0 0 0 301.273 41.65 A 11.38 11.38 0 0 0 300.326 41.217 A 12.894 12.894 0 0 0 297.709 40.479 A 24.947 24.947 0 0 0 296.907 40.352 A 28.072 28.072 0 0 0 293.607 40.088 Q 291.459 40.039 289.798 39.746 A 63.838 63.838 0 0 1 289.835 39.624 A 69.751 69.751 0 0 1 290.433 37.744 A 75.05 75.05 0 0 1 290.455 37.68 A 82.561 82.561 0 0 1 291.166 35.645 Q 290.606 35.396 290.363 34.91 A 1.805 1.805 0 0 1 290.189 34.277 Q 290.124 33.626 290.189 32.845 A 11.808 11.808 0 0 1 290.287 32.031 Q 290.482 30.762 290.775 29.492 A 14.88 14.88 0 0 0 290.913 28.827 Q 290.988 28.418 291.027 28.058 A 6.732 6.732 0 0 0 291.068 27.344 Q 290.314 26.938 289.784 26.498 A 4.501 4.501 0 0 1 289.164 25.879 Q 288.529 25.098 288.138 24.219 A 48.289 48.289 0 0 1 287.943 23.773 A 55.279 55.279 0 0 1 287.357 22.363 Q 286.966 21.387 286.087 20.313 Q 285.206 20.313 284.475 20.464 A 5.113 5.113 0 0 0 283.304 20.85 A 10.85 10.85 0 0 0 281.253 22.119 Q 280.326 22.852 279.496 23.73 Q 278.666 24.609 277.689 25.293 Q 277.884 27.148 277.054 28.809 Q 276.432 30.054 276.001 30.804 A 13.728 13.728 0 0 1 275.736 31.25 Q 275.269 32.184 275.298 32.839 A 1.478 1.478 0 0 0 275.345 33.154 Q 275.541 33.887 275.15 35.156 A 0.751 0.751 0 0 1 274.802 35.67 A 1.076 1.076 0 0 1 274.515 35.791 A 1.366 1.366 0 0 0 274.386 35.833 A 1.013 1.013 0 0 0 273.783 36.426 A 1.73 1.73 0 0 0 273.718 36.903 Q 273.718 37.402 273.978 37.988 A 2.479 2.479 0 0 1 274.131 38.452 Q 274.248 38.975 274.17 39.611 A 5.151 5.151 0 0 1 274.076 40.137 A 72.78 72.78 0 0 0 273.236 40.141 A 61.56 61.56 0 0 0 271.488 40.186 A 57.714 57.714 0 0 1 270.711 40.211 A 68.406 68.406 0 0 1 268.9 40.234 A 8.085 8.085 0 0 1 267.63 40.735 A 10.762 10.762 0 0 1 266.166 41.064 A 30.085 30.085 0 0 1 265.17 41.203 A 35.347 35.347 0 0 1 262.845 41.406 Q 261.087 41.504 259.281 41.65 Q 257.474 41.797 255.912 42.188 A 0.854 0.854 0 0 1 256.07 42.505 Q 256.164 42.859 256.019 43.379 A 3.74 3.74 0 0 1 255.912 43.701 A 3.095 3.095 0 0 1 255.818 43.921 Q 255.433 44.738 254.74 44.824 Q 255.293 45.316 255.594 46.077 A 4.865 4.865 0 0 1 255.863 47.07 Q 256.037 48.113 255.889 48.809 A 2.11 2.11 0 0 1 255.716 49.316 Q 256.4 50.488 256.888 51.563 A 9.611 9.611 0 0 0 257.111 52.021 A 8.265 8.265 0 0 0 258.06 53.467 A 5.327 5.327 0 0 0 258.733 54.146 A 6.461 6.461 0 0 0 259.818 54.883 Q 260.54 55.276 261.614 55.45 A 10.655 10.655 0 0 0 262.748 55.566 Q 263.529 55.273 265.433 54.883 A 55.65 55.65 0 0 1 265.848 54.799 Q 267.159 54.541 268.976 54.242 A 187.45 187.45 0 0 1 270.462 54.004 Q 270.17 55.957 269.828 57.959 Q 269.486 59.961 269.291 61.963 A 102.514 102.514 0 0 0 269.158 63.43 A 84.056 84.056 0 0 0 268.998 65.723 Q 268.933 66.895 268.998 67.849 A 10.735 10.735 0 0 0 269.095 68.75 A 29.486 29.486 0 0 0 272.806 70.85 A 10.538 10.538 0 0 0 273.902 71.298 A 8.456 8.456 0 0 0 276.664 71.777 A 5.873 5.873 0 0 0 278.56 71.463 A 7.081 7.081 0 0 0 280.326 70.557 A 6.536 6.536 0 0 0 281.506 69.484 Q 282.561 68.279 283.451 66.309 A 95.985 95.985 0 0 0 284.344 63.683 Q 284.747 62.435 285.065 61.316 A 44.652 44.652 0 0 0 285.697 58.838 A 159.257 159.257 0 0 0 286.182 56.579 A 131.953 131.953 0 0 0 286.869 53.027 Q 289.701 52.93 292.582 52.783 Q 295.462 52.637 298.099 52.295 A 37.175 37.175 0 0 0 300.169 51.969 A 29.643 29.643 0 0 0 302.933 51.318 A 18.91 18.91 0 0 0 303.364 51.189 Q 304.281 50.9 305.061 50.547 A 10.694 10.694 0 0 0 306.595 49.707 A 31.683 31.683 0 0 1 306.644 47.949 Q 306.693 47.07 306.498 46.338 A 2.201 2.201 0 0 0 306.266 45.783 A 2.342 2.342 0 0 0 305.668 45.117 Z M 576.664 45.117 A 1.973 1.973 0 0 0 576.473 44.988 Q 575.827 44.602 574.564 44.434 A 6.165 6.165 0 0 0 574.241 43.673 A 4.494 4.494 0 0 0 572.269 41.65 A 11.38 11.38 0 0 0 571.322 41.217 A 12.894 12.894 0 0 0 568.705 40.479 A 24.947 24.947 0 0 0 567.903 40.352 A 28.072 28.072 0 0 0 564.603 40.088 Q 562.455 40.039 560.795 39.746 A 63.838 63.838 0 0 1 560.831 39.624 A 69.751 69.751 0 0 1 561.429 37.744 A 75.05 75.05 0 0 1 561.451 37.68 A 82.561 82.561 0 0 1 562.162 35.645 Q 561.602 35.396 561.359 34.91 A 1.805 1.805 0 0 1 561.185 34.277 Q 561.12 33.626 561.185 32.845 A 11.808 11.808 0 0 1 561.283 32.031 Q 561.478 30.762 561.771 29.492 A 14.88 14.88 0 0 0 561.909 28.827 Q 561.984 28.418 562.023 28.058 A 6.732 6.732 0 0 0 562.064 27.344 Q 561.31 26.938 560.78 26.498 A 4.501 4.501 0 0 1 560.16 25.879 Q 559.525 25.098 559.134 24.219 A 48.289 48.289 0 0 1 558.939 23.773 A 55.279 55.279 0 0 1 558.353 22.363 Q 557.962 21.387 557.084 20.313 Q 556.202 20.313 555.471 20.464 A 5.113 5.113 0 0 0 554.3 20.85 A 10.85 10.85 0 0 0 552.25 22.119 Q 551.322 22.852 550.492 23.73 Q 549.662 24.609 548.685 25.293 Q 548.88 27.148 548.05 28.809 Q 547.428 30.054 546.998 30.804 A 13.728 13.728 0 0 1 546.732 31.25 Q 546.265 32.184 546.294 32.839 A 1.478 1.478 0 0 0 546.341 33.154 Q 546.537 33.887 546.146 35.156 A 0.751 0.751 0 0 1 545.798 35.67 A 1.076 1.076 0 0 1 545.511 35.791 A 1.366 1.366 0 0 0 545.382 35.833 A 1.013 1.013 0 0 0 544.779 36.426 A 1.73 1.73 0 0 0 544.714 36.903 Q 544.714 37.402 544.974 37.988 A 2.479 2.479 0 0 1 545.127 38.452 Q 545.244 38.975 545.166 39.611 A 5.151 5.151 0 0 1 545.072 40.137 A 72.78 72.78 0 0 0 544.232 40.141 A 61.56 61.56 0 0 0 542.484 40.186 A 57.714 57.714 0 0 1 541.707 40.211 A 68.406 68.406 0 0 1 539.896 40.234 A 8.085 8.085 0 0 1 538.626 40.735 A 10.762 10.762 0 0 1 537.162 41.064 A 30.085 30.085 0 0 1 536.166 41.203 A 35.347 35.347 0 0 1 533.841 41.406 Q 532.084 41.504 530.277 41.65 Q 528.47 41.797 526.908 42.188 A 0.854 0.854 0 0 1 527.066 42.505 Q 527.161 42.859 527.015 43.379 A 3.74 3.74 0 0 1 526.908 43.701 A 3.095 3.095 0 0 1 526.814 43.921 Q 526.429 44.738 525.736 44.824 Q 526.289 45.316 526.59 46.077 A 4.865 4.865 0 0 1 526.859 47.07 Q 527.033 48.113 526.885 48.809 A 2.11 2.11 0 0 1 526.712 49.316 Q 527.396 50.488 527.884 51.563 A 9.611 9.611 0 0 0 528.107 52.021 A 8.265 8.265 0 0 0 529.056 53.467 A 5.327 5.327 0 0 0 529.729 54.146 A 6.461 6.461 0 0 0 530.814 54.883 Q 531.536 55.276 532.61 55.45 A 10.655 10.655 0 0 0 533.744 55.566 Q 534.525 55.273 536.429 54.883 A 55.65 55.65 0 0 1 536.845 54.799 Q 538.155 54.541 539.972 54.242 A 187.45 187.45 0 0 1 541.459 54.004 Q 541.166 55.957 540.824 57.959 Q 540.482 59.961 540.287 61.963 A 102.514 102.514 0 0 0 540.154 63.43 A 84.056 84.056 0 0 0 539.994 65.723 Q 539.929 66.895 539.994 67.849 A 10.735 10.735 0 0 0 540.091 68.75 A 29.486 29.486 0 0 0 543.802 70.85 A 10.538 10.538 0 0 0 544.898 71.298 A 8.456 8.456 0 0 0 547.66 71.777 A 5.873 5.873 0 0 0 549.556 71.463 A 7.081 7.081 0 0 0 551.322 70.557 A 6.536 6.536 0 0 0 552.502 69.484 Q 553.557 68.279 554.447 66.309 A 95.985 95.985 0 0 0 555.34 63.683 Q 555.744 62.435 556.061 61.316 A 44.652 44.652 0 0 0 556.693 58.838 A 159.257 159.257 0 0 0 557.178 56.579 A 131.953 131.953 0 0 0 557.865 53.027 Q 560.697 52.93 563.578 52.783 Q 566.459 52.637 569.095 52.295 A 37.175 37.175 0 0 0 571.165 51.969 A 29.643 29.643 0 0 0 573.929 51.318 A 18.91 18.91 0 0 0 574.36 51.189 Q 575.277 50.9 576.057 50.547 A 10.694 10.694 0 0 0 577.591 49.707 A 31.683 31.683 0 0 1 577.64 47.949 Q 577.689 47.07 577.494 46.338 A 2.201 2.201 0 0 0 577.263 45.783 A 2.342 2.342 0 0 0 576.664 45.117 Z M 979.3 71.289 A 4.086 4.086 0 0 0 979.419 71.03 Q 980.093 69.406 979.642 66.699 A 41.058 41.058 0 0 1 978.954 59.269 A 39.266 39.266 0 0 1 979.007 57.227 A 60.473 60.473 0 0 1 980.228 47.9 A 86.051 86.051 0 0 1 982.718 38.672 Q 984.232 34.082 985.99 29.395 A 1.745 1.745 0 0 1 985.161 28.748 A 2.48 2.48 0 0 1 984.867 28.174 A 7.044 7.044 0 0 1 984.629 27.388 A 8.565 8.565 0 0 1 984.427 26.123 A 26.485 26.485 0 0 1 984.33 23.828 L 984.33 21.875 A 4.374 4.374 0 0 1 983.771 21.544 A 3.27 3.27 0 0 1 982.67 20.264 A 9.684 9.684 0 0 1 981.937 18.066 L 981.449 15.723 A 5.052 5.052 0 0 0 980.423 13.574 A 8.427 8.427 0 0 0 980.153 13.579 Q 979.574 13.597 979.068 13.696 A 4.761 4.761 0 0 0 977.933 14.063 A 11.605 11.605 0 0 0 977.556 14.251 A 10.165 10.165 0 0 0 976.078 15.186 A 14.983 14.983 0 0 0 976.026 15.225 A 16.228 16.228 0 0 0 974.466 16.602 A 10.891 10.891 0 0 1 972.806 17.969 Q 973.002 19.629 972.269 21.143 A 48.305 48.305 0 0 1 971.939 21.812 Q 971.422 22.839 971.048 23.438 Q 970.666 24.203 970.673 24.788 A 1.566 1.566 0 0 0 970.707 25.098 A 2.07 2.07 0 0 1 970.736 25.275 Q 970.816 25.916 970.56 26.855 Q 970.462 27.344 969.974 27.49 A 1.486 1.486 0 0 0 969.965 27.493 Q 969.826 27.536 969.718 27.599 A 0.674 0.674 0 0 0 969.388 28.027 A 1.848 1.848 0 0 0 969.317 28.537 Q 969.317 28.773 969.375 29.02 A 2.744 2.744 0 0 0 969.535 29.492 A 2.553 2.553 0 0 1 969.752 30.526 Q 969.752 30.833 969.681 31.152 A 53.773 53.773 0 0 1 967.582 38.867 Q 966.263 42.578 965.58 46.68 A 27.407 27.407 0 0 0 965.491 47.421 A 31.216 31.216 0 0 0 965.336 49.756 A 3356.923 3356.923 0 0 1 965.238 52.93 A 47.253 47.253 0 0 1 965.043 56.006 A 10.879 10.879 0 0 1 964.849 57.265 A 8.253 8.253 0 0 1 964.408 58.691 A 201.289 201.289 0 0 0 964.521 59.168 Q 964.694 59.897 964.894 60.714 A 354.476 354.476 0 0 0 965.336 62.5 A 79.711 79.711 0 0 0 966.556 66.846 Q 967.24 69.043 968.021 71.094 A 21.408 21.408 0 0 0 968.245 71.657 Q 968.586 72.482 968.962 73.185 A 12.094 12.094 0 0 0 969.779 74.512 Q 971.097 74.731 972.525 74.731 A 19.311 19.311 0 0 0 973.49 74.707 A 9.345 9.345 0 0 0 974.554 74.594 A 7.516 7.516 0 0 0 976.957 73.779 A 5.401 5.401 0 0 0 978.093 72.95 A 5.938 5.938 0 0 0 979.3 71.289 Z M 329.947 19.374 A 1.152 1.152 0 0 0 329.545 19.629 A 82.777 82.777 0 0 1 330.755 24.803 A 66.95 66.95 0 0 1 331.302 27.93 A 57.448 57.448 0 0 1 331.937 35.742 A 56.953 56.953 0 0 1 331.942 36.454 A 61.701 61.701 0 0 1 331.498 43.75 Q 331.009 47.852 330.13 52.637 A 8.827 8.827 0 0 0 331.318 52.468 A 6.602 6.602 0 0 0 332.377 52.148 A 33.272 33.272 0 0 0 333.869 51.508 A 37.323 37.323 0 0 0 334.378 51.27 Q 335.404 50.781 336.527 50.391 Q 337.65 50 339.115 49.902 A 3.503 3.503 0 0 1 339.599 49.169 A 2.903 2.903 0 0 1 340.14 48.682 A 8.574 8.574 0 0 0 340.927 48.069 A 7.263 7.263 0 0 0 341.263 47.754 Q 343.705 46.777 346.146 45.703 A 30.173 30.173 0 0 0 349.822 43.785 A 26.916 26.916 0 0 0 350.638 43.262 A 21.449 21.449 0 0 0 354.349 40.137 A 14.148 14.148 0 0 0 356.586 36.973 A 16.737 16.737 0 0 0 357.084 35.938 A 9.563 9.563 0 0 0 355.816 34.095 A 8.484 8.484 0 0 0 355.179 33.447 Q 354.056 32.422 352.836 31.396 A 36.65 36.65 0 0 1 350.492 29.248 Q 349.369 28.125 348.685 26.66 A 8.793 8.793 0 0 1 347.22 26.355 A 6.812 6.812 0 0 1 345.951 25.83 A 70.114 70.114 0 0 1 343.975 24.719 A 63.466 63.466 0 0 1 343.705 24.561 A 29.28 29.28 0 0 0 342.011 23.636 A 33.107 33.107 0 0 0 341.41 23.34 A 6.659 6.659 0 0 0 339.943 22.845 A 9.152 9.152 0 0 0 338.529 22.656 A 27.885 27.885 0 0 0 336.546 21.682 Q 335.591 21.262 334.717 20.98 A 14.472 14.472 0 0 0 333.939 20.752 A 10.891 10.891 0 0 1 332.646 20.331 Q 332.012 20.077 331.512 19.763 A 4.93 4.93 0 0 1 330.814 19.238 Q 330.296 19.238 329.947 19.374 Z M 745.462 53.516 Q 745.853 52.441 746.488 51.758 Q 747.123 51.074 747.22 49.707 A 9.169 9.169 0 0 1 747.001 49.338 Q 746.79 48.962 746.693 48.686 A 1.754 1.754 0 0 1 746.634 48.486 Q 746.561 48.155 746.543 47.518 A 15.812 15.812 0 0 1 746.537 47.07 A 38.578 38.578 0 0 1 742.826 40.576 Q 741.263 37.109 739.31 34.082 A 1.776 1.776 0 0 1 739.103 34.399 Q 738.986 34.544 738.829 34.689 A 3.778 3.778 0 0 1 738.627 34.863 A 0.774 0.774 0 0 1 738.454 34.969 Q 738.039 35.151 737.559 34.674 A 2.202 2.202 0 0 1 737.552 34.668 Q 737.408 35.244 737.105 35.581 A 1.388 1.388 0 0 1 736.869 35.791 A 1.587 1.587 0 0 1 735.939 36.09 A 1.745 1.745 0 0 1 735.795 36.084 A 4.081 4.081 0 0 1 735.043 35.947 A 5.113 5.113 0 0 1 734.574 35.791 A 4.336 4.336 0 0 1 733.72 35.353 A 3.867 3.867 0 0 1 733.451 35.156 Q 730.619 37.402 727.787 39.551 A 28.271 28.271 0 0 0 722.709 44.531 A 3.582 3.582 0 0 1 722.598 44.584 Q 722.303 44.719 722.22 44.678 A 0.087 0.087 0 0 0 722.196 44.67 Q 722.093 44.653 721.772 44.771 A 5.54 5.54 0 0 0 721.634 44.824 Q 720.853 46.68 719.73 48.193 Q 718.607 49.707 717.533 51.27 Q 716.459 52.832 715.677 54.59 A 9.815 9.815 0 0 0 715.018 56.736 A 13.346 13.346 0 0 0 714.798 58.691 A 7.54 7.54 0 0 0 718.67 60.347 A 8.971 8.971 0 0 0 718.705 60.352 A 21.227 21.227 0 0 0 721.453 60.527 A 23.231 23.231 0 0 0 723.343 60.449 A 43.897 43.897 0 0 0 728.031 59.814 A 25.757 25.757 0 0 1 730.373 59.472 A 19.665 19.665 0 0 1 732.279 59.375 A 34.247 34.247 0 0 0 735.643 58.399 Q 737.408 57.782 738.889 57.012 A 20.411 20.411 0 0 0 739.31 56.787 Q 742.24 55.176 745.462 53.516 Z M 612.455 23.145 A 40.834 40.834 0 0 0 612.141 24.038 Q 612.003 24.446 611.891 24.811 A 22.333 22.333 0 0 0 611.82 25.049 A 14.984 14.984 0 0 1 611.53 25.936 A 11.934 11.934 0 0 1 611.283 26.563 A 25.656 25.656 0 0 1 610.648 27.93 Q 610.329 28.568 609.967 29.376 A 52.322 52.322 0 0 0 609.916 29.492 Q 610.111 30.078 610.697 30.371 A 1.614 1.614 0 0 1 611.167 30.717 A 1.451 1.451 0 0 1 611.478 31.25 A 13.718 13.718 0 0 1 613.614 30.391 A 12.225 12.225 0 0 1 614.212 30.225 Q 615.58 29.883 616.947 29.688 A 40.139 40.139 0 0 0 619.681 29.199 A 12.275 12.275 0 0 0 621.428 28.68 A 15.316 15.316 0 0 0 622.513 28.223 Q 623.978 27.539 625.589 27.1 A 90.269 90.269 0 0 0 628.763 26.172 A 30.452 30.452 0 0 0 631.791 25.049 A 8.11 8.11 0 0 0 634.33 23.34 Q 632.962 22.07 630.228 21.094 A 21.972 21.972 0 0 0 625.687 20.015 A 25.527 25.527 0 0 0 624.32 19.873 A 21.772 21.772 0 0 0 622.649 19.809 A 22.156 22.156 0 0 0 617.972 20.313 A 11.642 11.642 0 0 0 612.455 23.145 Z M 192.282 34.785 A 28.518 28.518 0 0 0 187.748 36.328 A 15.095 15.095 0 0 1 186.433 36.859 A 12.47 12.47 0 0 1 183.109 37.549 A 10.472 10.472 0 0 0 181.395 37.803 A 11.997 11.997 0 0 0 178.568 38.867 Q 178.373 38.379 177.933 38.135 Q 177.494 37.891 177.298 37.402 Q 177.982 35.938 178.373 34.912 A 38.786 38.786 0 0 0 178.566 34.391 Q 178.791 33.774 179.068 32.962 A 126.574 126.574 0 0 0 179.349 32.129 A 10.377 10.377 0 0 1 183.988 29.736 A 17.683 17.683 0 0 1 188.067 29.251 A 16.828 16.828 0 0 1 189.31 29.297 A 20.147 20.147 0 0 1 190.604 29.434 A 17.157 17.157 0 0 1 194.193 30.322 A 16.237 16.237 0 0 1 195.341 30.794 Q 196.759 31.446 197.611 32.227 A 9.026 9.026 0 0 1 195.668 33.628 A 10.675 10.675 0 0 1 192.972 34.619 A 31.819 31.819 0 0 0 192.282 34.785 Z M 127.787 34.766 L 127.201 35.742 A 40.192 40.192 0 0 0 124.353 39.093 A 46.485 46.485 0 0 0 123.441 40.332 Q 121.634 42.871 120.365 45.117 L 119.193 46.875 A 25.471 25.471 0 0 0 118.119 48.633 A 7.167 7.167 0 0 1 118.901 48.545 A 6.172 6.172 0 0 1 119.242 48.535 A 5.331 5.331 0 0 0 120.082 48.471 A 4.788 4.788 0 0 0 120.267 48.438 Q 123.197 48.242 125.589 47.998 A 48.152 48.152 0 0 0 128.111 47.669 Q 129.444 47.462 130.912 47.168 A 502.546 502.546 0 0 0 129.831 42.636 A 568.496 568.496 0 0 0 129.447 41.064 Q 128.666 37.891 127.787 34.766 Z M 401.517 34.766 L 400.931 35.742 A 40.192 40.192 0 0 0 398.084 39.093 A 46.485 46.485 0 0 0 397.171 40.332 Q 395.365 42.871 394.095 45.117 L 392.923 46.875 A 25.471 25.471 0 0 0 391.849 48.633 A 7.167 7.167 0 0 1 392.632 48.545 A 6.172 6.172 0 0 1 392.972 48.535 A 5.331 5.331 0 0 0 393.813 48.471 A 4.788 4.788 0 0 0 393.998 48.438 Q 396.927 48.242 399.32 47.998 A 48.152 48.152 0 0 0 401.842 47.669 Q 403.174 47.462 404.642 47.168 A 502.546 502.546 0 0 0 403.562 42.636 A 568.496 568.496 0 0 0 403.177 41.064 Q 402.396 37.891 401.517 34.766 Z M 497.611 34.766 L 497.025 35.742 A 40.192 40.192 0 0 0 494.178 39.093 A 46.485 46.485 0 0 0 493.265 40.332 Q 491.459 42.871 490.189 45.117 L 489.017 46.875 A 25.471 25.471 0 0 0 487.943 48.633 A 7.167 7.167 0 0 1 488.726 48.545 A 6.172 6.172 0 0 1 489.066 48.535 A 5.331 5.331 0 0 0 489.907 48.471 A 4.788 4.788 0 0 0 490.091 48.438 Q 493.021 48.242 495.414 47.998 A 48.152 48.152 0 0 0 497.935 47.669 Q 499.268 47.462 500.736 47.168 A 502.546 502.546 0 0 0 499.656 42.636 A 568.496 568.496 0 0 0 499.271 41.064 Q 498.49 37.891 497.611 34.766 Z M 673.929 32.715 A 18.344 18.344 0 0 0 676.322 29.883 Q 677.453 30.24 678.529 31.068 A 10.875 10.875 0 0 1 679.886 32.324 Q 681.595 34.18 681.986 37.207 A 2115.684 2115.684 0 0 1 678.568 38.611 A 2494.175 2494.175 0 0 1 674.955 40.088 A 31.348 31.348 0 0 1 672.156 41.082 A 24.781 24.781 0 0 1 667.826 41.992 Q 668.216 39.844 669.193 38.232 A 18.113 18.113 0 0 1 671.39 35.303 A 63.262 63.262 0 0 1 673.929 32.715 Z"
       vector-effect="non-scaling-stroke"
       id="path1432" />
  </g>
</svg>
