<?xml version="1.0" encoding="UTF-8" standalone="no"?>
<svg
   xmlns:dc="http://purl.org/dc/elements/1.1/"
   xmlns:cc="http://creativecommons.org/ns#"
   xmlns:rdf="http://www.w3.org/1999/02/22-rdf-syntax-ns#"
   xmlns:svg="http://www.w3.org/2000/svg"
   xmlns="http://www.w3.org/2000/svg"
   xmlns:sodipodi="http://sodipodi.sourceforge.net/DTD/sodipodi-0.dtd"
   xmlns:inkscape="http://www.inkscape.org/namespaces/inkscape"
   width="100%"
   viewBox="0 0 739.121 76.699"
   version="1.1"
   id="svg870"
   sodipodi:docname="walterjenkins3.svg"
   inkscape:version="0.92.3 (2405546, 2018-03-11)">
  <metadata
     id="metadata876">
    <rdf:RDF>
      <cc:Work
         rdf:about="">
        <dc:format>image/svg+xml</dc:format>
        <dc:type
           rdf:resource="http://purl.org/dc/dcmitype/StillImage" />
        <dc:title></dc:title>
      </cc:Work>
    </rdf:RDF>
  </metadata>
  <defs
     id="defs874" />
  <sodipodi:namedview
     pagecolor="#ffffff"
     bordercolor="#666666"
     borderopacity="1"
     objecttolerance="10"
     gridtolerance="10"
     guidetolerance="10"
     inkscape:pageopacity="0"
     inkscape:pageshadow="2"
     inkscape:window-width="1920"
     inkscape:window-height="986"
     id="namedview872"
     showgrid="false"
     inkscape:zoom="0.53035973"
     inkscape:cx="369.56049"
     inkscape:cy="38.349499"
     inkscape:window-x="-11"
     inkscape:window-y="-11"
     inkscape:window-maximized="1"
     inkscape:current-layer="svg870" />
  <g
     id="svgGroup"
     stroke-linecap="round"
     fill-rule="evenodd"
     font-size="9pt"
     stroke="#000"
     stroke-width="1mm"
     fill="none"
     style="stroke:#000;stroke-width:0.25mm;fill:#f06543">
    <path
       d="M 226.855 53.809 L 226.465 54.98 Q 225.879 55.566 225.781 55.908 A 0.978 0.978 0 0 1 225.618 56.228 Q 225.533 56.341 225.411 56.447 A 2.006 2.006 0 0 1 225.293 56.543 Q 225.195 57.617 224.609 58.691 A 6.686 6.686 0 0 0 224.421 59.225 A 5.292 5.292 0 0 0 224.316 59.619 A 7.634 7.634 0 0 0 224.274 59.824 Q 224.237 60.014 224.225 60.143 A 1.2 1.2 0 0 0 224.219 60.254 A 3.038 3.038 0 0 1 224.192 60.674 Q 224.104 61.299 223.73 61.523 A 2.546 2.546 0 0 1 223.779 62.024 Q 223.779 62.256 223.739 62.499 A 3.215 3.215 0 0 1 223.73 62.549 A 61.69 61.69 0 0 1 223.584 63.327 A 53.671 53.671 0 0 1 223.535 63.574 Q 223.242 64.746 223.34 65.43 A 21.046 21.046 0 0 0 223.587 65.753 Q 223.701 65.9 223.807 66.029 A 12.328 12.328 0 0 0 223.877 66.113 Q 224.098 66.378 224.199 66.804 A 2.602 2.602 0 0 1 224.219 66.895 Q 224.66 67.189 224.936 67.317 A 1.56 1.56 0 0 0 225.098 67.383 Q 225.45 67.647 226.121 67.991 A 16.346 16.346 0 0 0 226.27 68.066 L 227.148 69.043 A 9.056 9.056 0 0 1 227.252 69.856 Q 227.343 70.988 227.098 71.908 A 4.252 4.252 0 0 1 226.27 73.535 Q 224.805 75.391 221.289 75.391 L 220.117 75.391 Q 219.742 75.015 219.597 74.755 A 0.871 0.871 0 0 1 219.531 74.609 A 105.648 105.648 0 0 1 219.159 74.469 Q 218.628 74.268 218.262 74.121 Q 217.834 73.95 217.482 73.48 A 3.098 3.098 0 0 1 217.383 73.34 Q 216.113 72.754 215.332 72.363 L 214.453 71.875 L 214.453 70.703 A 6.234 6.234 0 0 1 213.428 68.75 Q 213.086 67.676 212.891 66.602 A 21.191 21.191 0 0 0 212.574 65.351 A 18.361 18.361 0 0 0 212.451 64.941 A 5.87 5.87 0 0 0 212.131 64.127 A 4.683 4.683 0 0 0 211.816 63.574 A 42.933 42.933 0 0 1 211.79 62.095 Q 211.79 57.389 212.891 54.004 A 169.818 169.818 0 0 1 215.187 47.392 A 154.847 154.847 0 0 1 215.527 46.484 Q 216.309 44.531 217.09 42.529 A 41.296 41.296 0 0 0 218.457 38.379 L 219.336 37.402 A 607.062 607.062 0 0 0 219.662 36.655 Q 220.129 35.583 220.459 34.814 A 105.392 105.392 0 0 1 221.356 32.782 A 114.758 114.758 0 0 1 221.387 32.715 A 39.087 39.087 0 0 0 221.799 31.717 A 34.141 34.141 0 0 0 221.924 31.396 Q 222.168 30.762 222.363 30.273 A 12.382 12.382 0 0 0 221.802 30.286 A 9.49 9.49 0 0 0 221.289 30.322 A 10.103 10.103 0 0 0 220.313 30.469 Q 219.727 30.566 219.238 30.615 A 9.808 9.808 0 0 1 218.262 30.664 A 7.656 7.656 0 0 1 217.944 30.658 Q 217.505 30.64 217.285 30.566 A 5.52 5.52 0 0 1 215.217 31.049 A 6.441 6.441 0 0 1 214.941 31.055 L 213.965 31.055 A 3.061 3.061 0 0 1 213.655 31.04 A 2.397 2.397 0 0 1 213.428 31.006 A 2.775 2.775 0 0 0 213.223 30.972 Q 213.118 30.959 213.023 30.957 A 1.615 1.615 0 0 0 212.988 30.957 A 5.306 5.306 0 0 0 212.376 30.99 Q 212.078 31.025 211.828 31.096 A 2.324 2.324 0 0 0 211.426 31.25 L 209.18 31.25 L 208.203 31.25 A 2.025 2.025 0 0 0 208.05 31.256 Q 207.976 31.262 207.893 31.273 A 4.617 4.617 0 0 0 207.715 31.299 Q 207.518 31.332 207.365 31.342 A 1.981 1.981 0 0 1 207.227 31.348 A 7.27 7.27 0 0 1 206.38 31.296 A 9.13 9.13 0 0 1 205.762 31.201 Q 204.98 31.055 204.102 30.566 Q 202.956 29.038 202.557 28.911 A 0.289 0.289 0 0 0 202.539 28.906 L 201.66 27.734 Q 201.563 27.148 201.367 26.611 A 15.53 15.53 0 0 1 201.173 26.042 Q 201.078 25.745 200.983 25.412 A 24.951 24.951 0 0 1 200.977 25.391 Q 200.586 24.414 200.244 23.291 A 7.284 7.284 0 0 1 200.01 22.224 Q 199.93 21.671 199.909 21.04 A 13.453 13.453 0 0 1 199.902 20.605 Q 200 19.826 200.291 19.436 A 1.244 1.244 0 0 1 200.293 19.434 A 20.755 20.755 0 0 0 200.499 19.154 Q 200.599 19.016 200.684 18.893 A 10.446 10.446 0 0 0 200.781 18.75 L 201.074 17.285 L 202.344 17.383 L 205.078 17.383 Q 208.203 17.383 211.426 17.139 A 670.193 670.193 0 0 0 217.64 16.638 A 731.971 731.971 0 0 0 218.066 16.602 A 1645.562 1645.562 0 0 1 222.021 16.211 A 616.467 616.467 0 0 1 225.107 15.918 A 684.186 684.186 0 0 1 226.172 15.82 A 41.999 41.999 0 0 1 226.752 14.569 A 36.309 36.309 0 0 1 226.953 14.16 L 227.93 13.672 Q 229.559 13.581 230.307 14.036 A 1.563 1.563 0 0 1 230.42 14.111 A 13.298 13.298 0 0 1 231.013 14.571 Q 231.277 14.789 231.498 14.998 A 7.354 7.354 0 0 1 231.641 15.137 A 218.446 218.446 0 0 0 235.986 14.697 A 72.951 72.951 0 0 0 240.43 14.062 A 220.592 220.592 0 0 1 247.119 13.184 A 58.18 58.18 0 0 1 252.036 12.817 A 51.5 51.5 0 0 1 253.613 12.793 A 34.917 34.917 0 0 1 255.891 12.865 A 31.387 31.387 0 0 1 256.25 12.891 Q 257.52 12.988 258.594 13.184 L 259.57 13.867 A 3.538 3.538 0 0 0 260.162 14.707 A 4.224 4.224 0 0 0 260.4 14.941 A 34.564 34.564 0 0 0 261.523 15.918 A 20.2 20.2 0 0 1 262.842 17.25 A 25.904 25.904 0 0 1 263.867 18.457 A 3.997 3.997 0 0 1 264.375 19.303 A 149.334 149.334 0 0 0 264.795 19.214 A 173.716 173.716 0 0 0 266.895 18.75 A 95.677 95.677 0 0 1 270.154 17.751 Q 271.648 17.324 272.995 17.001 A 53.923 53.923 0 0 1 273.877 16.797 A 85.332 85.332 0 0 1 279.932 15.674 A 235.447 235.447 0 0 1 284.537 15.042 A 263.403 263.403 0 0 1 286.133 14.844 A 89.474 89.474 0 0 0 289.121 14.427 Q 291.15 14.111 293.457 13.672 A 4.413 4.413 0 0 0 293.943 14.096 Q 294.206 14.291 294.46 14.403 A 1.629 1.629 0 0 0 295.117 14.551 A 2.271 2.271 0 0 1 295.239 14.312 Q 295.586 13.729 296.037 14.009 A 0.838 0.838 0 0 1 296.045 14.014 A 0.937 0.937 0 0 0 296.126 14.06 Q 296.574 14.286 296.484 13.477 Q 297.461 15.137 298.975 16.26 A 15.976 15.976 0 0 0 301.999 18.015 A 17.883 17.883 0 0 0 302.344 18.164 A 8.343 8.343 0 0 1 302.378 18.434 Q 302.431 18.919 302.393 19.189 A 31.019 31.019 0 0 1 302.344 19.519 A 24.755 24.755 0 0 1 302.295 19.824 A 3.573 3.573 0 0 0 302.253 20.21 A 4.416 4.416 0 0 0 302.246 20.459 Q 302.246 20.738 302.377 21.246 A 9.252 9.252 0 0 0 302.441 21.484 A 15.157 15.157 0 0 1 300.85 23.64 Q 299.405 25.253 297.705 26.025 A 23.332 23.332 0 0 1 292.669 27.638 A 26.386 26.386 0 0 1 291.895 27.783 A 926.369 926.369 0 0 0 285.498 28.906 A 17.871 17.871 0 0 0 281.023 30.358 A 21.954 21.954 0 0 0 279.004 31.445 A 3.858 3.858 0 0 0 278.389 31.263 Q 278.085 31.201 277.795 31.201 A 2.496 2.496 0 0 0 276.709 31.445 A 3.18 3.18 0 0 1 276.036 31.671 Q 275.302 31.836 274.27 31.78 A 11.746 11.746 0 0 1 273.73 31.738 A 3.171 3.171 0 0 1 272.559 32.474 A 3.875 3.875 0 0 1 272.266 32.568 A 36.179 36.179 0 0 0 270.508 33.105 Q 270.898 33.984 270.85 34.912 Q 270.809 35.685 271.005 36.22 A 1.995 1.995 0 0 0 271.094 36.426 A 35.068 35.068 0 0 0 273.563 36.547 Q 275.957 36.583 278.662 36.328 Q 282.813 35.938 286.816 35.84 A 1.938 1.938 0 0 1 286.836 35.956 Q 286.89 36.346 286.719 36.475 Q 286.523 36.621 286.621 37.012 A 8.218 8.218 0 0 1 287.39 37.638 A 10.719 10.719 0 0 1 287.988 38.232 A 57.116 57.116 0 0 0 289.355 39.648 A 7.933 7.933 0 0 0 290.229 40.408 A 6.601 6.601 0 0 0 290.771 40.771 A 2.539 2.539 0 0 0 291.922 41.124 Q 292.191 41.142 292.48 41.113 Q 292.871 41.895 293.018 42.822 A 3.263 3.263 0 0 1 293.058 43.332 Q 293.058 44.016 292.773 44.727 A 182.684 182.684 0 0 0 289.648 46.924 A 25.87 25.87 0 0 1 286.377 48.926 A 19.381 19.381 0 0 1 282.764 50.342 A 12.014 12.014 0 0 1 280.627 50.732 Q 279.949 50.796 279.226 50.796 A 17.074 17.074 0 0 1 278.516 50.781 L 277.783 50.781 A 0.558 0.558 0 0 1 277.616 50.753 Q 277.462 50.704 277.266 50.572 A 2.823 2.823 0 0 1 277.148 50.488 A 2.152 2.152 0 0 1 276.509 50.75 Q 275.861 50.907 274.951 50.781 A 6.207 6.207 0 0 0 274.56 50.739 Q 273.59 50.668 272.96 50.962 A 1.933 1.933 0 0 0 272.754 51.074 A 4.759 4.759 0 0 0 271.614 50.728 Q 271.066 50.63 270.438 50.63 A 8.424 8.424 0 0 0 270.166 50.635 A 10.303 10.303 0 0 1 269.834 50.64 Q 269.178 50.64 268.59 50.553 A 6.504 6.504 0 0 1 267.48 50.293 Q 265.918 52.344 264.648 54.688 A 38.544 38.544 0 0 0 262.41 59.647 A 42.655 42.655 0 0 0 262.402 59.668 A 45.557 45.557 0 0 0 264.368 59.916 Q 266.347 60.119 267.828 60.062 A 15.464 15.464 0 0 0 267.92 60.059 A 54.997 54.997 0 0 0 270.826 59.855 A 46.526 46.526 0 0 0 272.07 59.717 A 688.028 688.028 0 0 1 276.074 59.229 A 22.2 22.2 0 0 1 277.25 59.122 Q 278.628 59.032 280.379 59.061 A 58.857 58.857 0 0 1 281.25 59.082 A 11.399 11.399 0 0 1 283.679 58.105 A 15.407 15.407 0 0 1 285.889 57.666 Q 288.574 57.324 290.82 56.543 A 3.033 3.033 0 0 1 291.902 57.249 A 3.808 3.808 0 0 1 292.188 57.568 A 70.524 70.524 0 0 0 292.761 58.276 A 58.873 58.873 0 0 0 293.311 58.936 A 9.447 9.447 0 0 0 294.144 59.805 A 8.325 8.325 0 0 0 294.434 60.059 A 1.749 1.749 0 0 0 295.465 60.461 Q 295.655 60.473 295.862 60.453 A 2.807 2.807 0 0 0 295.898 60.449 A 2.054 2.054 0 0 1 296.436 61.377 A 16.166 16.166 0 0 1 296.614 62.092 A 13.662 13.662 0 0 1 296.68 62.402 A 2.448 2.448 0 0 0 296.811 62.848 A 1.882 1.882 0 0 0 297.021 63.232 Q 297.241 63.54 297.737 63.492 A 1.685 1.685 0 0 0 297.852 63.477 A 20.164 20.164 0 0 1 296.691 65.681 Q 295.673 67.34 294.482 68.408 Q 292.578 70.117 290.137 70.996 A 27.942 27.942 0 0 1 287.048 71.902 A 35.107 35.107 0 0 1 284.717 72.363 A 237.107 237.107 0 0 0 281.58 72.9 A 318.693 318.693 0 0 0 278.125 73.535 A 3.861 3.861 0 0 1 277.754 73.6 Q 277.33 73.651 276.985 73.584 A 1.685 1.685 0 0 1 276.66 73.486 A 3.072 3.072 0 0 0 275.961 73.292 A 4.237 4.237 0 0 0 275.293 73.242 Q 273.573 73.616 271.338 73.933 A 87.363 87.363 0 0 1 269.922 74.121 Q 266.797 74.512 263.574 74.414 A 29.262 29.262 0 0 1 258.159 73.757 A 26.778 26.778 0 0 1 257.422 73.584 A 11.417 11.417 0 0 1 254.836 72.611 A 9.134 9.134 0 0 1 252.637 70.996 Q 251.855 70.313 251.611 69.385 A 1.951 1.951 0 0 0 250.871 68.307 A 3.027 3.027 0 0 0 250.293 67.969 A 22.397 22.397 0 0 0 250.15 66.648 Q 250.057 65.975 249.921 65.236 A 36.249 36.249 0 0 0 249.902 65.137 A 206.925 206.925 0 0 1 249.463 62.711 A 235.43 235.43 0 0 1 249.316 61.865 A 41.558 41.558 0 0 1 248.877 58.496 Q 248.73 56.836 249.023 55.469 A 6.125 6.125 0 0 1 250.244 52.832 Q 251.158 51.678 250.887 50.334 A 3.371 3.371 0 0 0 250.879 50.293 A 0.924 0.924 0 0 0 251.134 50.205 A 0.639 0.639 0 0 0 251.465 49.756 A 0.423 0.423 0 0 1 251.601 49.517 Q 251.794 49.353 252.23 49.412 A 2.084 2.084 0 0 1 252.246 49.414 A 40.494 40.494 0 0 1 253.18 46.887 A 35.764 35.764 0 0 1 253.516 46.094 A 65.245 65.245 0 0 1 254.932 43.066 A 255.629 255.629 0 0 0 256.396 40.088 A 33.785 33.785 0 0 0 257.205 38.277 A 43.055 43.055 0 0 0 257.813 36.719 A 8.843 8.843 0 0 1 256.521 35.235 A 7.3 7.3 0 0 1 255.811 33.936 A 15.554 15.554 0 0 1 254.961 31.287 A 14.283 14.283 0 0 1 254.883 30.908 A 44.843 44.843 0 0 1 254.395 27.783 A 20.022 20.022 0 0 0 254.134 26.196 A 39.879 39.879 0 0 0 252.599 26.28 A 50.358 50.358 0 0 0 250.195 26.514 A 257.727 257.727 0 0 0 244.629 27.246 A 95.064 95.064 0 0 1 241.782 27.631 A 83.831 83.831 0 0 1 240.869 27.734 A 94.307 94.307 0 0 1 239.148 27.905 A 68.529 68.529 0 0 1 237.598 28.027 A 59.167 59.167 0 0 1 236.957 29.934 Q 236.639 30.827 236.321 31.613 A 35.553 35.553 0 0 1 236.23 31.836 Q 235.547 33.496 234.766 35.059 A 43.394 43.394 0 0 0 233.35 38.428 A 57.199 57.199 0 0 0 232.5 40.893 A 67.596 67.596 0 0 0 232.129 42.09 A 36.361 36.361 0 0 0 231.288 43.501 Q 230.909 44.174 230.603 44.795 A 21.732 21.732 0 0 0 230.518 44.971 A 13.228 13.228 0 0 0 229.85 46.657 A 16.692 16.692 0 0 0 229.492 47.949 A 11.315 11.315 0 0 0 228.134 50.082 A 9.994 9.994 0 0 0 227.734 51.025 Q 227.286 52.259 227.009 53.235 A 18.922 18.922 0 0 0 226.855 53.809 Z M 62.695 50.781 L 67.383 47.168 A 13.415 13.415 0 0 0 69.123 45.59 Q 70.155 44.486 71.143 43.018 A 46.445 46.445 0 0 0 72.925 40.137 A 60.628 60.628 0 0 0 74.658 36.865 Q 76.367 33.398 78.027 29.346 A 447.435 447.435 0 0 0 81.348 20.996 A 349.904 349.904 0 0 1 83.74 14.795 A 130.817 130.817 0 0 1 85.599 10.345 A 116.187 116.187 0 0 1 86.23 8.936 A 105.32 105.32 0 0 1 87.488 6.274 A 82.512 82.512 0 0 1 88.721 3.857 A 38.002 38.002 0 0 1 89.742 2.051 Q 90.436 0.903 91.113 0 A 42.801 42.801 0 0 1 93.549 1.647 A 31.237 31.237 0 0 1 95.654 3.32 Q 97.559 4.98 98.975 6.982 Q 100.391 8.984 101.221 11.572 A 25.192 25.192 0 0 1 101.863 14.014 Q 102.222 15.698 102.441 17.676 A 124.238 124.238 0 0 0 98.437 26.074 A 1164.5 1164.5 0 0 0 94.727 34.766 A 489.346 489.346 0 0 1 89.893 46.045 Q 87.402 51.66 84.375 56.738 Q 81.348 61.816 77.588 66.064 Q 73.828 70.313 68.945 73.242 Q 67.905 73.019 67.091 72.966 A 7.502 7.502 0 0 0 66.602 72.949 A 6.579 6.579 0 0 0 65.844 72.99 Q 65.253 73.059 64.795 73.242 Q 64.063 73.535 63.477 74.023 A 15.367 15.367 0 0 1 57.031 68.506 A 81.677 81.677 0 0 1 54.055 63.669 A 100.84 100.84 0 0 1 52.246 60.352 Q 51.953 59.668 51.611 59.033 A 57.979 57.979 0 0 0 51.071 58.054 A 66.075 66.075 0 0 0 50.879 57.715 L 49.219 54.688 L 48.242 52.832 L 46.875 54.102 L 44.824 55.957 L 43.652 57.129 Q 40.625 59.961 37.5 62.646 A 58.894 58.894 0 0 1 30.957 67.529 A 35.076 35.076 0 0 1 23.682 71.094 A 25.916 25.916 0 0 1 16.52 72.514 A 29.53 29.53 0 0 1 15.43 72.559 Q 14.648 72.168 14.014 71.875 A 43.91 43.91 0 0 1 12.94 71.362 A 39.807 39.807 0 0 1 12.793 71.289 Q 11.073 70.467 9.812 69.701 A 20.206 20.206 0 0 1 9.082 69.238 A 12.883 12.883 0 0 1 8.119 68.523 Q 7.043 67.65 5.75 66.301 A 40.885 40.885 0 0 1 5.664 66.211 A 63.24 63.24 0 0 0 4.932 64.655 A 56.25 56.25 0 0 0 4.688 64.16 A 24.158 24.158 0 0 0 4.199 63.232 A 18.725 18.725 0 0 0 3.711 62.402 Q 2.704 60.388 1.913 58.735 A 160.209 160.209 0 0 1 1.66 58.203 A 29.534 29.534 0 0 1 0.819 56.235 Q 0.423 55.214 0.05 54.061 A 47.922 47.922 0 0 1 0 53.906 Q 0.27 52.377 0.912 48.944 A 1639.163 1639.163 0 0 1 1.025 48.34 A 346.311 346.311 0 0 1 1.819 44.25 A 450.931 450.931 0 0 1 2.734 39.795 Q 3.711 35.156 4.834 30.371 Q 5.694 26.707 6.582 23.845 A 60.24 60.24 0 0 1 7.129 22.168 A 230.021 230.021 0 0 1 8.264 19.043 A 280.104 280.104 0 0 1 9.521 15.723 Q 10.84 12.305 12.451 9.424 A 30.732 30.732 0 0 1 14.124 6.75 A 23.529 23.529 0 0 1 15.918 4.492 A 9.386 9.386 0 0 1 17.351 3.188 Q 18.382 2.438 19.495 2.146 A 5.675 5.675 0 0 1 19.922 2.051 A 5.753 5.753 0 0 0 20.522 2.737 A 4.344 4.344 0 0 0 21.191 3.271 Q 21.776 3.647 22.29 3.845 A 4.035 4.035 0 0 0 22.461 3.906 A 41.212 41.212 0 0 0 23.895 5.817 Q 24.634 6.742 25.353 7.513 A 23.887 23.887 0 0 0 25.684 7.861 A 25.531 25.531 0 0 0 27.627 9.659 A 32.902 32.902 0 0 0 29.395 11.035 A 52.761 52.761 0 0 1 28.701 14.022 Q 28.265 15.691 27.686 17.529 Q 26.563 21.094 25.342 24.707 A 836.976 836.976 0 0 1 23.243 30.843 A 756.06 756.06 0 0 1 22.949 31.689 Q 21.777 35.059 21.094 37.5 A 58.843 58.843 0 0 0 20.581 39.321 Q 20.334 40.253 20.087 41.29 A 98.382 98.382 0 0 0 19.922 41.992 Q 19.434 44.141 18.896 47.168 A 143.885 143.885 0 0 0 18.372 50.342 A 185.756 185.756 0 0 0 17.871 53.809 A 7.716 7.716 0 0 0 18.991 53.384 Q 19.906 52.96 20.947 52.246 A 35.895 35.895 0 0 0 23.751 50.121 A 32.538 32.538 0 0 0 24.121 49.805 Q 25.879 48.34 27.539 46.68 A 82.881 82.881 0 0 0 29.374 44.789 Q 30.195 43.914 30.895 43.108 A 46.23 46.23 0 0 0 31.348 42.578 A 40.95 40.95 0 0 0 34.229 38.721 A 96.878 96.878 0 0 0 35.571 36.621 A 120.989 120.989 0 0 0 36.963 34.326 A 1850.173 1850.173 0 0 0 38.1 32.401 Q 39.111 30.688 40.332 28.613 A 298.316 298.316 0 0 0 42.126 25.684 A 354.993 354.993 0 0 0 43.994 22.559 A 135.377 135.377 0 0 1 47.364 17.143 A 123.484 123.484 0 0 1 47.852 16.406 A 136.155 136.155 0 0 1 50.255 12.916 A 112.67 112.67 0 0 1 51.66 10.986 A 36.484 36.484 0 0 1 52.956 9.342 Q 53.587 8.59 54.179 7.983 A 15.988 15.988 0 0 1 55.078 7.129 A 31.073 31.073 0 0 0 56.238 8.228 A 41.346 41.346 0 0 0 57.568 9.375 A 8.722 8.722 0 0 0 60.106 10.857 A 8.233 8.233 0 0 0 60.645 11.035 Q 61.328 12.109 61.963 12.939 A 219.257 219.257 0 0 1 63.036 14.355 A 197.923 197.923 0 0 1 63.184 14.551 A 853.143 853.143 0 0 1 63.928 15.576 A 629.377 629.377 0 0 1 64.6 16.504 A 11.059 11.059 0 0 1 65.53 18.053 A 12.642 12.642 0 0 1 65.723 18.457 A 19.416 19.416 0 0 1 65.647 18.993 Q 65.549 19.635 65.381 20.508 A 2085.234 2085.234 0 0 1 65.125 21.838 A 2717.173 2717.173 0 0 1 64.844 23.291 A 129.968 129.968 0 0 1 64.209 26.367 A 174.583 174.583 0 0 0 63.648 29.027 A 157.452 157.452 0 0 0 63.574 29.395 Q 62.827 32.759 62.365 34.864 A 699.262 699.262 0 0 0 62.109 36.035 Q 61.621 38.281 61.426 39.551 Q 61.292 40.424 61.226 41.112 A 15.261 15.261 0 0 0 61.182 41.699 A 23.535 23.535 0 0 0 61.16 42.181 Q 61.133 42.969 61.133 44.141 A 14.233 14.233 0 0 0 61.328 46.484 A 65.537 65.537 0 0 0 61.768 48.682 A 5.77 5.77 0 0 0 62.695 50.781 Z M 385.254 71.387 L 384.961 71.387 A 33.987 33.987 0 0 0 382.846 71.735 A 29.686 29.686 0 0 0 382.178 71.875 A 46.492 46.492 0 0 0 379.492 72.559 Q 378.906 72.754 378.32 72.852 A 10.112 10.112 0 0 0 377.71 72.974 A 13.241 13.241 0 0 0 377.051 73.145 A 36.687 36.687 0 0 0 374.703 72.7 A 31.388 31.388 0 0 0 373.682 72.559 A 29.681 29.681 0 0 0 372.337 72.425 Q 371.515 72.363 370.801 72.363 L 369.336 71.973 Q 368.164 71.582 367.578 71.338 Q 366.992 71.094 366.455 70.947 Q 365.993 70.821 365.388 70.732 A 13.942 13.942 0 0 0 365.186 70.703 A 115.058 115.058 0 0 1 364.78 70.648 Q 364.32 70.585 363.692 70.496 A 466.589 466.589 0 0 1 363.086 70.41 Q 361.426 71.094 359.863 71.094 A 7.525 7.525 0 0 1 358.376 70.939 A 9.197 9.197 0 0 1 357.617 70.752 A 5.241 5.241 0 0 1 356.445 70.239 Q 355.859 69.897 355.273 69.385 A 9.009 9.009 0 0 1 354.267 68.338 Q 353.632 67.569 353.027 66.553 A 14.079 14.079 0 0 1 352.203 64.916 Q 351.636 63.596 351.172 61.914 A 51.433 51.433 0 0 1 351.405 60.312 Q 351.611 59.045 351.855 58.008 A 30.747 30.747 0 0 1 352.1 57.037 Q 352.36 56.075 352.619 55.415 A 8.89 8.89 0 0 1 352.637 55.371 L 353.418 54.492 A 9.875 9.875 0 0 1 355.678 53.921 A 12.98 12.98 0 0 1 357.422 53.809 Q 359.57 53.809 361.621 54.492 A 103.137 103.137 0 0 1 365.723 55.957 A 75.342 75.342 0 0 1 366.132 56.14 Q 366.699 56.396 366.992 56.543 L 367.578 56.836 A 0.793 0.793 0 0 0 367.744 56.895 Q 367.901 56.934 368.115 56.934 L 369.336 56.934 A 8.769 8.769 0 0 0 370.013 56.908 A 7.557 7.557 0 0 0 370.264 56.885 A 10.152 10.152 0 0 0 370.832 56.805 A 12.128 12.128 0 0 0 371.191 56.738 L 372.363 56.836 A 2.864 2.864 0 0 0 373.225 57.152 Q 373.596 57.227 374.023 57.227 A 5.27 5.27 0 0 0 375.065 57.119 A 6.215 6.215 0 0 0 375.439 57.031 A 99.561 99.561 0 0 1 376.856 56.665 A 108.88 108.88 0 0 1 376.953 56.641 A 10.236 10.236 0 0 1 377.512 56.448 Q 377.954 56.311 378.32 56.25 A 5.552 5.552 0 0 0 379.015 56.09 A 4.631 4.631 0 0 0 379.395 55.957 L 380.371 55.078 A 7.177 7.177 0 0 0 381.016 54.785 Q 381.311 54.631 381.549 54.465 A 3.341 3.341 0 0 0 381.885 54.199 A 5.17 5.17 0 0 0 382.813 53.076 A 17.136 17.136 0 0 0 383.545 51.758 Q 383.861 51.125 384.386 50.409 A 13.599 13.599 0 0 1 384.473 50.293 A 29.179 29.179 0 0 0 385.4 49.121 Q 385.84 48.535 386.328 48.047 L 386.328 47.07 Q 387.891 43.457 389.063 39.746 A 105.013 105.013 0 0 0 391.113 32.324 A 138.709 138.709 0 0 0 392.464 25.98 A 125.72 125.72 0 0 0 392.627 25.098 A 969.551 969.551 0 0 0 393.216 21.803 Q 393.493 20.239 393.734 18.84 A 594.194 594.194 0 0 0 393.75 18.75 A 3.558 3.558 0 0 1 393.164 18.701 Q 392.967 18.668 392.814 18.658 A 1.981 1.981 0 0 0 392.676 18.652 A 152.617 152.617 0 0 0 391.278 18.658 Q 389.563 18.674 388.294 18.73 A 49.029 49.029 0 0 0 387.891 18.75 A 53.51 53.51 0 0 0 385.896 18.891 A 41.718 41.718 0 0 0 384.473 19.043 A 43.566 43.566 0 0 0 382.151 19.399 A 50.696 50.696 0 0 0 381.201 19.58 A 192.634 192.634 0 0 1 380.289 19.76 Q 378.833 20.044 376.855 20.41 L 375.195 20.703 A 109.016 109.016 0 0 1 372.604 21.891 A 93.847 93.847 0 0 1 371.631 22.314 Q 369.922 23.047 368.066 23.047 A 6.56 6.56 0 0 1 363.363 21.089 A 8.927 8.927 0 0 1 362.988 20.703 A 5.517 5.517 0 0 1 361.402 19.29 A 5.071 5.071 0 0 1 360.449 16.797 A 3.628 3.628 0 0 1 360.186 16.213 Q 360.042 15.794 360.042 15.4 A 2.119 2.119 0 0 1 360.059 15.137 Q 359.668 13.77 359.619 12.646 A 53.862 53.862 0 0 1 359.583 11.56 A 43.621 43.621 0 0 1 359.57 10.547 L 359.668 8.887 L 361.133 8.887 Q 361.719 8.301 361.963 8.008 A 1.691 1.691 0 0 0 362.302 7.336 A 1.936 1.936 0 0 0 362.305 7.324 L 362.598 6.348 L 363.574 6.25 A 112.144 112.144 0 0 0 367.773 5.566 Q 369.922 5.176 372.168 4.688 Q 373.712 4.419 374.956 4.197 A 366.649 366.649 0 0 0 376.025 4.004 A 40.82 40.82 0 0 1 378.172 3.67 A 34.766 34.766 0 0 1 379.102 3.564 A 44.109 44.109 0 0 1 381.934 3.376 A 48.316 48.316 0 0 1 382.129 3.369 Q 383.472 3.327 385.175 3.321 A 163.746 163.746 0 0 1 385.742 3.32 A 21.644 21.644 0 0 1 386.487 3.333 A 15.928 15.928 0 0 1 387.158 3.369 A 16.956 16.956 0 0 0 388.296 3.417 A 18.872 18.872 0 0 0 388.477 3.418 A 2.572 2.572 0 0 1 388.708 3.162 Q 388.983 2.901 389.258 2.832 Q 389.566 2.755 389.753 2.739 A 1.056 1.056 0 0 1 389.844 2.734 A 16.307 16.307 0 0 1 390.164 2.783 Q 390.503 2.839 390.733 2.894 A 3.432 3.432 0 0 1 390.869 2.93 A 5.182 5.182 0 0 1 391.068 2.991 Q 391.258 3.053 391.388 3.116 A 1.517 1.517 0 0 1 391.406 3.125 A 58.403 58.403 0 0 1 394.592 2.649 A 43.888 43.888 0 0 1 397.51 2.393 Q 400.271 2.247 402.504 2.246 A 68.179 68.179 0 0 1 402.539 2.246 L 404.688 2.246 A 21.338 21.338 0 0 1 406.244 2.301 A 18.637 18.637 0 0 1 406.738 2.344 L 410.449 2.344 L 413.086 2.344 A 5.085 5.085 0 0 1 413.677 2.26 A 4.219 4.219 0 0 1 414.014 2.246 L 414.941 2.246 L 416.455 2.246 A 10.093 10.093 0 0 1 416.837 2.253 Q 417.026 2.26 417.192 2.275 A 5.256 5.256 0 0 1 417.383 2.295 L 418.164 2.393 Q 418.555 2.441 419.238 2.539 A 109.235 109.235 0 0 0 420.825 2.808 A 81.043 81.043 0 0 0 422.266 3.027 A 19.312 19.312 0 0 0 425 3.223 L 426.855 3.125 L 427.148 4.297 L 428.027 5.566 A 4.12 4.12 0 0 0 428.805 6.637 A 5.142 5.142 0 0 0 428.809 6.641 A 15.417 15.417 0 0 0 429.578 7.358 A 17.894 17.894 0 0 0 429.883 7.617 A 13.784 13.784 0 0 1 431.042 8.826 Q 431.598 9.476 432.143 10.253 A 22.086 22.086 0 0 1 432.178 10.303 A 4.574 4.574 0 0 1 432.824 11.723 Q 433.19 13.058 433.008 14.941 L 432.129 16.113 A 3.589 3.589 0 0 0 431.396 16.602 A 11.263 11.263 0 0 0 431.042 16.919 A 15.305 15.305 0 0 0 430.664 17.285 L 429.688 18.164 A 144.663 144.663 0 0 1 428.79 18.23 Q 428.439 18.255 428.127 18.275 A 69.963 69.963 0 0 1 427.539 18.311 A 30.498 30.498 0 0 1 426.611 18.347 A 41.097 41.097 0 0 1 425.586 18.359 A 66.038 66.038 0 0 1 422.021 18.262 A 905.47 905.47 0 0 0 419.229 18.115 A 1016.504 1016.504 0 0 0 418.262 18.066 Q 417.376 17.986 416.823 17.972 A 8.684 8.684 0 0 0 416.602 17.969 L 415.527 17.969 A 11.814 11.814 0 0 0 415.072 17.978 Q 414.839 17.987 414.58 18.005 A 20.588 20.588 0 0 0 414.404 18.018 Q 413.978 18.05 413.397 18.061 A 32.686 32.686 0 0 1 412.793 18.066 L 411.377 18.066 A 5.527 5.527 0 0 0 411.077 18.075 Q 410.753 18.093 410.306 18.146 A 21.29 21.29 0 0 0 410.156 18.164 A 42.222 42.222 0 0 1 409.931 20.653 Q 409.783 21.856 409.572 22.903 A 22.754 22.754 0 0 1 409.424 23.584 A 68.458 68.458 0 0 1 408.657 26.548 A 81.857 81.857 0 0 1 408.105 28.418 A 168.263 168.263 0 0 1 404.855 42.169 A 147.129 147.129 0 0 1 403.564 46.484 A 125.75 125.75 0 0 1 400.342 55.517 A 98.986 98.986 0 0 1 397.559 61.816 A 127.359 127.359 0 0 1 394.507 64.954 A 98.307 98.307 0 0 1 391.602 67.725 Q 388.77 70.313 385.254 71.387 Z M 554.883 16.504 L 556.348 16.211 A 8.566 8.566 0 0 1 557.766 17.701 A 10.337 10.337 0 0 1 558.252 18.408 Q 559.082 19.727 559.375 21.191 Q 559.501 21.819 559.501 22.42 A 5.443 5.443 0 0 1 559.277 23.975 A 3.202 3.202 0 0 1 558.215 25.548 A 4.69 4.69 0 0 1 557.422 26.074 A 4.355 4.355 0 0 1 557.456 26.267 Q 557.498 26.54 557.483 26.718 A 0.799 0.799 0 0 1 557.471 26.807 A 1.892 1.892 0 0 1 557.396 27.079 A 1.556 1.556 0 0 1 557.324 27.246 A 0.941 0.941 0 0 0 557.245 27.466 A 0.798 0.798 0 0 0 557.227 27.637 A 0.396 0.396 0 0 0 557.247 27.754 Q 557.304 27.936 557.52 28.223 A 8.243 8.243 0 0 0 555.216 30.934 A 10.728 10.728 0 0 0 554.59 32.324 Q 553.804 34.446 553.587 36.189 A 10.858 10.858 0 0 0 553.516 37.012 Q 554.688 35.84 556.104 34.717 A 68.674 68.674 0 0 1 559.033 32.52 A 274.042 274.042 0 0 1 561.249 30.963 A 244.321 244.321 0 0 1 561.963 30.469 Q 563.379 29.492 564.551 28.516 A 48.816 48.816 0 0 1 567.518 26.016 Q 568.963 24.899 570.355 24.024 A 29.783 29.783 0 0 1 570.752 23.779 A 136.498 136.498 0 0 0 573.816 21.863 A 168.471 168.471 0 0 0 577.051 19.727 Q 577.659 19.574 578.061 19.63 A 1.172 1.172 0 0 1 578.271 19.678 A 15.712 15.712 0 0 1 578.84 19.88 A 18.986 18.986 0 0 1 579.199 20.02 Q 579.199 19.434 578.857 19.336 Q 578.516 19.238 578.613 18.555 A 16.352 16.352 0 0 0 579.82 18.185 Q 580.548 17.929 581.152 17.627 A 24.788 24.788 0 0 1 582.571 16.975 A 29.864 29.864 0 0 1 583.496 16.602 A 28.694 28.694 0 0 1 585.156 18.408 A 3.147 3.147 0 0 0 586.754 19.416 A 4.254 4.254 0 0 0 587.305 19.531 A 5.733 5.733 0 0 0 587.698 20.261 Q 588.049 20.807 588.477 21.143 A 37.386 37.386 0 0 0 589.844 22.168 Q 590.527 22.656 591.064 23.34 A 2.335 2.335 0 0 1 591.394 23.932 Q 591.637 24.55 591.699 25.488 A 226.674 226.674 0 0 0 591.296 26.196 A 275.311 275.311 0 0 0 590.869 26.953 A 10.322 10.322 0 0 0 590.468 27.75 Q 590.275 28.175 590.093 28.663 A 17.479 17.479 0 0 0 590.039 28.809 A 38.688 38.688 0 0 1 586.895 31.362 A 34.349 34.349 0 0 1 586.084 31.934 A 107.757 107.757 0 0 1 582.031 34.57 A 238.27 238.27 0 0 1 577.832 37.109 A 38.087 38.087 0 0 0 575.108 38.887 A 46.549 46.549 0 0 0 573.438 40.137 A 5.323 5.323 0 0 1 572.44 41.186 A 6.113 6.113 0 0 1 572.217 41.357 A 60.953 60.953 0 0 1 570.703 42.432 A 17.362 17.362 0 0 0 569.238 43.555 A 4.35 4.35 0 0 0 568.164 44.922 A 1.845 1.845 0 0 1 567.587 45.02 A 1.776 1.776 0 0 1 567.578 45.02 A 1.843 1.843 0 0 0 566.994 45.116 A 2.555 2.555 0 0 0 566.992 45.117 Q 566.699 45.801 566.064 46.191 A 1.815 1.815 0 0 0 565.234 47.266 A 14.157 14.157 0 0 0 566.684 49.72 A 10.533 10.533 0 0 0 569.043 52.051 A 15.559 15.559 0 0 0 574.316 54.443 A 26.122 26.122 0 0 0 578.474 55.119 A 31.626 31.626 0 0 0 580.664 55.225 A 484.563 484.563 0 0 0 585.956 55.27 A 547.544 547.544 0 0 0 587.793 55.273 A 0.71 0.71 0 0 0 587.937 55.222 Q 588.165 55.109 588.137 54.853 A 0.574 0.574 0 0 0 588.135 54.834 Q 588.086 54.492 588.574 54.59 A 10.714 10.714 0 0 1 590.241 55.297 Q 591.148 55.782 591.816 56.408 A 6.091 6.091 0 0 1 592.188 56.787 A 20.811 20.811 0 0 0 593.77 58.365 A 26.399 26.399 0 0 0 595.215 59.57 A 11.913 11.913 0 0 1 594.69 62.571 A 9.18 9.18 0 0 1 592.969 65.723 Q 590.918 68.164 587.5 69.629 A 74.471 74.471 0 0 1 585.226 69.69 Q 583.39 69.71 581.749 69.629 A 42.156 42.156 0 0 1 579.248 69.434 A 24.392 24.392 0 0 1 572.266 67.578 A 0.499 0.499 0 0 1 572.144 67.489 Q 572.009 67.358 571.875 67.09 A 3.602 3.602 0 0 0 571.753 66.865 Q 571.687 66.753 571.621 66.664 A 1.433 1.433 0 0 0 571.484 66.504 A 2.324 2.324 0 0 0 570.827 66.295 Q 570.579 66.253 570.301 66.253 A 3.955 3.955 0 0 0 570.068 66.26 A 5.621 5.621 0 0 1 569.825 66.269 Q 569.178 66.279 568.693 66.126 A 2.503 2.503 0 0 1 568.652 66.113 A 9.047 9.047 0 0 1 568.207 65.872 Q 567.456 65.442 566.211 64.6 A 165.674 165.674 0 0 1 564.624 63.513 A 127.199 127.199 0 0 1 563.184 62.5 A 76.482 76.482 0 0 1 560.657 60.449 A 68.834 68.834 0 0 1 559.863 59.766 A 19.381 19.381 0 0 1 557.352 57.127 A 17.86 17.86 0 0 1 557.129 56.836 A 1.065 1.065 0 0 0 556.394 56.402 A 1.309 1.309 0 0 0 556.348 56.396 A 2.701 2.701 0 0 1 555.802 56.287 A 2.276 2.276 0 0 1 555.469 56.152 Q 552.637 57.91 550.684 60.547 A 98.592 98.592 0 0 0 546.973 65.918 A 61.594 61.594 0 0 1 543.262 71.094 A 12.392 12.392 0 0 1 538.281 74.805 A 4.501 4.501 0 0 1 537.451 74.731 A 3.482 3.482 0 0 1 536.719 74.512 Q 536.035 74.219 535.449 73.779 A 25.882 25.882 0 0 0 534.277 72.949 A 4.506 4.506 0 0 0 533.008 72.363 Q 533.008 71.191 532.568 70.215 A 52.05 52.05 0 0 0 531.909 68.805 A 45.71 45.71 0 0 0 531.689 68.359 A 8.641 8.641 0 0 1 531.272 67.386 A 6.984 6.984 0 0 1 531.055 66.65 A 1.794 1.794 0 0 1 531.006 66.238 Q 531.006 65.625 531.445 65.039 A 5.29 5.29 0 0 0 530.986 64.634 Q 530.466 64.223 529.688 63.77 A 2.861 2.861 0 0 0 529.937 63.488 Q 530.228 63.107 530.228 62.771 A 0.76 0.76 0 0 0 530.225 62.695 A 3.533 3.533 0 0 0 530.027 61.841 A 3.99 3.99 0 0 0 529.98 61.719 A 7.718 7.718 0 0 1 529.755 61.07 A 9.502 9.502 0 0 1 529.639 60.645 A 1.313 1.313 0 0 1 529.599 60.325 Q 529.599 59.899 529.883 59.473 Q 530.247 59.473 530.72 59.364 A 6.607 6.607 0 0 0 531.055 59.277 A 11.729 11.729 0 0 1 530.871 59.026 Q 530.484 58.48 530.516 58.354 A 0.063 0.063 0 0 1 530.518 58.35 Q 530.566 58.203 530.273 57.91 Q 530.087 57.349 530.436 57.191 A 0.531 0.531 0 0 1 530.469 57.178 A 8.132 8.132 0 0 0 531.25 56.836 Q 531.641 52.051 532.91 47.949 A 94.264 94.264 0 0 1 535.742 40.039 A 423.072 423.072 0 0 0 538.818 32.324 A 54.412 54.412 0 0 0 540.787 26.135 A 62.723 62.723 0 0 0 541.309 23.926 Q 542.383 22.852 543.018 21.387 A 59.065 59.065 0 0 1 544.385 18.457 A 28.574 28.574 0 0 1 546.045 15.576 A 6.609 6.609 0 0 1 547.989 13.66 A 8.119 8.119 0 0 1 548.633 13.281 A 5.833 5.833 0 0 1 550.209 13.606 A 5.122 5.122 0 0 1 551.074 14.014 A 3.881 3.881 0 0 0 552.381 14.486 Q 552.995 14.596 553.711 14.551 A 14.52 14.52 0 0 1 554.248 15.527 A 5.124 5.124 0 0 0 554.61 16.138 A 6.302 6.302 0 0 0 554.883 16.504 Z M 474.546 18.434 A 8.343 8.343 0 0 0 474.512 18.164 A 17.883 17.883 0 0 1 474.167 18.015 A 15.976 15.976 0 0 1 471.143 16.26 Q 469.629 15.137 468.652 13.477 Q 468.742 14.286 468.294 14.06 A 0.937 0.937 0 0 1 468.213 14.014 A 0.838 0.838 0 0 0 468.205 14.009 Q 467.754 13.729 467.407 14.312 A 2.271 2.271 0 0 0 467.285 14.551 A 1.629 1.629 0 0 1 466.628 14.403 Q 466.374 14.291 466.111 14.096 A 4.413 4.413 0 0 1 465.625 13.672 Q 463.318 14.111 461.289 14.427 A 89.474 89.474 0 0 1 458.301 14.844 A 263.403 263.403 0 0 0 456.705 15.042 A 235.447 235.447 0 0 0 452.1 15.674 A 85.332 85.332 0 0 0 446.045 16.797 A 53.923 53.923 0 0 0 445.163 17.001 Q 443.816 17.324 442.322 17.751 A 95.677 95.677 0 0 0 439.063 18.75 A 173.716 173.716 0 0 1 436.963 19.214 A 149.334 149.334 0 0 1 434.961 19.629 A 29.706 29.706 0 0 0 433.537 19.949 A 24.666 24.666 0 0 0 431.348 20.605 A 14.23 14.23 0 0 0 428.271 22.119 Q 426.855 23.047 425.879 24.512 Q 426.367 26.172 426.563 27.783 A 44.843 44.843 0 0 0 427.051 30.908 A 14.283 14.283 0 0 0 427.129 31.287 A 15.554 15.554 0 0 0 427.979 33.936 A 7.3 7.3 0 0 0 428.689 35.235 A 8.843 8.843 0 0 0 429.98 36.719 A 43.055 43.055 0 0 1 429.373 38.277 A 33.785 33.785 0 0 1 428.564 40.088 A 255.629 255.629 0 0 1 427.1 43.066 A 65.245 65.245 0 0 0 425.684 46.094 A 35.764 35.764 0 0 0 425.348 46.887 A 40.494 40.494 0 0 0 424.414 49.414 A 2.084 2.084 0 0 0 424.398 49.412 Q 423.962 49.353 423.769 49.517 A 0.423 0.423 0 0 0 423.633 49.756 A 0.639 0.639 0 0 1 423.302 50.205 A 0.924 0.924 0 0 1 423.047 50.293 A 3.371 3.371 0 0 1 423.055 50.334 Q 423.326 51.678 422.412 52.832 A 6.125 6.125 0 0 0 421.191 55.469 Q 420.898 56.836 421.045 58.496 A 41.558 41.558 0 0 0 421.484 61.865 A 235.43 235.43 0 0 0 421.631 62.711 A 206.925 206.925 0 0 0 422.07 65.137 A 36.249 36.249 0 0 1 422.089 65.236 Q 422.225 65.975 422.317 66.648 A 22.397 22.397 0 0 1 422.461 67.969 A 3.027 3.027 0 0 1 423.038 68.307 A 1.951 1.951 0 0 1 423.779 69.385 Q 424.023 70.313 424.805 70.996 A 9.134 9.134 0 0 0 427.004 72.611 A 11.417 11.417 0 0 0 429.59 73.584 A 26.778 26.778 0 0 0 430.327 73.757 A 29.262 29.262 0 0 0 435.742 74.414 Q 438.965 74.512 442.09 74.121 A 87.363 87.363 0 0 0 443.506 73.933 Q 445.741 73.616 447.461 73.242 A 4.237 4.237 0 0 1 448.129 73.292 A 3.072 3.072 0 0 1 448.828 73.486 A 1.685 1.685 0 0 0 449.153 73.584 Q 449.498 73.651 449.922 73.6 A 3.861 3.861 0 0 0 450.293 73.535 A 318.693 318.693 0 0 1 453.748 72.9 A 237.107 237.107 0 0 1 456.885 72.363 A 35.107 35.107 0 0 0 459.216 71.902 A 27.942 27.942 0 0 0 462.305 70.996 Q 464.746 70.117 466.65 68.408 Q 467.841 67.34 468.859 65.681 A 20.164 20.164 0 0 0 470.02 63.477 A 1.685 1.685 0 0 1 469.905 63.492 Q 469.409 63.54 469.189 63.232 A 1.882 1.882 0 0 1 468.979 62.848 A 2.448 2.448 0 0 1 468.848 62.402 A 13.662 13.662 0 0 0 468.782 62.092 A 16.166 16.166 0 0 0 468.604 61.377 A 2.054 2.054 0 0 0 468.066 60.449 A 2.807 2.807 0 0 1 468.03 60.453 Q 467.823 60.473 467.633 60.461 A 1.749 1.749 0 0 1 466.602 60.059 A 8.325 8.325 0 0 1 466.312 59.805 A 9.447 9.447 0 0 1 465.479 58.936 A 58.873 58.873 0 0 1 464.929 58.276 A 70.524 70.524 0 0 1 464.355 57.568 A 3.808 3.808 0 0 0 464.07 57.249 A 3.033 3.033 0 0 0 462.988 56.543 Q 460.742 57.324 458.057 57.666 A 15.407 15.407 0 0 0 455.847 58.105 A 11.399 11.399 0 0 0 453.418 59.082 A 58.857 58.857 0 0 0 452.547 59.061 Q 450.796 59.032 449.418 59.122 A 22.2 22.2 0 0 0 448.242 59.229 A 688.028 688.028 0 0 0 444.238 59.717 A 46.526 46.526 0 0 1 442.994 59.855 A 54.997 54.997 0 0 1 440.088 60.059 A 15.464 15.464 0 0 1 439.996 60.062 Q 438.515 60.119 436.536 59.916 A 45.557 45.557 0 0 1 434.57 59.668 A 42.655 42.655 0 0 1 434.578 59.647 A 38.544 38.544 0 0 1 436.816 54.687 Q 438.086 52.344 439.648 50.293 A 6.504 6.504 0 0 0 440.758 50.553 Q 441.346 50.64 442.002 50.64 A 10.303 10.303 0 0 0 442.334 50.635 A 8.424 8.424 0 0 1 442.606 50.63 Q 443.234 50.63 443.782 50.728 A 4.759 4.759 0 0 1 444.922 51.074 A 1.933 1.933 0 0 1 445.128 50.962 Q 445.758 50.668 446.728 50.739 A 6.207 6.207 0 0 1 447.119 50.781 Q 448.029 50.907 448.677 50.75 A 2.152 2.152 0 0 0 449.316 50.488 A 2.823 2.823 0 0 0 449.434 50.572 Q 449.63 50.704 449.784 50.753 A 0.558 0.558 0 0 0 449.951 50.781 L 450.684 50.781 A 17.074 17.074 0 0 0 451.394 50.796 Q 452.117 50.796 452.795 50.732 A 12.014 12.014 0 0 0 454.932 50.342 A 19.381 19.381 0 0 0 458.545 48.926 A 25.87 25.87 0 0 0 461.816 46.924 A 182.684 182.684 0 0 1 464.941 44.727 Q 465.225 44.016 465.225 43.332 A 3.263 3.263 0 0 0 465.186 42.822 Q 465.039 41.895 464.648 41.113 Q 464.359 41.142 464.09 41.124 A 2.539 2.539 0 0 1 462.939 40.771 A 6.601 6.601 0 0 1 462.397 40.408 A 7.933 7.933 0 0 1 461.523 39.648 A 57.116 57.116 0 0 1 460.156 38.232 A 10.719 10.719 0 0 0 459.558 37.638 A 8.218 8.218 0 0 0 458.789 37.012 Q 458.691 36.621 458.887 36.475 Q 459.058 36.346 459.004 35.956 A 1.938 1.938 0 0 0 458.984 35.84 Q 454.98 35.938 450.83 36.328 Q 448.125 36.583 445.731 36.547 A 35.068 35.068 0 0 1 443.262 36.426 A 1.995 1.995 0 0 1 443.173 36.22 Q 442.977 35.685 443.018 34.912 Q 443.066 33.984 442.676 33.105 A 36.179 36.179 0 0 1 444.434 32.568 A 3.875 3.875 0 0 0 444.727 32.474 A 3.171 3.171 0 0 0 445.898 31.738 A 11.746 11.746 0 0 0 446.438 31.78 Q 447.47 31.836 448.204 31.671 A 3.18 3.18 0 0 0 448.877 31.445 A 2.496 2.496 0 0 1 449.963 31.201 Q 450.252 31.201 450.557 31.263 A 3.858 3.858 0 0 1 451.172 31.445 A 21.954 21.954 0 0 1 453.191 30.358 A 17.871 17.871 0 0 1 457.666 28.906 A 926.369 926.369 0 0 1 464.063 27.783 A 26.386 26.386 0 0 0 464.837 27.638 A 23.332 23.332 0 0 0 469.873 26.025 Q 471.572 25.253 473.018 23.64 A 15.157 15.157 0 0 0 474.609 21.484 A 9.252 9.252 0 0 1 474.545 21.246 Q 474.414 20.738 474.414 20.459 A 4.416 4.416 0 0 1 474.421 20.21 A 3.573 3.573 0 0 1 474.463 19.824 A 24.755 24.755 0 0 0 474.512 19.519 A 31.019 31.019 0 0 0 474.561 19.189 Q 474.599 18.919 474.546 18.434 Z M 492.188 55.371 A 1.743 1.743 0 0 0 491.013 56.217 A 2.215 2.215 0 0 0 490.918 56.396 A 26.967 26.967 0 0 0 490.186 58.105 A 29.994 29.994 0 0 1 489.844 58.948 A 23.802 23.802 0 0 1 489.502 59.717 A 1.625 1.625 0 0 1 489.283 60.071 A 1.002 1.002 0 0 1 488.477 60.449 A 2.936 2.936 0 0 1 488.201 61.39 A 2.693 2.693 0 0 1 487.939 61.816 A 16.071 16.071 0 0 0 487.109 63.037 Q 486.719 63.672 486.523 64.404 Q 486.328 65.137 486.719 66.113 A 2.468 2.468 0 0 0 485.822 67.434 A 3.311 3.311 0 0 0 485.742 67.773 A 33.24 33.24 0 0 1 485.422 69.33 A 29.415 29.415 0 0 1 485.303 69.824 A 4.336 4.336 0 0 1 484.92 70.83 A 3.677 3.677 0 0 1 484.473 71.484 A 1.493 1.493 0 0 1 483.881 71.893 Q 483.326 72.116 482.445 72.077 A 6.563 6.563 0 0 1 482.324 72.07 A 1.781 1.781 0 0 0 482.256 72.168 Q 482.057 72.474 482.227 72.559 A 0.287 0.287 0 0 1 482.329 72.652 Q 482.438 72.805 482.505 73.163 A 3.678 3.678 0 0 1 482.52 73.242 A 4.802 4.802 0 0 0 482.191 73.194 Q 481.483 73.115 481.05 73.312 A 1.157 1.157 0 0 0 480.908 73.389 Q 480.371 73.73 479.59 73.828 A 6.443 6.443 0 0 1 476.514 71.777 Q 475.293 70.313 474.365 68.506 A 40.84 40.84 0 0 1 472.705 64.844 A 50.672 50.672 0 0 0 472.074 63.314 Q 471.774 62.621 471.482 62.015 A 28.478 28.478 0 0 0 471.289 61.621 A 4.873 4.873 0 0 0 471.462 60.507 Q 471.48 60.009 471.387 59.521 A 5.217 5.217 0 0 0 471.16 58.69 Q 470.978 58.197 470.703 57.813 A 1319.187 1319.187 0 0 1 475.708 47.314 A 1613.201 1613.201 0 0 1 481.152 36.133 Q 486.816 24.609 491.895 13.379 A 48.97 48.97 0 0 1 496.338 15.381 A 22.957 22.957 0 0 1 500.1 17.776 A 21.233 21.233 0 0 1 500.342 17.969 Q 502.148 19.434 503.418 21.338 A 10.75 10.75 0 0 1 505.078 25.586 A 2.121 2.121 0 0 1 505.018 25.745 Q 504.846 26.15 504.639 26.025 A 0.381 0.381 0 0 0 504.571 25.993 Q 504.403 25.933 504.26 26.092 A 0.698 0.698 0 0 0 504.199 26.172 A 7.313 7.313 0 0 1 504.354 26.371 Q 504.601 26.703 504.639 26.855 A 0.803 0.803 0 0 1 504.663 27.051 A 0.803 0.803 0 0 1 504.639 27.246 Q 504.595 27.423 504.59 27.718 A 4.494 4.494 0 0 0 504.59 27.783 Q 504.59 28.125 504.883 28.711 Q 504.667 28.657 504.526 28.692 A 0.312 0.312 0 0 0 504.346 28.809 A 0.235 0.235 0 0 1 504.209 28.896 Q 504.035 28.938 503.711 28.809 Q 504.068 29.791 503.976 30.447 A 1.695 1.695 0 0 1 503.955 30.566 A 4.903 4.903 0 0 1 503.73 31.325 A 4.02 4.02 0 0 1 503.516 31.787 Q 503.223 32.324 503.027 32.959 A 1.764 1.764 0 0 0 502.958 33.316 Q 502.915 33.781 503.074 34.388 A 5.27 5.27 0 0 0 503.125 34.57 A 0.934 0.934 0 0 0 502.96 34.584 Q 502.787 34.615 502.686 34.717 A 2.165 2.165 0 0 0 502.538 34.879 A 1.695 1.695 0 0 0 502.441 35.01 A 1.743 1.743 0 0 1 502.316 35.175 A 2.229 2.229 0 0 1 502.197 35.303 Q 502.061 35.439 501.799 35.364 A 0.955 0.955 0 0 1 501.758 35.352 A 23.825 23.825 0 0 1 501.978 38.574 A 23.654 23.654 0 0 1 501.953 39.648 Q 501.855 41.797 501.807 43.994 Q 501.76 46.1 501.848 48.385 A 82.4 82.4 0 0 0 501.855 48.584 Q 501.953 50.977 502.539 53.516 A 16.738 16.738 0 0 0 507.317 49.409 A 16.012 16.012 0 0 0 508.154 48.242 A 29.896 29.896 0 0 0 510.958 42.73 A 34.691 34.691 0 0 0 511.572 41.016 A 50.043 50.043 0 0 0 513.193 34.68 A 58.005 58.005 0 0 0 513.574 32.422 Q 514.258 27.832 515.039 23.047 Q 515.918 22.168 516.406 20.898 Q 516.895 19.629 517.285 18.213 L 518.066 15.381 A 15.12 15.12 0 0 1 518.663 13.627 A 12.757 12.757 0 0 1 519.043 12.793 Q 520.508 12.988 521.533 13.721 A 18.034 18.034 0 0 1 523.438 15.283 Q 524.316 16.113 525.293 16.846 A 4.557 4.557 0 0 0 526.625 17.526 A 6.219 6.219 0 0 0 527.734 17.773 A 71.959 71.959 0 0 1 529.35 20.159 A 62.074 62.074 0 0 1 529.883 20.996 A 9.008 9.008 0 0 1 531.152 24.316 A 5.912 5.912 0 0 0 530.521 25.713 A 6.881 6.881 0 0 0 530.42 26.074 A 43.582 43.582 0 0 1 529.883 28.027 Q 529.59 29.004 529.102 29.834 A 4.231 4.231 0 0 1 528.05 31.022 A 5.064 5.064 0 0 1 527.734 31.25 A 58.829 58.829 0 0 1 527.405 33.679 A 45.236 45.236 0 0 1 527.002 35.889 A 889.582 889.582 0 0 1 526.123 40.039 A 54.766 54.766 0 0 0 525.409 44.15 A 59.5 59.5 0 0 0 525.391 44.287 A 24.947 24.947 0 0 0 525.202 46.444 Q 525.171 47.12 525.171 47.83 A 34.888 34.888 0 0 0 525.195 49.121 A 3102.902 3102.902 0 0 0 524.39 51.44 A 3725.937 3725.937 0 0 0 523.535 53.906 A 59.491 59.491 0 0 0 522.841 56.034 Q 522.542 57.016 522.313 57.91 A 35.222 35.222 0 0 0 522.168 58.496 Q 520.605 59.766 519.727 61.523 Q 518.848 63.281 517.871 65.039 Q 517.495 65.415 517.39 65.248 A 0.165 0.165 0 0 1 517.383 65.234 A 0.287 0.287 0 0 0 517.289 65.132 Q 517.137 65.023 516.778 64.955 A 3.678 3.678 0 0 0 516.699 64.941 Q 516.791 65.31 516.709 65.505 A 0.377 0.377 0 0 1 516.699 65.527 A 1.305 1.305 0 0 1 516.46 65.865 A 1.235 1.235 0 0 1 516.455 65.869 A 0.585 0.585 0 0 0 516.344 66.029 Q 516.287 66.146 516.26 66.309 A 0.733 0.733 0 0 0 516.25 66.405 Q 516.242 66.675 516.403 67.082 A 3.582 3.582 0 0 0 516.406 67.09 A 7.737 7.737 0 0 0 513.965 68.75 A 18.664 18.664 0 0 1 511.67 70.703 Q 510.449 71.582 508.74 71.875 A 4.781 4.781 0 0 1 508.118 71.938 Q 506.558 71.999 504.297 71.191 A 37.586 37.586 0 0 1 497.217 64.453 A 29.798 29.798 0 0 1 493.663 58.823 A 37.101 37.101 0 0 1 492.188 55.371 Z M 645.215 55.371 A 1.743 1.743 0 0 0 644.04 56.217 A 2.215 2.215 0 0 0 643.945 56.396 A 26.967 26.967 0 0 0 643.213 58.105 A 29.994 29.994 0 0 1 642.871 58.948 A 23.802 23.802 0 0 1 642.529 59.717 A 1.625 1.625 0 0 1 642.31 60.071 A 1.002 1.002 0 0 1 641.504 60.449 A 2.936 2.936 0 0 1 641.229 61.39 A 2.693 2.693 0 0 1 640.967 61.816 A 16.071 16.071 0 0 0 640.137 63.037 Q 639.746 63.672 639.551 64.404 Q 639.355 65.137 639.746 66.113 A 2.468 2.468 0 0 0 638.849 67.434 A 3.311 3.311 0 0 0 638.77 67.773 A 33.24 33.24 0 0 1 638.449 69.33 A 29.415 29.415 0 0 1 638.33 69.824 A 4.336 4.336 0 0 1 637.947 70.83 A 3.677 3.677 0 0 1 637.5 71.484 A 1.493 1.493 0 0 1 636.908 71.893 Q 636.353 72.116 635.472 72.077 A 6.563 6.563 0 0 1 635.352 72.07 A 1.781 1.781 0 0 0 635.283 72.168 Q 635.084 72.474 635.254 72.559 A 0.287 0.287 0 0 1 635.356 72.652 Q 635.465 72.805 635.533 73.163 A 3.678 3.678 0 0 1 635.547 73.242 A 4.802 4.802 0 0 0 635.219 73.194 Q 634.51 73.115 634.077 73.312 A 1.157 1.157 0 0 0 633.936 73.389 Q 633.398 73.73 632.617 73.828 A 6.443 6.443 0 0 1 629.541 71.777 Q 628.32 70.313 627.393 68.506 A 40.84 40.84 0 0 1 625.732 64.844 A 50.672 50.672 0 0 0 625.101 63.314 Q 624.801 62.621 624.51 62.015 A 28.478 28.478 0 0 0 624.316 61.621 A 4.873 4.873 0 0 0 624.489 60.507 Q 624.507 60.009 624.414 59.521 A 5.217 5.217 0 0 0 624.187 58.69 Q 624.005 58.197 623.73 57.813 A 1319.187 1319.187 0 0 1 628.735 47.314 A 1613.201 1613.201 0 0 1 634.18 36.133 Q 639.844 24.609 644.922 13.379 A 48.97 48.97 0 0 1 649.365 15.381 A 22.957 22.957 0 0 1 653.127 17.776 A 21.233 21.233 0 0 1 653.369 17.969 Q 655.176 19.434 656.445 21.338 A 10.75 10.75 0 0 1 658.105 25.586 A 2.121 2.121 0 0 1 658.046 25.745 Q 657.874 26.15 657.666 26.025 A 0.381 0.381 0 0 0 657.598 25.993 Q 657.431 25.933 657.288 26.092 A 0.698 0.698 0 0 0 657.227 26.172 A 7.313 7.313 0 0 1 657.381 26.371 Q 657.628 26.703 657.666 26.855 A 0.803 0.803 0 0 1 657.69 27.051 A 0.803 0.803 0 0 1 657.666 27.246 Q 657.622 27.423 657.618 27.718 A 4.494 4.494 0 0 0 657.617 27.783 Q 657.617 28.125 657.91 28.711 Q 657.694 28.657 657.553 28.692 A 0.312 0.312 0 0 0 657.373 28.809 A 0.235 0.235 0 0 1 657.236 28.896 Q 657.063 28.938 656.738 28.809 Q 657.096 29.791 657.003 30.447 A 1.695 1.695 0 0 1 656.982 30.566 A 4.903 4.903 0 0 1 656.757 31.325 A 4.02 4.02 0 0 1 656.543 31.787 Q 656.25 32.324 656.055 32.959 A 1.764 1.764 0 0 0 655.986 33.316 Q 655.943 33.781 656.101 34.388 A 5.27 5.27 0 0 0 656.152 34.57 A 0.934 0.934 0 0 0 655.987 34.584 Q 655.815 34.615 655.713 34.717 A 2.165 2.165 0 0 0 655.565 34.879 A 1.695 1.695 0 0 0 655.469 35.01 A 1.743 1.743 0 0 1 655.343 35.175 A 2.229 2.229 0 0 1 655.225 35.303 Q 655.089 35.439 654.826 35.364 A 0.955 0.955 0 0 1 654.785 35.352 A 23.825 23.825 0 0 1 655.005 38.574 A 23.654 23.654 0 0 1 654.98 39.648 Q 654.883 41.797 654.834 43.994 Q 654.787 46.1 654.875 48.385 A 82.4 82.4 0 0 0 654.883 48.584 Q 654.98 50.977 655.566 53.516 A 16.738 16.738 0 0 0 660.345 49.409 A 16.012 16.012 0 0 0 661.182 48.242 A 29.896 29.896 0 0 0 663.985 42.73 A 34.691 34.691 0 0 0 664.6 41.016 A 50.043 50.043 0 0 0 666.22 34.68 A 58.005 58.005 0 0 0 666.602 32.422 Q 667.285 27.832 668.066 23.047 Q 668.945 22.168 669.434 20.898 Q 669.922 19.629 670.313 18.213 L 671.094 15.381 A 15.12 15.12 0 0 1 671.691 13.627 A 12.757 12.757 0 0 1 672.07 12.793 Q 673.535 12.988 674.561 13.721 A 18.034 18.034 0 0 1 676.465 15.283 Q 677.344 16.113 678.32 16.846 A 4.557 4.557 0 0 0 679.652 17.526 A 6.219 6.219 0 0 0 680.762 17.773 A 71.959 71.959 0 0 1 682.378 20.159 A 62.074 62.074 0 0 1 682.91 20.996 A 9.008 9.008 0 0 1 684.18 24.316 A 5.912 5.912 0 0 0 683.548 25.713 A 6.881 6.881 0 0 0 683.447 26.074 A 43.582 43.582 0 0 1 682.91 28.027 Q 682.617 29.004 682.129 29.834 A 4.231 4.231 0 0 1 681.078 31.022 A 5.064 5.064 0 0 1 680.762 31.25 A 58.829 58.829 0 0 1 680.432 33.679 A 45.236 45.236 0 0 1 680.029 35.889 A 889.582 889.582 0 0 1 679.15 40.039 A 54.766 54.766 0 0 0 678.436 44.15 A 59.5 59.5 0 0 0 678.418 44.287 A 24.947 24.947 0 0 0 678.229 46.444 Q 678.198 47.12 678.198 47.83 A 34.888 34.888 0 0 0 678.223 49.121 A 3102.902 3102.902 0 0 0 677.417 51.44 A 3725.937 3725.937 0 0 0 676.563 53.906 A 59.491 59.491 0 0 0 675.868 56.034 Q 675.57 57.016 675.34 57.91 A 35.222 35.222 0 0 0 675.195 58.496 Q 673.633 59.766 672.754 61.523 Q 671.875 63.281 670.898 65.039 Q 670.522 65.415 670.418 65.248 A 0.165 0.165 0 0 1 670.41 65.234 A 0.287 0.287 0 0 0 670.317 65.132 Q 670.164 65.023 669.806 64.955 A 3.678 3.678 0 0 0 669.727 64.941 Q 669.819 65.31 669.737 65.505 A 0.377 0.377 0 0 1 669.727 65.527 A 1.305 1.305 0 0 1 669.487 65.865 A 1.235 1.235 0 0 1 669.482 65.869 A 0.585 0.585 0 0 0 669.371 66.029 Q 669.314 66.146 669.287 66.309 A 0.733 0.733 0 0 0 669.278 66.405 Q 669.269 66.675 669.43 67.082 A 3.582 3.582 0 0 0 669.434 67.09 A 7.737 7.737 0 0 0 666.992 68.75 A 18.664 18.664 0 0 1 664.697 70.703 Q 663.477 71.582 661.768 71.875 A 4.781 4.781 0 0 1 661.145 71.938 Q 659.585 71.999 657.324 71.191 A 37.586 37.586 0 0 1 650.244 64.453 A 29.798 29.798 0 0 1 646.69 58.823 A 37.101 37.101 0 0 1 645.215 55.371 Z M 712.695 47.559 L 711.621 47.266 A 19.131 19.131 0 0 0 709.111 46.056 A 23.535 23.535 0 0 0 707.422 45.459 A 29.712 29.712 0 0 1 705.502 44.79 Q 704.639 44.454 703.898 44.092 A 16.677 16.677 0 0 1 703.418 43.848 A 3.577 3.577 0 0 1 702.847 44.101 Q 702.092 44.354 701.416 44.141 Q 700.793 43.944 699.927 43.747 A 35.412 35.412 0 0 0 699.023 43.555 A 66.048 66.048 0 0 1 693.4 42.989 A 59.926 59.926 0 0 1 692.627 42.871 Q 689.551 42.383 686.719 41.113 A 3.905 3.905 0 0 0 686.341 40.391 A 3.533 3.533 0 0 0 686.23 40.234 A 0.626 0.626 0 0 0 685.861 40 Q 685.619 39.942 685.27 40.013 A 2.645 2.645 0 0 0 685.156 40.039 Q 684.57 39.258 683.984 38.525 A 11.403 11.403 0 0 1 683.034 37.132 A 12.727 12.727 0 0 1 682.91 36.914 A 59.168 59.168 0 0 0 683.043 36.083 Q 683.105 35.676 683.152 35.32 A 28.271 28.271 0 0 0 683.203 34.912 A 1.768 1.768 0 0 0 683.215 34.705 Q 683.215 33.984 682.617 33.301 A 70.338 70.338 0 0 0 682.8 32.697 Q 683.057 31.836 683.203 31.25 Q 683.385 30.524 683.229 29.375 A 10.118 10.118 0 0 0 683.203 29.199 A 8.598 8.598 0 0 1 685.4 25.684 A 16.398 16.398 0 0 1 688.721 23.193 A 22.986 22.986 0 0 1 692.48 21.484 Q 694.434 20.801 696.191 20.313 A 116.617 116.617 0 0 1 702.084 18.002 A 135.551 135.551 0 0 1 704.541 17.139 A 117.095 117.095 0 0 1 713.623 14.453 A 54.265 54.265 0 0 1 723.145 12.939 Q 726.775 12.685 730.676 13.484 A 34.588 34.588 0 0 1 733.398 14.16 A 6.913 6.913 0 0 0 734.277 16.016 A 57.102 57.102 0 0 0 735.498 17.773 A 23.37 23.37 0 0 1 736.234 18.853 A 19.555 19.555 0 0 1 736.621 19.482 A 4.475 4.475 0 0 1 737.101 20.62 A 3.999 3.999 0 0 1 737.207 21.191 Q 738.184 22.07 738.77 23.096 Q 739.355 24.121 738.965 25.781 A 33.468 33.468 0 0 1 737.645 26.786 A 28.501 28.501 0 0 1 737.061 27.197 A 13.234 13.234 0 0 1 735.059 28.32 A 23.084 23.084 0 0 0 729.584 27.661 A 23.49 23.49 0 0 0 727.734 27.734 A 663.042 663.042 0 0 1 724.427 27.988 Q 722.65 28.119 721.094 28.223 A 2.949 2.949 0 0 0 719.963 27.5 A 2.956 2.956 0 0 0 718.994 27.344 Q 717.773 27.344 716.455 27.734 L 713.818 28.516 Q 712.939 28.776 712.126 28.776 A 4.843 4.843 0 0 1 711.328 28.711 A 4.837 4.837 0 0 1 709.738 29.544 A 6.182 6.182 0 0 1 708.936 29.736 Q 707.52 29.98 705.859 30.176 A 1.368 1.368 0 0 0 705.843 30.279 Q 705.823 30.442 705.854 30.56 A 0.373 0.373 0 0 0 706.055 30.811 Q 706.345 30.956 706.156 31.437 A 1.669 1.669 0 0 1 706.152 31.445 A 3.171 3.171 0 0 0 707.467 32.353 A 3.848 3.848 0 0 0 707.666 32.422 A 71.55 71.55 0 0 0 709.113 32.861 A 82.01 82.01 0 0 0 709.619 33.008 A 9.469 9.469 0 0 1 710.64 33.36 A 7.287 7.287 0 0 1 711.426 33.74 A 2.193 2.193 0 0 1 712.361 34.782 A 3.003 3.003 0 0 1 712.5 35.156 Q 713.965 35.156 715.039 35.84 A 6.253 6.253 0 0 1 716.503 37.115 A 5.817 5.817 0 0 1 716.797 37.5 Q 717.48 38.477 717.822 39.6 A 9.041 9.041 0 0 1 718.044 40.472 Q 718.164 41.08 718.164 41.602 A 2.669 2.669 0 0 0 718.273 41.855 Q 718.493 42.296 718.762 42.296 A 0.352 0.352 0 0 0 718.848 42.285 A 0.546 0.546 0 0 1 718.981 42.269 Q 719.298 42.269 719.674 42.625 A 2.609 2.609 0 0 1 719.727 42.676 A 4.735 4.735 0 0 0 720.194 43.877 Q 720.464 44.37 720.861 44.871 A 9.21 9.21 0 0 0 721.191 45.264 A 10.885 10.885 0 0 1 723.047 48.145 Q 723.215 50.243 723.31 51.944 A 110.188 110.188 0 0 1 723.34 52.49 A 8.273 8.273 0 0 1 723.351 52.914 Q 723.351 54.612 722.656 56.348 A 21.379 21.379 0 0 1 718.604 62.793 Q 716.016 65.625 712.744 67.822 Q 709.473 70.02 705.762 71.582 A 78.162 78.162 0 0 1 700.305 73.651 A 68.198 68.198 0 0 1 698.535 74.219 A 1.605 1.605 0 0 0 698.145 74.17 A 1.605 1.605 0 0 0 697.754 74.219 A 0.525 0.525 0 0 1 697.708 74.228 Q 697.375 74.28 697.559 73.73 A 3.989 3.989 0 0 1 696.579 74.37 A 3.515 3.515 0 0 1 695.85 74.609 Q 694.922 74.805 693.848 74.756 Q 692.773 74.707 691.65 74.609 A 8.455 8.455 0 0 0 690.918 74.577 Q 690.336 74.577 689.797 74.663 A 6.384 6.384 0 0 0 689.551 74.707 A 23.944 23.944 0 0 1 688.828 73.953 A 19.088 19.088 0 0 1 688.33 73.389 A 3.874 3.874 0 0 1 687.806 72.573 A 5.323 5.323 0 0 1 687.5 71.777 A 0.705 0.705 0 0 1 687.328 71.758 Q 687.021 71.681 687.061 71.289 A 1.119 1.119 0 0 0 687.065 71.23 Q 687.085 70.801 686.719 70.801 A 18.803 18.803 0 0 0 686.846 70.586 Q 687.289 69.824 687.258 69.684 A 0.062 0.062 0 0 0 687.256 69.678 A 0.28 0.28 0 0 0 687.186 69.569 Q 687.117 69.5 686.991 69.445 A 1.11 1.11 0 0 0 686.963 69.434 Q 686.719 69.336 686.523 69.189 Q 686.328 69.043 686.426 68.75 A 2.974 2.974 0 0 0 686.721 67.701 Q 686.755 67.352 686.721 66.969 A 4.552 4.552 0 0 0 686.719 66.943 A 491.517 491.517 0 0 1 686.523 64.844 Q 686.426 63.77 686.67 62.793 Q 686.914 61.816 688.086 61.23 A 21.219 21.219 0 0 0 690.566 61.379 A 18.273 18.273 0 0 0 694.385 60.986 A 28.349 28.349 0 0 0 699.918 59.216 A 26.445 26.445 0 0 0 700 59.18 A 55.835 55.835 0 0 0 705.029 56.641 A 60.402 60.402 0 0 1 709.179 54.472 A 54.707 54.707 0 0 1 709.766 54.199 A 4.525 4.525 0 0 1 710.133 53.371 A 3.58 3.58 0 0 1 710.596 52.734 A 11.587 11.587 0 0 1 711.719 51.66 Q 712.305 51.172 712.793 50.586 A 3.094 3.094 0 0 0 713.289 49.739 A 4.063 4.063 0 0 0 713.477 49.121 Q 713.544 48.652 713.357 48.435 A 0.492 0.492 0 0 0 713.135 48.291 Q 712.721 48.153 712.697 47.627 A 1.462 1.462 0 0 1 712.695 47.559 Z M 342.383 21.289 L 342.383 22.461 A 8.896 8.896 0 0 1 344.287 24.951 A 25.303 25.303 0 0 1 345.438 27.529 A 28.296 28.296 0 0 1 345.605 27.979 L 346.777 31.201 A 23.838 23.838 0 0 0 348.145 34.277 A 3.568 3.568 0 0 0 348.037 34.582 Q 347.992 34.735 347.97 34.869 A 1.482 1.482 0 0 0 347.949 35.107 A 1.828 1.828 0 0 0 347.993 35.496 A 2.484 2.484 0 0 0 348.096 35.84 A 7.193 7.193 0 0 1 348.34 36.621 A 1.531 1.531 0 0 1 348.375 36.82 Q 348.411 37.14 348.353 37.601 A 5.978 5.978 0 0 1 348.34 37.695 Q 348.047 41.992 345.557 44.629 A 20.161 20.161 0 0 1 340.414 48.533 A 23.257 23.257 0 0 1 339.551 48.975 A 47.567 47.567 0 0 1 332.778 51.631 A 52.77 52.77 0 0 1 332.031 51.855 Q 328.027 53.027 324.805 54.395 A 0.65 0.65 0 0 0 324.82 54.542 Q 324.867 54.743 325.059 54.778 A 0.489 0.489 0 0 0 325.146 54.785 A 0.335 0.335 0 0 1 325.263 54.804 Q 325.469 54.88 325.391 55.273 Q 327.734 56.738 329.102 57.617 Q 330.469 58.496 331.689 59.082 A 18.67 18.67 0 0 0 333.63 59.879 A 21.442 21.442 0 0 0 334.326 60.107 A 29.795 29.795 0 0 0 335.104 60.336 Q 336.377 60.693 338.281 61.133 A 781.904 781.904 0 0 1 339.481 61.411 Q 340.645 61.681 341.511 61.887 A 210.923 210.923 0 0 1 342.236 62.061 Q 343.652 62.402 344.824 62.646 Q 345.996 62.891 347.217 63.037 A 55.102 55.102 0 0 0 347.891 63.113 Q 348.653 63.195 349.687 63.29 A 214.452 214.452 0 0 0 350.684 63.379 Q 351.563 64.258 352.197 65.479 A 8.532 8.532 0 0 1 352.83 67.043 A 7.308 7.308 0 0 1 353.027 67.92 Q 353.158 68.734 353.158 69.504 A 8.764 8.764 0 0 1 353.125 70.264 Q 353.033 71.323 352.507 71.991 A 2.474 2.474 0 0 1 352.441 72.07 Q 352.534 72.348 352.845 72.319 A 0.734 0.734 0 0 0 352.881 72.314 Q 353.223 72.266 353.613 72.363 Q 353.027 72.754 352.637 73.34 L 351.855 74.512 A 5.506 5.506 0 0 1 351.156 75.367 A 5.014 5.014 0 0 1 350.977 75.537 Q 350.488 75.977 349.609 76.074 A 9.17 9.17 0 0 1 347.425 76.61 Q 345.109 76.899 342.126 76.25 A 24.305 24.305 0 0 1 341.992 76.221 Q 337.402 75.195 330.371 72.461 Q 326.855 71.094 324.658 70.068 A 40.535 40.535 0 0 1 322.727 69.107 Q 321.833 68.63 321.066 68.154 A 23.794 23.794 0 0 1 320.85 68.018 Q 319.238 66.992 317.92 65.82 Q 317.014 65.015 315.853 63.978 A 1875.13 1875.13 0 0 1 314.746 62.988 A 101.506 101.506 0 0 1 314.224 64.822 Q 313.642 66.792 313.141 68.134 A 23.156 23.156 0 0 1 312.842 68.896 A 15.551 15.551 0 0 1 311.804 70.935 Q 311.182 71.973 310.352 73.047 Q 309.392 72.899 308.879 73.142 A 1.009 1.009 0 0 0 308.594 73.34 A 7.026 7.026 0 0 1 307.52 74.219 Q 306.641 74.414 306.25 74.219 A 3.834 3.834 0 0 1 305.821 73.97 A 3.13 3.13 0 0 1 305.566 73.779 A 3.755 3.755 0 0 0 305.282 73.566 Q 305.131 73.463 304.955 73.36 A 6.732 6.732 0 0 0 304.834 73.291 A 1.57 1.57 0 0 0 304.489 73.155 Q 304.099 73.047 303.516 73.047 A 16.407 16.407 0 0 0 303.224 72.019 A 14.037 14.037 0 0 0 303.076 71.582 Q 302.84 70.92 301.824 71.082 A 3.191 3.191 0 0 0 301.758 71.094 Q 301.933 70.395 301.873 69.891 A 1.898 1.898 0 0 0 301.855 69.775 A 7.939 7.939 0 0 0 301.73 69.202 A 6.201 6.201 0 0 0 301.611 68.799 A 8.849 8.849 0 0 1 301.367 67.92 A 1.373 1.373 0 0 1 301.338 67.711 Q 301.318 67.401 301.413 66.994 A 4.263 4.263 0 0 1 301.465 66.797 A 0.664 0.664 0 0 1 300.983 66.587 Q 300.814 66.418 300.684 66.113 A 13.311 13.311 0 0 0 300.048 64.832 A 14.548 14.548 0 0 0 300 64.746 A 182.172 182.172 0 0 1 300.293 63.037 A 153.507 153.507 0 0 1 300.586 61.426 A 25.25 25.25 0 0 1 301.058 59.37 A 21.688 21.688 0 0 1 301.318 58.496 A 28.333 28.333 0 0 0 302.051 55.762 A 4.39 4.39 0 0 0 302.148 54.839 Q 302.148 54.171 301.948 53.479 A 5.941 5.941 0 0 0 301.758 52.93 A 0.826 0.826 0 0 0 301.843 52.986 Q 302.129 53.15 302.298 52.872 A 0.79 0.79 0 0 0 302.344 52.783 A 2.859 2.859 0 0 0 302.472 52.43 Q 302.574 52.081 302.637 51.611 Q 302.734 50.879 302.734 50.146 A 9.092 9.092 0 0 0 302.721 49.642 Q 302.708 49.413 302.683 49.215 A 4.133 4.133 0 0 0 302.637 48.926 A 40.465 40.465 0 0 0 304.248 43.701 Q 304.883 41.016 305.42 38.379 A 204.963 204.963 0 0 1 306.543 33.203 A 25.939 25.939 0 0 1 307.533 29.897 A 22.419 22.419 0 0 1 308.105 28.516 Q 308.843 28.382 309.695 28.547 A 6.372 6.372 0 0 1 310.498 28.76 A 5.423 5.423 0 0 1 311.092 28.994 Q 311.89 29.37 312.109 29.883 Q 314.648 27.93 316.602 25.146 Q 318.555 22.363 320.605 19.727 Q 322.656 17.09 325.146 15.039 A 10.505 10.505 0 0 1 328.983 13.062 A 14.187 14.187 0 0 1 331.445 12.598 A 60.836 60.836 0 0 0 333.92 14.354 A 75.9 75.9 0 0 0 335.791 15.576 A 12.74 12.74 0 0 1 339.746 19.531 A 8.599 8.599 0 0 1 340.383 19.882 Q 340.762 20.114 341.064 20.361 A 10.092 10.092 0 0 0 341.581 20.755 Q 341.853 20.95 342.168 21.153 A 18.282 18.282 0 0 0 342.383 21.289 Z M 148.34 64.551 L 148.145 64.941 A 14.36 14.36 0 0 1 147.217 67.009 A 18.055 18.055 0 0 1 146.436 68.311 Q 145.313 70.02 143.799 71.338 Q 142.285 72.656 140.43 73.535 A 10.167 10.167 0 0 1 136.523 74.512 Q 135.587 74.296 135.102 74.053 A 1.737 1.737 0 0 1 134.814 73.877 Q 134.375 73.535 133.887 73.242 Q 133.594 73.047 133.35 72.9 Q 133.14 72.775 132.966 72.685 A 4.649 4.649 0 0 0 132.91 72.656 L 131.738 72.168 L 132.129 70.898 A 2.864 2.864 0 0 0 132.182 70.635 Q 132.273 70.04 132.031 69.678 A 2.879 2.879 0 0 0 131.834 69.42 Q 131.61 69.155 131.24 68.806 A 16.797 16.797 0 0 0 130.859 68.457 L 130.273 67.871 A 4.329 4.329 0 0 1 129.978 67.546 A 3.389 3.389 0 0 1 129.785 67.285 L 128.125 65.43 L 130.762 64.746 A 12.548 12.548 0 0 0 131.945 64.355 Q 133.106 63.901 133.731 63.318 A 2.766 2.766 0 0 0 134.033 62.988 A 2.722 2.722 0 0 0 134.449 62.182 Q 134.76 61.255 134.693 59.788 A 13.206 13.206 0 0 0 134.668 59.375 A 12.584 12.584 0 0 0 133.731 59.222 Q 132.722 59.099 131.913 59.192 A 5.015 5.015 0 0 0 131.396 59.277 A 46.492 46.492 0 0 0 128.711 59.961 A 43.58 43.58 0 0 1 125.146 60.791 A 19.38 19.38 0 0 1 122.881 61.076 A 24.516 24.516 0 0 1 121.191 61.133 A 22.19 22.19 0 0 1 120.253 61.114 A 18.215 18.215 0 0 1 119.727 61.084 Q 119.043 61.035 118.262 60.938 L 117.285 60.742 A 11.231 11.231 0 0 0 117.212 60.372 Q 117.053 59.641 116.895 59.521 A 3.421 3.421 0 0 1 116.65 59.319 A 4.12 4.12 0 0 1 116.504 59.18 Q 116.016 58.691 115.479 57.861 A 2.168 2.168 0 0 1 115.148 56.91 Q 115.108 56.552 115.164 56.143 A 4.291 4.291 0 0 1 115.234 55.762 A 5.116 5.116 0 0 1 114.809 54.773 A 4.224 4.224 0 0 1 114.648 54.004 A 10.943 10.943 0 0 0 113.77 56.445 L 113.379 57.422 L 112.402 57.617 A 0.427 0.427 0 0 0 112.257 57.74 Q 112.167 57.856 112.109 58.057 A 3.832 3.832 0 0 0 112.062 58.237 Q 112.021 58.413 112.013 58.539 A 0.905 0.905 0 0 0 112.012 58.594 L 111.523 60.254 A 3.931 3.931 0 0 1 111.279 60.479 A 3.267 3.267 0 0 1 111.133 60.596 A 3.421 3.421 0 0 0 110.889 60.798 A 4.12 4.12 0 0 0 110.742 60.938 Q 110.547 61.816 110.254 62.695 A 50.046 50.046 0 0 1 109.851 63.858 A 42.728 42.728 0 0 1 109.668 64.355 A 28.314 28.314 0 0 0 108.937 66.501 A 25.495 25.495 0 0 0 108.838 66.846 Q 108.496 68.066 108.594 69.238 L 108.203 70.313 A 4.384 4.384 0 0 1 107.572 70.936 A 3.693 3.693 0 0 1 107.129 71.24 A 20.689 20.689 0 0 1 105.957 71.875 Q 105.793 72.039 105.524 72.169 A 2.504 2.504 0 0 1 105.42 72.217 A 18.384 18.384 0 0 0 105.258 72.287 Q 105.029 72.388 104.883 72.461 L 104.59 73.535 L 103.418 73.73 A 108.382 108.382 0 0 0 102.921 73.822 Q 102.306 73.937 101.978 74.007 A 11.258 11.258 0 0 0 101.904 74.023 Q 101.465 74.121 100.879 74.121 L 99.902 74.023 A 73.094 73.094 0 0 1 99.396 73.605 Q 98.849 73.15 98.463 72.807 A 19.574 19.574 0 0 1 98.242 72.607 A 8.576 8.576 0 0 0 97.456 71.971 A 10.72 10.72 0 0 0 96.875 71.582 A 12.414 12.414 0 0 1 96.506 71.065 Q 95.973 70.273 95.898 69.824 A 38.811 38.811 0 0 0 95.801 69.263 A 29.799 29.799 0 0 0 95.703 68.75 Q 95.575 68.365 95.51 68.065 A 3.344 3.344 0 0 1 95.459 67.773 A 1.472 1.472 0 0 0 95.412 67.541 Q 95.376 67.418 95.319 67.323 A 0.687 0.687 0 0 0 95.215 67.187 L 93.945 66.016 L 95.02 65.137 L 95.117 63.477 Q 97.07 58.496 99.268 53.906 A 1161.873 1161.873 0 0 1 103.809 44.531 A 137.187 137.187 0 0 0 105.322 41.406 A 137.187 137.187 0 0 1 106.836 38.281 Q 106.744 38.007 106.739 37.646 A 3.052 3.052 0 0 1 106.738 37.598 A 1.865 1.865 0 0 1 106.776 37.237 Q 106.81 37.062 106.877 36.871 A 3.541 3.541 0 0 1 106.934 36.719 A 47.511 47.511 0 0 0 107.684 35.522 Q 108.083 34.863 108.409 34.268 A 25.574 25.574 0 0 0 108.691 33.74 A 204.966 204.966 0 0 0 110.059 31.055 A 74.317 74.317 0 0 1 111.67 27.832 A 21.05 21.05 0 0 1 112.743 26.043 A 27.041 27.041 0 0 1 113.77 24.609 L 115.332 23.926 A 14.936 14.936 0 0 0 115.565 23.846 Q 115.668 23.809 115.781 23.768 A 26.877 26.877 0 0 0 116.016 23.682 A 2.277 2.277 0 0 1 116.542 23.556 A 2.919 2.919 0 0 1 116.895 23.535 L 118.359 23.73 A 14.618 14.618 0 0 0 123.145 20.166 A 41.404 41.404 0 0 0 125.154 17.725 Q 126.101 16.487 127.067 15.06 A 67.813 67.813 0 0 0 127.344 14.648 L 128.32 13.281 L 129.59 14.063 A 3.512 3.512 0 0 0 129.972 14.258 Q 130.38 14.439 130.957 14.6 A 86.792 86.792 0 0 1 131.86 14.856 A 102.558 102.558 0 0 1 132.813 15.137 A 42.382 42.382 0 0 1 135.314 15.77 A 36.724 36.724 0 0 1 136.133 16.016 A 7.077 7.077 0 0 1 137.469 16.581 A 5.413 5.413 0 0 1 138.672 17.48 Q 139.258 19.043 139.355 19.824 Q 139.453 20.605 139.648 21.387 A 117.356 117.356 0 0 1 140.186 24.707 A 32.743 32.743 0 0 1 140.393 26.465 A 44.306 44.306 0 0 1 140.527 28.418 Q 141.016 30.078 141.357 31.689 Q 141.699 33.301 141.992 34.961 A 354.264 354.264 0 0 0 142.847 38.95 A 322.688 322.688 0 0 0 142.969 39.502 Q 143.457 41.699 144.238 43.652 A 10.033 10.033 0 0 1 144.511 43.656 Q 145.056 43.671 145.215 43.75 A 5.312 5.312 0 0 1 146.24 43.457 A 27.217 27.217 0 0 1 146.776 43.365 Q 147.098 43.314 147.461 43.262 L 148.535 43.164 L 148.926 44.141 Q 149.008 44.553 149.647 44.965 A 4.53 4.53 0 0 0 149.902 45.117 A 6.598 6.598 0 0 1 150.562 45.199 Q 151.337 45.338 151.758 45.654 Q 152.344 46.094 152.832 46.582 Q 153.195 46.945 153.558 47.14 A 2.231 2.231 0 0 0 153.613 47.168 L 155.078 47.754 L 154.297 49.219 A 11.588 11.588 0 0 1 152.936 51.15 A 15.419 15.419 0 0 1 151.514 52.588 A 17.202 17.202 0 0 1 147.461 55.273 A 15.827 15.827 0 0 1 147.578 56.108 A 13.684 13.684 0 0 1 147.607 56.396 A 4.619 4.619 0 0 0 147.726 57.087 A 5.683 5.683 0 0 0 147.852 57.52 Q 148.145 59.18 148.34 60.938 A 16.127 16.127 0 0 1 148.438 62.72 A 17.483 17.483 0 0 1 148.34 64.551 Z M 182.617 71.484 L 180.371 72.07 A 124.358 124.358 0 0 1 177.515 72.949 A 155.942 155.942 0 0 1 174.414 73.828 Q 171.191 74.707 167.969 74.707 A 15.821 15.821 0 0 1 164.854 74.419 Q 162.969 74.04 161.502 73.164 A 8.858 8.858 0 0 1 160.254 72.266 A 11.534 11.534 0 0 0 160.016 71.771 Q 159.668 71.094 159.375 70.801 A 7.247 7.247 0 0 1 158.838 69.971 A 2.205 2.205 0 0 1 158.681 69.611 Q 158.559 69.25 158.496 68.75 A 10.457 10.457 0 0 1 156.785 65.939 A 11.967 11.967 0 0 1 156.641 65.576 A 16.313 16.313 0 0 1 155.713 61.865 A 18.85 18.85 0 0 1 155.56 59.466 A 19.488 19.488 0 0 1 155.615 58.008 A 19.521 19.521 0 0 1 156.106 54.851 A 17.669 17.669 0 0 1 156.25 54.297 A 2.553 2.553 0 0 0 156.442 53.79 A 2.2 2.2 0 0 0 156.494 53.516 A 10.195 10.195 0 0 1 156.551 53.128 Q 156.589 52.896 156.641 52.637 A 67.57 67.57 0 0 1 157.471 49.609 A 9.214 9.214 0 0 1 158.073 48.085 A 7.459 7.459 0 0 1 158.691 47.07 A 2.259 2.259 0 0 1 158.496 46.143 Q 158.496 45.654 158.691 45.117 A 14.582 14.582 0 0 1 159.218 43.851 A 12.031 12.031 0 0 1 159.57 43.164 A 1086.21 1086.21 0 0 0 160.534 40.539 Q 161.285 38.483 161.865 36.865 A 238.258 238.258 0 0 1 163.77 31.738 A 282.933 282.933 0 0 0 166.895 23.047 A 92.739 92.739 0 0 0 168.611 17.409 A 110.934 110.934 0 0 0 169.531 13.77 A 33.364 33.364 0 0 1 169.897 13.544 Q 170.41 13.232 170.703 13.086 A 21.591 21.591 0 0 1 170.984 12.994 Q 171.36 12.875 171.64 12.803 A 7.114 7.114 0 0 1 171.68 12.793 A 30.122 30.122 0 0 0 173.456 13.606 Q 174.536 14.061 175.781 14.502 A 19.477 19.477 0 0 0 177.17 14.94 Q 177.869 15.13 178.482 15.228 A 7.671 7.671 0 0 0 179.688 15.332 A 12.989 12.989 0 0 1 180.001 15.534 Q 180.511 15.874 180.664 16.064 A 5.712 5.712 0 0 0 180.908 16.351 A 4.741 4.741 0 0 0 181.055 16.504 A 19.564 19.564 0 0 1 182.554 18.517 A 17.365 17.365 0 0 1 182.91 19.092 A 3.922 3.922 0 0 1 183.37 20.309 Q 183.537 21.12 183.447 22.128 A 9.222 9.222 0 0 1 183.398 22.559 A 7.138 7.138 0 0 1 183.189 22.857 Q 182.758 23.438 182.52 23.438 Q 182.031 25.391 181.494 26.758 A 96.735 96.735 0 0 1 180.371 29.492 A 56.897 56.897 0 0 0 179.102 32.422 Q 178.516 33.887 178.125 36.035 A 4.972 4.972 0 0 0 177.885 36.359 Q 177.775 36.523 177.697 36.673 A 2.166 2.166 0 0 0 177.588 36.914 Q 177.441 37.305 177.246 37.793 A 22.725 22.725 0 0 1 176.983 38.422 A 26.976 26.976 0 0 1 176.807 38.818 A 2.498 2.498 0 0 1 176.108 39.718 A 2.906 2.906 0 0 1 176.074 39.746 A 23.856 23.856 0 0 1 175.832 41.376 Q 175.689 42.144 175.505 42.794 A 10.255 10.255 0 0 1 175.146 43.848 A 127.855 127.855 0 0 1 173.828 46.973 A 79.725 79.725 0 0 0 171.729 52.637 A 21.86 21.86 0 0 0 170.95 55.866 A 29.341 29.341 0 0 0 170.605 59.082 A 2.89 2.89 0 0 1 171.074 58.937 A 2.194 2.194 0 0 1 171.533 58.887 L 172.363 58.887 A 6.456 6.456 0 0 1 173.126 58.935 Q 173.496 58.979 173.907 59.064 A 12.394 12.394 0 0 1 174.414 59.18 Q 177.344 57.617 180.811 57.324 Q 184.277 57.031 187.695 56.934 L 190.43 56.934 A 16.858 16.858 0 0 0 191.984 56.865 A 13.653 13.653 0 0 0 192.969 56.738 Q 193.848 57.227 194.092 57.275 A 1.868 1.868 0 0 0 194.248 57.299 Q 194.473 57.324 194.824 57.324 A 8.118 8.118 0 0 1 195.309 57.338 Q 195.56 57.353 195.777 57.384 A 4.131 4.131 0 0 1 195.996 57.422 Q 196.949 58.295 197.838 58.782 A 6.119 6.119 0 0 0 198.242 58.984 A 23.001 23.001 0 0 0 200.488 59.863 A 40.232 40.232 0 0 1 202.588 60.693 A 8.241 8.241 0 0 1 203.975 61.459 A 9.865 9.865 0 0 1 204.59 61.914 L 205.273 66.113 A 7.772 7.772 0 0 1 205.477 66.386 Q 205.941 67.04 205.859 67.285 A 2.49 2.49 0 0 1 205.823 67.725 Q 205.78 67.966 205.685 68.155 A 1.158 1.158 0 0 1 205.469 68.457 L 205.664 69.531 A 12.734 12.734 0 0 0 204.99 69.684 Q 204.383 69.84 204.001 70.02 A 2.093 2.093 0 0 0 203.662 70.215 Q 203.125 70.605 202.637 71.094 A 23.402 23.402 0 0 1 202.274 71.136 Q 201.935 71.173 201.709 71.185 A 3.705 3.705 0 0 1 201.514 71.191 L 200.879 71.191 A 9.703 9.703 0 0 0 199.771 71.26 Q 199.213 71.324 198.583 71.449 A 21.191 21.191 0 0 0 197.559 71.68 Q 194.922 70.801 192.09 70.801 A 26.175 26.175 0 0 0 190.424 70.856 A 29.975 29.975 0 0 0 189.844 70.898 L 187.5 71.094 A 28.253 28.253 0 0 1 185.107 71.387 Q 183.887 71.484 182.617 71.484 Z M 613.525 70.898 A 4.086 4.086 0 0 0 613.644 70.639 Q 614.318 69.016 613.867 66.309 A 41.058 41.058 0 0 1 613.179 58.879 A 39.266 39.266 0 0 1 613.232 56.836 A 60.473 60.473 0 0 1 614.453 47.51 A 86.051 86.051 0 0 1 616.943 38.281 Q 618.457 33.691 620.215 29.004 A 1.745 1.745 0 0 1 619.386 28.357 A 2.48 2.48 0 0 1 619.092 27.783 A 7.044 7.044 0 0 1 618.854 26.997 A 8.565 8.565 0 0 1 618.652 25.732 A 26.485 26.485 0 0 1 618.555 23.438 L 618.555 21.484 A 4.374 4.374 0 0 1 617.996 21.153 A 3.27 3.27 0 0 1 616.895 19.873 A 9.684 9.684 0 0 1 616.162 17.676 L 615.674 15.332 A 5.052 5.052 0 0 0 614.648 13.184 A 8.427 8.427 0 0 0 614.378 13.188 Q 613.799 13.206 613.293 13.306 A 4.761 4.761 0 0 0 612.158 13.672 A 11.605 11.605 0 0 0 611.781 13.86 A 10.165 10.165 0 0 0 610.303 14.795 A 14.983 14.983 0 0 0 610.251 14.835 A 16.228 16.228 0 0 0 608.691 16.211 A 10.891 10.891 0 0 1 607.031 17.578 Q 607.227 19.238 606.494 20.752 A 48.305 48.305 0 0 1 606.164 21.421 Q 605.647 22.449 605.273 23.047 Q 604.891 23.812 604.898 24.398 A 1.566 1.566 0 0 0 604.932 24.707 A 2.07 2.07 0 0 1 604.961 24.884 Q 605.042 25.525 604.785 26.465 Q 604.688 26.953 604.199 27.1 A 1.486 1.486 0 0 0 604.19 27.102 Q 604.051 27.145 603.943 27.208 A 0.674 0.674 0 0 0 603.613 27.637 A 1.848 1.848 0 0 0 603.542 28.147 Q 603.542 28.383 603.6 28.629 A 2.744 2.744 0 0 0 603.76 29.102 A 2.553 2.553 0 0 1 603.977 30.135 Q 603.977 30.442 603.906 30.762 A 53.773 53.773 0 0 1 601.807 38.477 Q 600.488 42.188 599.805 46.289 A 27.407 27.407 0 0 0 599.716 47.031 A 31.216 31.216 0 0 0 599.561 49.365 A 3356.923 3356.923 0 0 1 599.463 52.539 A 47.253 47.253 0 0 1 599.268 55.615 A 10.879 10.879 0 0 1 599.074 56.874 A 8.253 8.253 0 0 1 598.633 58.301 A 201.289 201.289 0 0 0 598.746 58.777 Q 598.919 59.507 599.119 60.323 A 354.476 354.476 0 0 0 599.561 62.109 A 79.711 79.711 0 0 0 600.781 66.455 Q 601.465 68.652 602.246 70.703 A 21.408 21.408 0 0 0 602.47 71.266 Q 602.811 72.091 603.187 72.794 A 12.094 12.094 0 0 0 604.004 74.121 Q 605.322 74.341 606.75 74.341 A 19.311 19.311 0 0 0 607.715 74.316 A 9.345 9.345 0 0 0 608.779 74.204 A 7.516 7.516 0 0 0 611.182 73.389 A 5.401 5.401 0 0 0 612.318 72.559 A 5.938 5.938 0 0 0 613.525 70.898 Z M 127.441 34.375 L 126.855 35.352 A 40.192 40.192 0 0 0 124.008 38.702 A 46.485 46.485 0 0 0 123.096 39.941 Q 121.289 42.48 120.02 44.727 L 118.848 46.484 A 25.471 25.471 0 0 0 117.773 48.242 A 7.167 7.167 0 0 1 118.556 48.154 A 6.172 6.172 0 0 1 118.896 48.145 A 5.331 5.331 0 0 0 119.737 48.08 A 4.788 4.788 0 0 0 119.922 48.047 Q 122.852 47.852 125.244 47.607 A 48.152 48.152 0 0 0 127.766 47.279 Q 129.099 47.071 130.566 46.777 A 502.546 502.546 0 0 0 129.486 42.245 A 568.496 568.496 0 0 0 129.102 40.674 Q 128.32 37.5 127.441 34.375 Z M 326.318 32.324 A 18.344 18.344 0 0 0 328.711 29.492 Q 329.842 29.849 330.918 30.678 A 10.875 10.875 0 0 1 332.275 31.934 Q 333.984 33.789 334.375 36.816 A 2115.684 2115.684 0 0 1 330.957 38.22 A 2494.175 2494.175 0 0 1 327.344 39.697 A 31.348 31.348 0 0 1 324.545 40.692 A 24.781 24.781 0 0 1 320.215 41.602 Q 320.605 39.453 321.582 37.842 A 18.113 18.113 0 0 1 323.779 34.912 A 63.262 63.262 0 0 1 326.318 32.324 Z"
       vector-effect="non-scaling-stroke"
       id="path867" />
  </g>
</svg>
