<?xml version="1.0" encoding="utf-8"?>
<!-- Generator: Adobe Illustrator 24.1.1, SVG Export Plug-In . SVG Version: 6.00 Build 0)  -->
<svg version="1.1"
	 id="svg870" inkscape:version="0.92.3 (2405546, 2018-03-11)" sodipodi:docname="walterjenkins3.svg" xmlns:cc="http://creativecommons.org/ns#" xmlns:dc="http://purl.org/dc/elements/1.1/" xmlns:inkscape="http://www.inkscape.org/namespaces/inkscape" xmlns:rdf="http://www.w3.org/1999/02/22-rdf-syntax-ns#" xmlns:sodipodi="http://sodipodi.sourceforge.net/DTD/sodipodi-0.dtd" xmlns:svg="http://www.w3.org/2000/svg"
	 xmlns="http://www.w3.org/2000/svg" xmlns:xlink="http://www.w3.org/1999/xlink" x="0px" y="0px" viewBox="0 0 612 76.7"
	 style="enable-background:new 0 0 612 76.7;" xml:space="preserve">
<style type="text/css">
	
		.st0{fill-rule:evenodd;clip-rule:evenodd;fill:#F06543;stroke:#000000;stroke-width:0.5868;stroke-linecap:round;stroke-miterlimit:3.312;}
</style>
<sodipodi:namedview  bordercolor="#666666" borderopacity="1" gridtolerance="10" guidetolerance="10" id="namedview872" inkscape:current-layer="svg870" inkscape:cx="369.56049" inkscape:cy="38.349499" inkscape:pageopacity="0" inkscape:pageshadow="2" inkscape:window-height="986" inkscape:window-maximized="1" inkscape:window-width="1920" inkscape:window-x="-11" inkscape:window-y="-11" inkscape:zoom="0.53035973" objecttolerance="10" pagecolor="#ffffff" showgrid="false">
	</sodipodi:namedview>
<g id="svgGroup">
	<path id="path867" vector-effect="non-scaling-stroke" class="st0" d="M187.8,51.2l-0.3,1c-0.3,0.3-0.5,0.6-0.6,0.8
		c0,0.1-0.1,0.2-0.1,0.3c0,0.1-0.1,0.1-0.2,0.2c0,0-0.1,0.1-0.1,0.1c-0.1,0.6-0.2,1.2-0.6,1.8c-0.1,0.1-0.1,0.3-0.2,0.4
		c0,0.1-0.1,0.2-0.1,0.3c0,0.1,0,0.1,0,0.2c0,0.1,0,0.2,0,0.3c0,0,0,0.1,0,0.1c0,0.1,0,0.2,0,0.3c0,0.3-0.2,0.6-0.4,0.7
		c0,0.1,0,0.3,0,0.4c0,0.1,0,0.3,0,0.4c0,0,0,0,0,0c0,0.2-0.1,0.4-0.1,0.6c0,0.1,0,0.1,0,0.2c-0.2,0.6-0.2,1.2-0.2,1.5
		c0.1,0.1,0.1,0.2,0.2,0.3c0.1,0.1,0.1,0.2,0.2,0.2c0,0,0,0,0.1,0.1c0.1,0.1,0.2,0.3,0.3,0.6c0,0,0,0.1,0,0.1
		c0.2,0.2,0.4,0.3,0.6,0.3c0,0,0.1,0,0.1,0.1c0.2,0.1,0.5,0.3,0.8,0.5c0,0,0.1,0,0.1,0.1l0.7,0.8c0,0.2,0.1,0.4,0.1,0.7
		c0.1,0.6,0,1.2-0.1,1.7c-0.1,0.5-0.4,1-0.7,1.3c-0.8,1-2.2,1.5-4.1,1.5h-1c-0.2-0.2-0.4-0.4-0.4-0.5c0,0,0-0.1-0.1-0.1
		c-0.1,0-0.2-0.1-0.3-0.1c-0.3-0.1-0.5-0.2-0.7-0.3c-0.2-0.1-0.5-0.3-0.6-0.5c0,0-0.1-0.1-0.1-0.1c-0.7-0.3-1.3-0.6-1.7-0.8
		l-0.7-0.4v-1c-0.4-0.5-0.7-1-0.8-1.6c-0.2-0.6-0.3-1.2-0.4-1.8c-0.1-0.3-0.2-0.7-0.3-1c0-0.1-0.1-0.2-0.1-0.3
		c-0.1-0.2-0.2-0.5-0.3-0.7c-0.1-0.2-0.2-0.3-0.3-0.5c0-0.4,0-0.8,0-1.2c0-2.6,0.3-4.8,0.9-6.7c0.6-1.8,1.2-3.7,1.9-5.5
		c0.1-0.3,0.2-0.5,0.3-0.8c0.4-1.1,0.9-2.2,1.3-3.3c0.4-1.1,0.8-2.3,1.1-3.4l0.7-0.8c0.1-0.2,0.2-0.4,0.3-0.6
		c0.3-0.6,0.5-1.1,0.7-1.5c0.2-0.6,0.5-1.1,0.7-1.7c0,0,0,0,0-0.1c0.1-0.3,0.2-0.5,0.3-0.8c0-0.1,0.1-0.2,0.1-0.3
		c0.1-0.3,0.3-0.7,0.4-0.9c-0.2,0-0.3,0-0.5,0c-0.1,0-0.3,0-0.4,0c-0.3,0-0.5,0.1-0.8,0.1c-0.3,0.1-0.6,0.1-0.9,0.1
		c-0.3,0-0.5,0-0.8,0c-0.1,0-0.2,0-0.3,0c-0.2,0-0.4,0-0.5-0.1c-0.5,0.2-1.1,0.4-1.7,0.4c-0.1,0-0.2,0-0.2,0h-0.8
		c-0.1,0-0.2,0-0.3,0c-0.1,0-0.1,0-0.2,0c-0.1,0-0.1,0-0.2,0c-0.1,0-0.1,0-0.2,0c0,0,0,0,0,0c-0.2,0-0.3,0-0.5,0
		c-0.2,0-0.3,0-0.5,0.1c-0.1,0-0.2,0.1-0.3,0.1h-1.9h-0.8c0,0-0.1,0-0.1,0c0,0-0.1,0-0.1,0c0,0-0.1,0-0.1,0c-0.1,0-0.2,0-0.3,0
		c0,0-0.1,0-0.1,0c-0.2,0-0.5,0-0.7,0c-0.2,0-0.3,0-0.5-0.1c-0.4-0.1-0.9-0.3-1.4-0.5c-0.6-0.8-1.1-1.3-1.3-1.4c0,0,0,0,0,0l-0.7-1
		c-0.1-0.3-0.1-0.6-0.2-0.9c-0.1-0.2-0.1-0.3-0.2-0.5c-0.1-0.2-0.1-0.3-0.2-0.5c0,0,0,0,0,0c-0.2-0.5-0.4-1.1-0.6-1.7
		c-0.1-0.3-0.2-0.6-0.2-0.9c0-0.3-0.1-0.6-0.1-1c0-0.1,0-0.2,0-0.4c0.1-0.4,0.2-0.8,0.3-1c0,0,0,0,0,0c0.1-0.1,0.1-0.2,0.2-0.2
		c0.1-0.1,0.1-0.1,0.2-0.2c0,0,0.1-0.1,0.1-0.1l0.2-1.2l1.1,0.1h2.3c1.7,0,3.5-0.1,5.3-0.2c1.7-0.1,3.4-0.3,5.1-0.4
		c0.1,0,0.2,0,0.4,0c1.1-0.1,2.2-0.2,3.3-0.3c0.9-0.1,1.7-0.2,2.6-0.2c0.3,0,0.6-0.1,0.9-0.1c0.2-0.3,0.3-0.7,0.5-1
		c0.1-0.1,0.1-0.2,0.2-0.3l0.8-0.4c0.9-0.1,1.6,0.1,2,0.3c0,0,0.1,0,0.1,0.1c0.2,0.1,0.3,0.2,0.5,0.4c0.1,0.1,0.3,0.2,0.4,0.4
		c0,0,0.1,0.1,0.1,0.1c1.2-0.1,2.4-0.2,3.6-0.4c1.2-0.1,2.5-0.3,3.7-0.5c1.8-0.3,3.7-0.5,5.5-0.7c1.4-0.2,2.7-0.3,4.1-0.3
		c0.4,0,0.9,0,1.3,0c0.6,0,1.3,0,1.9,0.1c0.1,0,0.2,0,0.3,0c0.7,0.1,1.3,0.1,1.9,0.2l0.8,0.6c0.1,0.3,0.3,0.5,0.5,0.7
		c0.1,0.1,0.1,0.1,0.2,0.2c0.3,0.3,0.6,0.5,0.9,0.8c0.4,0.4,0.7,0.7,1.1,1.1c0.3,0.3,0.6,0.7,0.8,1c0.2,0.2,0.3,0.5,0.4,0.7
		c0.1,0,0.2,0,0.3-0.1c0.6-0.1,1.2-0.3,1.7-0.4c0.9-0.3,1.8-0.6,2.7-0.8c0.8-0.2,1.6-0.4,2.4-0.6c0.2-0.1,0.5-0.1,0.7-0.2
		c1.7-0.4,3.3-0.7,5-0.9c1.3-0.2,2.5-0.4,3.8-0.5c0.4-0.1,0.9-0.1,1.3-0.2c0.8-0.1,1.7-0.2,2.5-0.3c1.1-0.2,2.3-0.4,3.6-0.6
		c0.1,0.1,0.3,0.2,0.4,0.4c0.1,0.1,0.3,0.2,0.4,0.3c0.2,0.1,0.4,0.1,0.5,0.1c0-0.1,0.1-0.1,0.1-0.2c0.2-0.3,0.4-0.4,0.7-0.3
		c0,0,0,0,0,0c0,0,0,0,0.1,0c0.2,0.1,0.3,0,0.3-0.5c0.5,0.9,1.2,1.7,2.1,2.3c0.8,0.6,1.6,1.1,2.5,1.5c0.1,0,0.2,0.1,0.3,0.1
		c0,0.1,0,0.1,0,0.2c0,0.3,0,0.5,0,0.6c0,0.1,0,0.2,0,0.3c0,0.1,0,0.2,0,0.3c0,0.1,0,0.2,0,0.3c0,0.1,0,0.1,0,0.2
		c0,0.2,0,0.4,0.1,0.7c0,0.1,0,0.1,0.1,0.2c-0.4,0.6-0.8,1.2-1.3,1.8c-0.8,0.9-1.7,1.5-2.6,2c-1.3,0.6-2.7,1-4.2,1.3
		c-0.2,0-0.4,0.1-0.6,0.1c-1.8,0.3-3.5,0.6-5.3,0.9c-1.3,0.2-2.5,0.6-3.7,1.2c-0.6,0.3-1.1,0.6-1.7,0.9c-0.2-0.1-0.3-0.1-0.5-0.2
		c-0.2,0-0.3-0.1-0.5-0.1c-0.3,0-0.6,0.1-0.9,0.2c-0.2,0.1-0.4,0.1-0.6,0.2c-0.4,0.1-0.9,0.1-1.5,0.1c-0.1,0-0.3,0-0.4,0
		c-0.3,0.3-0.6,0.5-1,0.6c-0.1,0-0.2,0.1-0.2,0.1c-0.5,0.1-1,0.3-1.5,0.4c0.2,0.5,0.3,1,0.3,1.5c0,0.4,0,0.8,0.1,1.1
		c0,0.1,0,0.1,0.1,0.2c0.7,0.1,1.4,0.1,2,0.1c1.3,0,2.7,0,4.2-0.2c2.3-0.2,4.5-0.3,6.8-0.4c0,0,0,0.1,0,0.1c0,0.2,0,0.4-0.1,0.4
		c-0.1,0.1-0.1,0.2-0.1,0.4c0.2,0.2,0.4,0.3,0.6,0.5c0.2,0.2,0.3,0.3,0.5,0.5c0.4,0.4,0.7,0.8,1.1,1.2c0.2,0.2,0.5,0.4,0.7,0.6
		c0.1,0.1,0.3,0.2,0.4,0.3c0.3,0.2,0.6,0.3,1,0.3c0.1,0,0.3,0,0.5,0c0.2,0.4,0.4,0.9,0.4,1.4c0,0.1,0,0.3,0,0.4
		c0,0.4-0.1,0.8-0.2,1.2c-0.9,0.6-1.7,1.2-2.6,1.8c-0.9,0.6-1.8,1.2-2.7,1.7c-1,0.5-2,0.9-3,1.2c-0.6,0.2-1.2,0.3-1.8,0.3
		c-0.4,0-0.8,0.1-1.2,0.1c-0.2,0-0.4,0-0.6,0H230c0,0-0.1,0-0.1,0c-0.1,0-0.2-0.1-0.3-0.1c0,0-0.1,0-0.1-0.1
		c-0.2,0.1-0.3,0.2-0.5,0.2c-0.4,0.1-0.8,0.1-1.3,0c-0.1,0-0.2,0-0.3,0c-0.5,0-1,0-1.3,0.2c-0.1,0-0.1,0.1-0.2,0.1
		c-0.3-0.1-0.6-0.2-0.9-0.3c-0.3-0.1-0.6-0.1-1-0.1c-0.1,0-0.2,0-0.2,0c-0.1,0-0.2,0-0.3,0c-0.4,0-0.7,0-1-0.1
		c-0.3,0-0.6-0.1-0.9-0.2c-0.9,1.1-1.6,2.3-2.3,3.6c-0.7,1.3-1.3,2.7-1.9,4.1c0,0,0,0,0,0c0.5,0.1,1.1,0.1,1.6,0.2
		c1.1,0.1,2,0.2,2.9,0.1c0,0,0.1,0,0.1,0c0.8,0,1.6-0.1,2.4-0.2c0.3,0,0.7-0.1,1-0.1c1.1-0.1,2.2-0.3,3.3-0.4c0.3,0,0.6-0.1,1-0.1
		c0.8,0,1.6-0.1,2.6-0.1c0.2,0,0.5,0,0.7,0c0.6-0.3,1.3-0.6,2-0.8c0.6-0.2,1.2-0.3,1.8-0.4c1.5-0.2,2.8-0.5,4.1-0.9
		c0.3,0.1,0.6,0.3,0.9,0.6c0.1,0.1,0.2,0.2,0.2,0.3c0.2,0.2,0.3,0.4,0.5,0.6c0.2,0.2,0.3,0.4,0.5,0.5c0.2,0.3,0.4,0.5,0.7,0.7
		c0.1,0.1,0.2,0.1,0.2,0.2c0.2,0.2,0.5,0.3,0.9,0.3c0.1,0,0.2,0,0.3,0c0,0,0,0,0,0c0.2,0.2,0.4,0.5,0.4,0.8c0.1,0.2,0.1,0.4,0.1,0.6
		c0,0.1,0,0.2,0.1,0.3c0,0.1,0.1,0.2,0.1,0.4c0,0.1,0.1,0.2,0.2,0.3c0.1,0.2,0.3,0.2,0.6,0.2c0,0,0.1,0,0.1,0
		c-0.3,0.6-0.6,1.2-1,1.8c-0.6,0.9-1.2,1.7-1.8,2.3c-1.1,0.9-2.3,1.7-3.6,2.1c-0.8,0.3-1.7,0.5-2.6,0.8c-0.6,0.1-1.3,0.3-1.9,0.4
		c-0.9,0.1-1.7,0.3-2.6,0.4c-1,0.2-1.9,0.3-2.9,0.5c-0.1,0-0.2,0-0.3,0.1c-0.2,0-0.4,0-0.6,0c-0.1,0-0.2,0-0.3-0.1
		c-0.2-0.1-0.4-0.1-0.6-0.2c-0.2,0-0.4,0-0.6,0c-0.9,0.2-2,0.4-3.3,0.6c-0.4,0.1-0.8,0.1-1.2,0.2c-1.7,0.2-3.5,0.3-5.3,0.2
		c-1.5,0-3-0.2-4.5-0.5c-0.2,0-0.4-0.1-0.6-0.1c-0.7-0.2-1.5-0.5-2.1-0.8c-0.7-0.4-1.3-0.8-1.8-1.3c-0.4-0.4-0.7-0.8-0.8-1.3
		c-0.1-0.4-0.3-0.7-0.6-0.9c-0.1-0.1-0.3-0.2-0.5-0.3c0-0.4-0.1-0.7-0.1-1.1c-0.1-0.4-0.1-0.8-0.2-1.2c0,0,0-0.1,0-0.1
		c-0.1-0.7-0.2-1.3-0.4-2c0-0.2-0.1-0.5-0.1-0.7c-0.2-0.9-0.3-1.9-0.4-2.8c-0.1-0.9,0-1.8,0.1-2.5c0.2-0.8,0.5-1.5,1-2.2
		c0.5-0.6,0.7-1.3,0.5-2.1c0,0,0,0,0,0c0.1,0,0.1,0,0.2-0.1c0.1-0.1,0.2-0.2,0.3-0.4c0-0.1,0.1-0.1,0.1-0.2c0.1-0.1,0.3-0.1,0.5-0.1
		c0,0,0,0,0,0c0.2-0.7,0.5-1.4,0.8-2.1c0.1-0.2,0.2-0.4,0.3-0.7c0.4-0.8,0.8-1.7,1.2-2.5c0.4-0.8,0.8-1.6,1.2-2.5
		c0.2-0.5,0.5-1,0.7-1.5c0.2-0.4,0.3-0.9,0.5-1.3c-0.4-0.4-0.8-0.8-1.1-1.2c-0.2-0.3-0.4-0.7-0.6-1.1c-0.3-0.7-0.5-1.4-0.7-2.2
		c0-0.1,0-0.2-0.1-0.3c-0.2-0.9-0.3-1.7-0.4-2.6c-0.1-0.4-0.1-0.9-0.2-1.3c-0.4,0-0.8,0-1.3,0.1c-0.7,0-1.3,0.1-2,0.2
		c-1.5,0.2-3.1,0.4-4.6,0.6c-0.8,0.1-1.6,0.2-2.4,0.3c-0.3,0-0.5,0.1-0.8,0.1c-0.5,0.1-0.9,0.1-1.4,0.1c-0.4,0-0.9,0.1-1.3,0.1
		c-0.2,0.5-0.3,1.1-0.5,1.6c-0.2,0.5-0.4,1-0.5,1.4c0,0.1-0.1,0.1-0.1,0.2c-0.4,0.9-0.8,1.8-1.2,2.7c-0.4,0.9-0.8,1.8-1.2,2.8
		c-0.3,0.7-0.5,1.4-0.7,2c-0.1,0.3-0.2,0.7-0.3,1c-0.2,0.4-0.5,0.8-0.7,1.2c-0.2,0.4-0.4,0.7-0.6,1.1c0,0,0,0.1-0.1,0.1
		c-0.2,0.5-0.4,0.9-0.6,1.4c-0.1,0.4-0.2,0.7-0.3,1.1c-0.4,0.5-0.8,1.1-1.1,1.8c-0.1,0.3-0.2,0.5-0.3,0.8c-0.2,0.7-0.4,1.3-0.6,1.8
		C187.9,50.8,187.9,51,187.8,51.2z M51.9,48.6l3.9-3c0.5-0.4,1-0.8,1.4-1.3c0.6-0.6,1.1-1.3,1.7-2.1c0.5-0.8,1-1.6,1.5-2.4
		c0.5-0.9,1-1.8,1.4-2.7c0.9-1.9,1.9-4,2.8-6.2c0.9-2.3,1.9-4.6,2.7-6.9c0.6-1.7,1.3-3.4,2-5.1c0.5-1.2,1-2.5,1.5-3.7
		c0.2-0.4,0.3-0.8,0.5-1.2c0.3-0.7,0.7-1.5,1-2.2c0.3-0.7,0.7-1.3,1-2c0.3-0.5,0.6-1,0.8-1.5c0.4-0.6,0.8-1.2,1.1-1.7
		c0.7,0.4,1.4,0.9,2,1.4c0.6,0.4,1.2,0.9,1.7,1.4c1.1,0.9,2,1.9,2.7,3c0.8,1.1,1.4,2.4,1.9,3.8c0.2,0.7,0.4,1.3,0.5,2
		c0.2,0.9,0.4,1.9,0.5,3c-1.2,2.3-2.3,4.6-3.3,7c-1,2.4-2.1,4.8-3.1,7.2c-1.3,3.1-2.6,6.2-4,9.3c-1.4,3.1-2.9,6.1-4.6,8.9
		c-1.7,2.8-3.5,5.4-5.6,7.7c-2.1,2.3-4.5,4.3-7.2,5.9C56.5,67.1,56,67,55.6,67c-0.1,0-0.3,0-0.4,0c-0.2,0-0.4,0-0.6,0
		c-0.3,0-0.6,0.1-0.9,0.2c-0.4,0.2-0.8,0.4-1.1,0.6c-2.2-1-4-2.6-5.3-4.6c-0.9-1.3-1.7-2.6-2.5-4c-0.5-0.9-1-1.8-1.5-2.7
		c-0.2-0.4-0.3-0.7-0.5-1.1c-0.1-0.3-0.3-0.5-0.4-0.8c-0.1-0.1-0.1-0.2-0.2-0.3l-1.4-2.5l-0.8-1.5l-1.1,1.1l-1.7,1.5l-1,1
		c-1.7,1.6-3.4,3.1-5.1,4.6c-1.7,1.5-3.5,2.8-5.4,4c-1.9,1.2-3.9,2.2-6,3c-1.9,0.7-3.9,1.1-5.9,1.2c-0.3,0-0.6,0-0.9,0
		c-0.4-0.2-0.8-0.4-1.2-0.6c-0.3-0.1-0.6-0.3-0.9-0.4c0,0-0.1,0-0.1-0.1c-0.9-0.5-1.8-0.9-2.5-1.3c-0.2-0.1-0.4-0.3-0.6-0.4
		c-0.3-0.2-0.5-0.4-0.8-0.6c-0.6-0.5-1.2-1.1-2-1.8c0,0,0,0-0.1-0.1c-0.2-0.4-0.4-0.9-0.6-1.3C4,60,3.9,59.9,3.9,59.7
		c-0.1-0.3-0.3-0.5-0.4-0.8c-0.1-0.2-0.3-0.5-0.4-0.7c-0.6-1.1-1.1-2.1-1.5-3c-0.1-0.1-0.1-0.3-0.2-0.4c-0.3-0.5-0.5-1.1-0.7-1.6
		C0.5,52.6,0.2,52,0,51.4c0,0,0-0.1,0-0.1c0.1-0.8,0.4-2.2,0.8-4.1c0-0.2,0.1-0.3,0.1-0.5c0.2-1.1,0.4-2.3,0.7-3.4
		C1.8,42,2,40.8,2.3,39.5C2.8,37,3.4,34.4,4,31.7c0.5-2,1-3.8,1.4-5.4c0.1-0.5,0.3-0.9,0.5-1.4c0.3-0.9,0.6-1.7,0.9-2.6
		c0.3-0.9,0.7-1.8,1-2.7c0.7-1.9,1.5-3.6,2.4-5.2c0.4-0.8,0.9-1.5,1.4-2.2c0.5-0.7,1-1.3,1.5-1.9c0.4-0.4,0.8-0.8,1.2-1.1
		c0.6-0.4,1.2-0.7,1.8-0.9c0.1,0,0.2-0.1,0.4-0.1c0.2,0.2,0.3,0.4,0.5,0.6c0.2,0.2,0.4,0.3,0.6,0.4c0.3,0.2,0.6,0.4,0.9,0.5
		c0,0,0.1,0,0.1,0.1c0.4,0.5,0.8,1.1,1.2,1.6c0.4,0.5,0.8,1,1.2,1.4c0.1,0.1,0.2,0.2,0.3,0.3c0.5,0.5,1,1,1.6,1.5
		c0.5,0.4,1,0.8,1.5,1.1c-0.2,0.8-0.4,1.7-0.6,2.5c-0.2,0.9-0.5,1.9-0.8,2.9c-0.6,2-1.3,3.9-1.9,5.9c-0.6,1.7-1.2,3.4-1.7,5.1
		c-0.1,0.2-0.2,0.5-0.2,0.7c-0.6,1.9-1.2,3.5-1.5,4.8c-0.1,0.5-0.3,1-0.4,1.5c-0.1,0.5-0.3,1.1-0.4,1.6c0,0.2-0.1,0.4-0.1,0.6
		c-0.3,1.2-0.6,2.6-0.8,4.3c-0.2,0.9-0.3,1.8-0.4,2.6c-0.1,1-0.3,1.9-0.4,2.9c0.3-0.1,0.6-0.2,0.9-0.4c0.5-0.2,1-0.5,1.6-0.9
		c0.8-0.5,1.6-1.1,2.3-1.8c0.1-0.1,0.2-0.2,0.3-0.3c1-0.8,1.9-1.7,2.8-2.6c0.5-0.5,1-1,1.5-1.6c0.5-0.5,0.9-0.9,1.3-1.4
		c0.1-0.1,0.3-0.3,0.4-0.4c0.9-1,1.7-2.1,2.4-3.2c0.4-0.6,0.7-1.2,1.1-1.7c0.4-0.6,0.8-1.3,1.2-1.9c0.3-0.5,0.6-1.1,0.9-1.6
		c0.6-0.9,1.2-2,1.8-3.1c0.5-0.8,1-1.6,1.5-2.4c0.5-0.9,1-1.7,1.5-2.6c0.9-1.5,1.8-3,2.8-4.5c0.1-0.2,0.3-0.4,0.4-0.6
		c0.6-1,1.3-1.9,2-2.9c0.4-0.5,0.8-1.1,1.2-1.6c0.3-0.5,0.7-0.9,1.1-1.4c0.3-0.4,0.7-0.8,1-1.1c0.2-0.2,0.5-0.5,0.7-0.7
		c0.3,0.3,0.6,0.6,1,0.9c0.4,0.3,0.7,0.6,1.1,0.9c0.6,0.5,1.3,0.9,2.1,1.2c0.1,0.1,0.3,0.1,0.4,0.1c0.4,0.6,0.7,1.1,1.1,1.6
		c0.3,0.4,0.6,0.8,0.9,1.2c0,0.1,0.1,0.1,0.1,0.2c0.2,0.3,0.4,0.6,0.6,0.8c0.2,0.3,0.4,0.5,0.6,0.8c0.3,0.4,0.5,0.8,0.8,1.3
		c0.1,0.1,0.1,0.2,0.2,0.3c0,0.1,0,0.3-0.1,0.4c-0.1,0.4-0.1,0.8-0.2,1.3c-0.1,0.4-0.1,0.7-0.2,1.1c-0.1,0.4-0.2,0.8-0.2,1.2
		c-0.2,0.9-0.3,1.7-0.5,2.5c-0.2,0.7-0.3,1.5-0.5,2.2c0,0.1,0,0.2-0.1,0.3c-0.4,1.9-0.7,3.4-1,4.5c-0.1,0.3-0.1,0.6-0.2,1
		c-0.3,1.2-0.5,2.2-0.6,2.9c-0.1,0.5-0.1,0.9-0.2,1.3c0,0.2,0,0.3,0,0.5c0,0.1,0,0.3,0,0.4c0,0.4,0,1,0,1.6c0,0.7,0.1,1.3,0.2,1.9
		c0.1,0.6,0.2,1.2,0.4,1.8C51.3,47.5,51.5,48.1,51.9,48.6z M319,65.7h-0.2c-0.6,0.1-1.2,0.2-1.8,0.3c-0.2,0-0.4,0.1-0.6,0.1
		c-0.7,0.2-1.5,0.4-2.2,0.6c-0.3,0.1-0.6,0.2-1,0.2c-0.2,0-0.3,0.1-0.5,0.1c-0.2,0-0.4,0.1-0.5,0.1c-0.6-0.1-1.3-0.3-1.9-0.4
		c-0.3,0-0.6-0.1-0.8-0.1c-0.4,0-0.7-0.1-1.1-0.1c-0.5,0-0.9-0.1-1.3-0.1l-1.2-0.3c-0.6-0.2-1.1-0.4-1.5-0.5s-0.6-0.2-0.9-0.3
		c-0.3-0.1-0.5-0.1-0.9-0.2c-0.1,0-0.1,0-0.2,0c-0.1,0-0.2,0-0.3,0c-0.3,0-0.6-0.1-0.9-0.1c-0.2,0-0.3,0-0.5-0.1
		c-0.9,0.4-1.8,0.6-2.7,0.6c-0.4,0-0.8,0-1.2-0.1c-0.2,0-0.4-0.1-0.6-0.2c-0.3-0.1-0.7-0.2-1-0.4c-0.3-0.2-0.6-0.4-1-0.7
		c-0.3-0.3-0.6-0.6-0.8-0.9c-0.4-0.4-0.7-0.9-1-1.5c-0.3-0.4-0.5-0.9-0.7-1.4c-0.3-0.7-0.6-1.6-0.9-2.5c0.1-0.4,0.1-0.9,0.2-1.3
		c0.1-0.7,0.2-1.3,0.4-1.9c0.1-0.3,0.1-0.5,0.2-0.8c0.1-0.5,0.3-1,0.4-1.3c0,0,0,0,0,0l0.6-0.7c0.6-0.2,1.2-0.4,1.9-0.5
		c0.5-0.1,1-0.1,1.4-0.1c1.2,0,2.3,0.2,3.5,0.6c1.1,0.4,2.3,0.8,3.4,1.2c0.1,0.1,0.2,0.1,0.3,0.2c0.3,0.1,0.6,0.3,0.7,0.3l0.5,0.2
		c0,0,0.1,0,0.1,0c0.1,0,0.2,0,0.3,0h1c0.2,0,0.4,0,0.6,0c0.1,0,0.1,0,0.2,0c0.2,0,0.3,0,0.5-0.1c0.1,0,0.2,0,0.3-0.1l1,0.1
		c0.2,0.1,0.5,0.2,0.7,0.3c0.2,0,0.4,0.1,0.7,0.1c0.3,0,0.6,0,0.9-0.1c0.1,0,0.2,0,0.3-0.1c0.4-0.1,0.8-0.2,1.2-0.3c0,0,0.1,0,0.1,0
		c0.2-0.1,0.3-0.1,0.5-0.2c0.2-0.1,0.5-0.1,0.7-0.2c0.2,0,0.4-0.1,0.6-0.1c0.1,0,0.2-0.1,0.3-0.1l0.8-0.7c0.2-0.1,0.4-0.2,0.5-0.2
		c0.2-0.1,0.3-0.2,0.4-0.3c0.1-0.1,0.2-0.1,0.3-0.2c0.3-0.3,0.6-0.6,0.8-0.9c0.2-0.4,0.4-0.7,0.6-1.1c0.2-0.3,0.4-0.7,0.7-1.1
		c0,0,0-0.1,0.1-0.1c0.3-0.3,0.5-0.6,0.8-1c0.2-0.3,0.5-0.6,0.8-0.9v-0.8c0.9-2,1.6-4,2.3-6.1c0.6-2,1.2-4.1,1.7-6.1
		c0.4-1.7,0.8-3.5,1.1-5.3c0-0.2,0.1-0.5,0.1-0.7c0.2-0.9,0.3-1.8,0.5-2.7c0.2-0.9,0.3-1.7,0.4-2.5c0,0,0,0,0-0.1
		c-0.2,0-0.3,0-0.5,0c-0.1,0-0.2,0-0.3,0c0,0-0.1,0-0.1,0c-0.4,0-0.8,0-1.2,0c-0.9,0-1.8,0-2.5,0.1c-0.1,0-0.2,0-0.3,0
		c-0.6,0-1.1,0.1-1.7,0.1c-0.4,0-0.8,0.1-1.2,0.1c-0.6,0.1-1.3,0.2-1.9,0.3c-0.3,0-0.5,0.1-0.8,0.1c-0.3,0.1-0.5,0.1-0.8,0.1
		c-0.8,0.2-1.8,0.3-2.8,0.5l-1.4,0.2c-0.7,0.3-1.4,0.7-2.1,1c-0.3,0.1-0.5,0.2-0.8,0.4c-0.9,0.4-1.9,0.6-3,0.6
		c-1.5,0-2.9-0.6-3.9-1.6c-0.1-0.1-0.2-0.2-0.3-0.3c-0.5-0.3-1-0.7-1.3-1.2c-0.4-0.6-0.7-1.3-0.8-2.1c-0.1-0.2-0.2-0.3-0.2-0.5
		c-0.1-0.2-0.1-0.5-0.1-0.7c0-0.1,0-0.1,0-0.2c-0.2-0.8-0.3-1.4-0.4-2.1c0-0.3,0-0.6,0-0.9c0-0.3,0-0.6,0-0.8l0.1-1.4h1.2
		c0.3-0.3,0.6-0.6,0.7-0.7c0.1-0.2,0.2-0.4,0.3-0.6c0,0,0,0,0,0l0.2-0.8l0.8-0.1c1.2-0.2,2.3-0.4,3.5-0.6c1.2-0.2,2.4-0.5,3.6-0.7
		c0.9-0.1,1.6-0.3,2.3-0.4c0.3-0.1,0.6-0.1,0.9-0.2c0.6-0.1,1.2-0.2,1.8-0.3c0.3,0,0.5-0.1,0.8-0.1c0.8-0.1,1.6-0.1,2.3-0.2
		c0.1,0,0.1,0,0.2,0c0.7,0,1.6,0,2.5,0c0.2,0,0.3,0,0.5,0c0.2,0,0.4,0,0.6,0c0.2,0,0.4,0,0.6,0c0.3,0,0.6,0,0.9,0c0,0,0.1,0,0.1,0
		c0.1-0.1,0.1-0.1,0.2-0.2c0.2-0.1,0.3-0.2,0.5-0.3c0.2,0,0.3-0.1,0.4-0.1c0,0,0.1,0,0.1,0c0.1,0,0.2,0,0.3,0c0.2,0,0.3,0.1,0.5,0.1
		c0,0,0.1,0,0.1,0c0.1,0,0.1,0,0.2,0.1c0.1,0,0.2,0.1,0.3,0.1c0,0,0,0,0,0c0.9-0.2,1.8-0.3,2.6-0.4c0.8-0.1,1.6-0.2,2.4-0.2
		c1.5-0.1,2.9-0.1,4.1-0.1c0,0,0,0,0,0h1.8c0.4,0,0.9,0,1.3,0c0.1,0,0.3,0,0.4,0h3.1h2.2c0.2,0,0.3-0.1,0.5-0.1c0.1,0,0.2,0,0.3,0
		h0.8h1.3c0.1,0,0.2,0,0.3,0c0.1,0,0.2,0,0.3,0c0.1,0,0.1,0,0.2,0l0.6,0.1c0.2,0,0.5,0.1,0.9,0.1c0.4,0.1,0.9,0.2,1.3,0.2
		c0.4,0.1,0.8,0.1,1.2,0.2c0.7,0.1,1.5,0.2,2.3,0.2l1.5-0.1l0.2,1l0.7,1.1c0.2,0.3,0.4,0.6,0.6,0.9c0,0,0,0,0,0
		c0.2,0.2,0.4,0.4,0.6,0.6c0.1,0.1,0.2,0.1,0.3,0.2c0.3,0.3,0.7,0.6,1,1c0.3,0.4,0.6,0.8,0.9,1.2c0,0,0,0,0,0
		c0.2,0.4,0.4,0.8,0.5,1.2c0.2,0.7,0.3,1.6,0.2,2.7l-0.7,1c-0.2,0.1-0.4,0.2-0.6,0.4c-0.1,0.1-0.2,0.2-0.3,0.3
		c-0.1,0.1-0.2,0.2-0.3,0.3l-0.8,0.7c-0.2,0-0.5,0-0.7,0.1c-0.2,0-0.4,0-0.5,0c-0.2,0-0.3,0-0.5,0c-0.3,0-0.5,0-0.8,0
		c-0.3,0-0.6,0-0.8,0c-1,0-2,0-3-0.1c-0.8,0-1.5-0.1-2.3-0.1c-0.3,0-0.5,0-0.8,0c-0.5,0-0.9-0.1-1.2-0.1c-0.1,0-0.1,0-0.2,0h-0.9
		c-0.1,0-0.3,0-0.4,0c-0.1,0-0.3,0-0.4,0c0,0-0.1,0-0.1,0c-0.2,0-0.5,0-0.8,0c-0.2,0-0.3,0-0.5,0h-1.2c-0.1,0-0.2,0-0.2,0
		c-0.2,0-0.4,0-0.6,0.1c0,0-0.1,0-0.1,0c0,0.7-0.1,1.4-0.2,2.1c-0.1,0.7-0.2,1.3-0.3,1.9c0,0.2-0.1,0.4-0.1,0.6
		c-0.2,0.8-0.4,1.6-0.6,2.5c-0.1,0.5-0.3,1-0.5,1.5c-0.7,3.8-1.6,7.6-2.7,11.4c-0.3,1.2-0.7,2.4-1.1,3.6c-0.8,2.5-1.7,5-2.7,7.5
		c-0.7,1.8-1.5,3.5-2.3,5.2c-0.8,0.9-1.7,1.7-2.5,2.6c-0.8,0.8-1.6,1.5-2.4,2.3C322.7,64.1,320.9,65.1,319,65.7z M459.4,20.3
		l1.2-0.2c0.4,0.4,0.8,0.8,1.2,1.2c0.1,0.2,0.3,0.4,0.4,0.6c0.5,0.7,0.8,1.5,0.9,2.3c0.1,0.3,0.1,0.7,0.1,1c0,0.4-0.1,0.9-0.2,1.3
		c-0.2,0.5-0.5,1-0.9,1.3c-0.2,0.2-0.4,0.3-0.7,0.4c0,0.1,0,0.1,0,0.2c0,0.2,0,0.3,0,0.4c0,0,0,0,0,0.1c0,0.1,0,0.2-0.1,0.2
		c0,0,0,0.1-0.1,0.1c0,0.1-0.1,0.1-0.1,0.2c0,0,0,0.1,0,0.1c0,0,0,0.1,0,0.1c0,0.1,0.1,0.2,0.2,0.4c-0.8,0.6-1.4,1.4-1.9,2.2
		c-0.2,0.4-0.4,0.8-0.5,1.2c-0.4,1.2-0.7,2.2-0.8,3.2c0,0.2,0,0.5-0.1,0.7c0.6-0.6,1.4-1.3,2.1-1.9c0.8-0.6,1.6-1.2,2.4-1.8
		c0.6-0.4,1.2-0.9,1.8-1.3c0.2-0.1,0.4-0.3,0.6-0.4c0.8-0.5,1.5-1.1,2.1-1.6c0.8-0.7,1.6-1.4,2.5-2.1c0.8-0.6,1.6-1.2,2.3-1.6
		c0.1-0.1,0.2-0.1,0.3-0.2c0.9-0.5,1.7-1,2.5-1.6c0.9-0.6,1.8-1.2,2.7-1.8c0.3-0.1,0.6-0.1,0.8-0.1c0.1,0,0.1,0,0.2,0
		c0.2,0.1,0.3,0.1,0.5,0.2c0.1,0,0.2,0.1,0.3,0.1c0-0.3-0.1-0.5-0.3-0.6c-0.2-0.1-0.3-0.3-0.2-0.6c0.3-0.1,0.7-0.2,1-0.3
		c0.4-0.1,0.8-0.3,1.1-0.5c0.4-0.2,0.8-0.4,1.2-0.5c0.3-0.1,0.5-0.2,0.8-0.3c0.5,0.5,0.9,1,1.4,1.5c0.3,0.4,0.8,0.7,1.3,0.8
		c0.1,0,0.3,0.1,0.5,0.1c0.1,0.2,0.2,0.4,0.3,0.6c0.2,0.3,0.4,0.5,0.6,0.7c0.4,0.3,0.7,0.6,1.1,0.8c0.4,0.3,0.7,0.6,1,1
		c0.1,0.1,0.2,0.3,0.3,0.5c0.1,0.3,0.2,0.8,0.3,1.3c-0.1,0.2-0.2,0.4-0.3,0.6c-0.1,0.2-0.2,0.4-0.4,0.6c-0.1,0.2-0.2,0.4-0.3,0.7
		c-0.1,0.2-0.2,0.5-0.3,0.8c0,0,0,0.1,0,0.1c-0.8,0.7-1.7,1.5-2.6,2.1c-0.2,0.2-0.4,0.3-0.7,0.5c-1.1,0.8-2.2,1.5-3.4,2.2
		c-1.2,0.7-2.3,1.4-3.5,2.1c-0.8,0.5-1.5,0.9-2.3,1.5c-0.5,0.3-0.9,0.7-1.4,1c-0.2,0.3-0.5,0.6-0.8,0.9c-0.1,0-0.1,0.1-0.2,0.1
		c-0.4,0.3-0.8,0.6-1.3,0.9c-0.4,0.3-0.8,0.6-1.2,0.9c-0.4,0.3-0.7,0.7-0.9,1.1c-0.2,0.1-0.3,0.1-0.5,0.1c0,0,0,0,0,0
		c-0.2,0-0.3,0-0.5,0.1c0,0,0,0,0,0c-0.2,0.4-0.4,0.7-0.8,0.9c-0.3,0.2-0.6,0.5-0.7,0.9c0.3,0.7,0.7,1.4,1.2,2
		c0.5,0.7,1.2,1.4,2,1.9c1.3,0.9,2.8,1.6,4.4,2c1.1,0.3,2.3,0.5,3.4,0.6c0.6,0.1,1.2,0.1,1.8,0.1c1.5,0,2.9,0,4.4,0c0.5,0,1,0,1.5,0
		c0,0,0.1,0,0.1,0c0.1-0.1,0.2-0.2,0.2-0.3c0,0,0,0,0,0c0-0.2,0.1-0.3,0.4-0.2c0.5,0.2,0.9,0.4,1.4,0.6c0.5,0.3,0.9,0.6,1.3,0.9
		c0.1,0.1,0.2,0.2,0.3,0.3c0.4,0.5,0.9,0.9,1.3,1.3c0.4,0.3,0.8,0.7,1.2,1c0,0.8-0.2,1.7-0.4,2.5c-0.3,1-0.8,1.8-1.4,2.6
		c-1.1,1.3-2.6,2.4-4.5,3.2c-0.6,0-1.3,0-1.9,0.1c-1,0-2,0-2.9-0.1c-0.7,0-1.4-0.1-2.1-0.2c-2-0.2-3.9-0.7-5.8-1.5
		c0,0-0.1,0-0.1-0.1c-0.1-0.1-0.1-0.2-0.2-0.3c0-0.1-0.1-0.1-0.1-0.2c0-0.1-0.1-0.1-0.1-0.2c0,0-0.1-0.1-0.1-0.1
		c-0.2-0.1-0.4-0.1-0.5-0.2c-0.1,0-0.3,0-0.4,0c-0.1,0-0.1,0-0.2,0c-0.1,0-0.1,0-0.2,0c-0.4,0-0.7,0-0.9-0.1c0,0,0,0,0,0
		c-0.1-0.1-0.2-0.1-0.4-0.2c-0.4-0.2-1-0.6-1.7-1.1c-0.4-0.3-0.9-0.6-1.3-0.9c-0.4-0.3-0.8-0.6-1.2-0.8c-0.7-0.6-1.4-1.1-2.1-1.7
		c-0.2-0.2-0.4-0.4-0.7-0.6c-0.8-0.7-1.5-1.4-2.1-2.2c-0.1-0.1-0.1-0.2-0.2-0.2c-0.1-0.2-0.4-0.3-0.6-0.4c0,0,0,0,0,0
		c-0.2,0-0.3,0-0.5-0.1c-0.1,0-0.2-0.1-0.3-0.1c-1.6,1-2.9,2.2-4,3.6c-1.1,1.4-2.1,2.9-3.1,4.4c-0.9,1.5-2,2.9-3.1,4.3
		c-1.1,1.4-2.5,2.4-4.1,3.1c-0.2,0-0.5,0-0.7-0.1c-0.2,0-0.4-0.1-0.6-0.2c-0.4-0.2-0.7-0.4-1.1-0.6c-0.3-0.2-0.6-0.5-1-0.7
		c-0.3-0.2-0.7-0.4-1.1-0.5c0-0.6-0.1-1.2-0.4-1.8c-0.2-0.4-0.4-0.8-0.5-1.2c-0.1-0.1-0.1-0.2-0.2-0.4c-0.1-0.3-0.2-0.5-0.3-0.8
		c-0.1-0.2-0.1-0.4-0.2-0.6c0-0.1,0-0.2,0-0.3c0-0.3,0.1-0.7,0.4-1c-0.1-0.1-0.2-0.2-0.4-0.3c-0.3-0.2-0.6-0.5-1.1-0.7
		c0.1-0.1,0.1-0.2,0.2-0.2c0.2-0.2,0.2-0.4,0.2-0.6c0,0,0,0,0-0.1c0-0.2-0.1-0.5-0.2-0.7c0,0,0-0.1,0-0.1c-0.1-0.2-0.1-0.4-0.2-0.5
		c0-0.1-0.1-0.2-0.1-0.4c0-0.1,0-0.2,0-0.3c0-0.2,0.1-0.5,0.2-0.7c0.2,0,0.4,0,0.7-0.1c0.1,0,0.2,0,0.3-0.1
		c-0.1-0.1-0.1-0.1-0.2-0.2c-0.2-0.3-0.3-0.5-0.3-0.6c0,0,0,0,0,0c0-0.1,0-0.2-0.2-0.4c-0.1-0.3-0.1-0.5,0.1-0.6c0,0,0,0,0,0
		c0.2-0.1,0.4-0.2,0.6-0.3c0.2-2.6,0.7-5.1,1.4-7.4c0.7-2.2,1.5-4.4,2.3-6.5c0.9-2.1,1.7-4.3,2.5-6.4c0.6-1.7,1.2-3.4,1.6-5.1
		c0.2-0.6,0.3-1.2,0.4-1.8c0.6-0.6,1.1-1.3,1.4-2.1c0.4-0.8,0.7-1.6,1.1-2.4c0.4-0.8,0.9-1.6,1.4-2.4c0.4-0.6,1-1.2,1.6-1.6
		c0.2-0.1,0.4-0.2,0.5-0.3c0.4,0,0.9,0.1,1.3,0.3c0.2,0.1,0.5,0.2,0.7,0.3c0.3,0.2,0.7,0.3,1.1,0.4c0.3,0.1,0.7,0.1,1.1,0.1
		c0.2,0.3,0.3,0.5,0.4,0.8c0.1,0.2,0.2,0.3,0.3,0.5C459.3,20.1,459.4,20.2,459.4,20.3z M392.9,21.9c0-0.1,0-0.1,0-0.2
		c-0.1,0-0.2-0.1-0.3-0.1c-0.9-0.4-1.7-0.9-2.5-1.5c-0.8-0.6-1.5-1.4-2.1-2.3c0,0.4,0,0.6-0.3,0.5c0,0,0,0-0.1,0c0,0,0,0,0,0
		c-0.2-0.2-0.5-0.1-0.7,0.3c0,0.1-0.1,0.1-0.1,0.2c-0.2,0-0.4,0-0.5-0.1c-0.1-0.1-0.3-0.1-0.4-0.3c-0.1-0.1-0.3-0.2-0.4-0.4
		c-1.3,0.2-2.5,0.5-3.6,0.6c-0.8,0.1-1.6,0.2-2.5,0.3c-0.4,0.1-0.9,0.1-1.3,0.2c-1.3,0.2-2.5,0.3-3.8,0.5c-1.7,0.2-3.4,0.6-5,0.9
		c-0.2,0.1-0.5,0.1-0.7,0.2c-0.7,0.2-1.5,0.4-2.4,0.6c-0.9,0.3-1.8,0.5-2.7,0.8c-0.6,0.1-1.2,0.3-1.7,0.4c-0.6,0.1-1.1,0.2-1.7,0.3
		c-0.4,0.1-0.8,0.2-1.2,0.3c-0.6,0.2-1.2,0.3-1.8,0.5c-0.9,0.3-1.8,0.7-2.5,1.3c-0.8,0.5-1.4,1.2-2,2c0.3,0.9,0.5,1.8,0.6,2.7
		c0.1,0.9,0.2,1.7,0.4,2.6c0,0.1,0,0.2,0.1,0.3c0.2,0.8,0.4,1.5,0.7,2.2c0.2,0.4,0.4,0.7,0.6,1.1c0.3,0.4,0.7,0.9,1.1,1.2
		c-0.2,0.4-0.3,0.9-0.5,1.3c-0.2,0.5-0.4,1-0.7,1.5c-0.4,0.8-0.8,1.6-1.2,2.5c-0.4,0.8-0.8,1.7-1.2,2.5c-0.1,0.2-0.2,0.4-0.3,0.7
		c-0.3,0.7-0.5,1.4-0.8,2.1c0,0,0,0,0,0c-0.2,0-0.4,0-0.5,0.1c-0.1,0.1-0.1,0.1-0.1,0.2c0,0.2-0.1,0.3-0.3,0.4
		c-0.1,0-0.1,0.1-0.2,0.1c0,0,0,0,0,0c0.1,0.7,0,1.4-0.5,2.1c-0.5,0.6-0.9,1.4-1,2.2c-0.2,0.8-0.2,1.6-0.1,2.5
		c0.1,0.9,0.2,1.9,0.4,2.8c0,0.2,0.1,0.5,0.1,0.7c0.1,0.7,0.2,1.3,0.4,2c0,0,0,0.1,0,0.1c0.1,0.4,0.1,0.8,0.2,1.2
		c0.1,0.4,0.1,0.7,0.1,1.1c0.2,0.1,0.3,0.2,0.5,0.3c0.3,0.2,0.5,0.5,0.6,0.9c0.1,0.5,0.4,1,0.8,1.3c0.5,0.5,1.2,1,1.8,1.3
		c0.7,0.4,1.4,0.6,2.1,0.8c0.2,0.1,0.4,0.1,0.6,0.1c1.5,0.3,3,0.5,4.5,0.5c1.8,0.1,3.5,0,5.3-0.2c0.4,0,0.8-0.1,1.2-0.2
		c1.2-0.2,2.3-0.4,3.3-0.6c0.2,0,0.4,0,0.6,0c0.2,0,0.4,0.1,0.6,0.2c0.1,0,0.2,0.1,0.3,0.1c0.2,0,0.4,0,0.6,0c0.1,0,0.2,0,0.3-0.1
		c1-0.2,1.9-0.4,2.9-0.5c0.9-0.2,1.7-0.3,2.6-0.4c0.6-0.1,1.3-0.2,1.9-0.4c0.9-0.2,1.7-0.5,2.6-0.8c1.3-0.5,2.5-1.2,3.6-2.1
		c0.7-0.6,1.3-1.3,1.8-2.3c0.4-0.6,0.7-1.2,1-1.8c0,0-0.1,0-0.1,0c-0.3,0-0.5,0-0.6-0.2c-0.1-0.1-0.1-0.2-0.2-0.3
		c0-0.1-0.1-0.2-0.1-0.4c0-0.1,0-0.2-0.1-0.3c0-0.2-0.1-0.4-0.1-0.6c-0.1-0.3-0.2-0.6-0.4-0.8c0,0,0,0,0,0c-0.1,0-0.2,0-0.3,0
		c-0.3,0-0.6-0.1-0.9-0.3c-0.1-0.1-0.2-0.1-0.2-0.2c-0.2-0.2-0.5-0.5-0.7-0.7c-0.2-0.2-0.3-0.4-0.5-0.5c-0.2-0.2-0.3-0.4-0.5-0.6
		c-0.1-0.1-0.2-0.2-0.2-0.3c-0.3-0.3-0.6-0.5-0.9-0.6c-1.2,0.4-2.6,0.7-4.1,0.9c-0.6,0.1-1.2,0.2-1.8,0.4c-0.7,0.2-1.4,0.5-2,0.8
		c-0.2,0-0.5,0-0.7,0c-1,0-1.8,0-2.6,0.1c-0.3,0-0.6,0.1-1,0.1c-1.1,0.1-2.2,0.3-3.3,0.4c-0.3,0-0.7,0.1-1,0.1
		c-0.8,0.1-1.6,0.1-2.4,0.2c0,0-0.1,0-0.1,0c-0.8,0-1.8,0-2.9-0.1c-0.5-0.1-1.1-0.1-1.6-0.2c0,0,0,0,0,0c0.5-1.4,1.1-2.8,1.9-4.1
		c0.7-1.3,1.5-2.5,2.3-3.6c0.3,0.1,0.6,0.2,0.9,0.2c0.3,0,0.7,0.1,1,0.1c0.1,0,0.2,0,0.3,0c0.1,0,0.2,0,0.2,0c0.3,0,0.7,0,1,0.1
		c0.3,0.1,0.6,0.2,0.9,0.3c0.1,0,0.1-0.1,0.2-0.1c0.3-0.2,0.8-0.2,1.3-0.2c0.1,0,0.2,0,0.3,0c0.5,0.1,0.9,0.1,1.3,0
		c0.2,0,0.4-0.1,0.5-0.2c0,0,0.1,0,0.1,0.1c0.1,0.1,0.2,0.1,0.3,0.1c0,0,0.1,0,0.1,0h0.6c0.2,0,0.4,0,0.6,0c0.4,0,0.8,0,1.2-0.1
		c0.6-0.1,1.2-0.2,1.8-0.3c1-0.3,2-0.7,3-1.2c0.9-0.5,1.8-1,2.7-1.7c0.9-0.6,1.7-1.2,2.6-1.8c0.2-0.4,0.2-0.8,0.2-1.2
		c0-0.1,0-0.3,0-0.4c-0.1-0.5-0.2-1-0.4-1.4c-0.2,0-0.3,0-0.5,0c-0.3,0-0.7-0.1-1-0.3c-0.2-0.1-0.3-0.2-0.4-0.3
		c-0.3-0.2-0.5-0.4-0.7-0.6c-0.4-0.4-0.8-0.8-1.1-1.2c-0.2-0.2-0.3-0.3-0.5-0.5c-0.2-0.2-0.4-0.4-0.6-0.5c-0.1-0.2,0-0.4,0.1-0.4
		c0.1-0.1,0.1-0.2,0.1-0.4c0,0,0-0.1,0-0.1c-2.2,0.1-4.5,0.2-6.8,0.4c-1.5,0.1-2.9,0.2-4.2,0.2c-0.7,0-1.4,0-2-0.1
		c0-0.1-0.1-0.1-0.1-0.2c-0.1-0.3-0.2-0.7-0.1-1.1c0-0.5-0.1-1-0.3-1.5c0.5-0.2,1-0.3,1.5-0.4c0.1,0,0.2,0,0.2-0.1
		c0.4-0.1,0.7-0.3,1-0.6c0.1,0,0.3,0,0.4,0c0.6,0,1.1,0,1.5-0.1c0.2,0,0.4-0.1,0.6-0.2c0.3-0.1,0.6-0.2,0.9-0.2c0.2,0,0.3,0,0.5,0.1
		c0.2,0,0.3,0.1,0.5,0.2c0.5-0.3,1.1-0.6,1.7-0.9c1.2-0.6,2.4-1,3.7-1.2c1.8-0.3,3.5-0.6,5.3-0.9c0.2,0,0.4-0.1,0.6-0.1
		c1.4-0.3,2.8-0.7,4.2-1.3c0.9-0.4,1.8-1.1,2.6-2c0.5-0.6,0.9-1.2,1.3-1.8c0-0.1,0-0.1-0.1-0.2c-0.1-0.3-0.1-0.5-0.1-0.7
		c0-0.1,0-0.1,0-0.2c0-0.1,0-0.2,0-0.3c0-0.1,0-0.2,0-0.3c0-0.1,0-0.2,0-0.3C393,22.3,393,22.1,392.9,21.9z M407.5,52.4
		c-0.4,0.1-0.8,0.3-1,0.7c0,0-0.1,0.1-0.1,0.1c-0.2,0.5-0.4,0.9-0.6,1.4c-0.1,0.2-0.2,0.5-0.3,0.7c-0.1,0.2-0.2,0.4-0.3,0.6
		c0,0.1-0.1,0.2-0.2,0.3c-0.2,0.2-0.4,0.3-0.7,0.3c0,0.3-0.1,0.5-0.2,0.8c-0.1,0.1-0.1,0.2-0.2,0.4c-0.2,0.3-0.5,0.7-0.7,1
		c-0.2,0.4-0.4,0.7-0.5,1.1c-0.1,0.4-0.1,0.9,0.2,1.4c-0.4,0.3-0.6,0.7-0.7,1.1c0,0.1,0,0.2-0.1,0.3c-0.1,0.4-0.2,0.9-0.3,1.3
		c0,0.1-0.1,0.3-0.1,0.4c-0.1,0.3-0.2,0.6-0.3,0.8c-0.1,0.2-0.2,0.4-0.4,0.5c-0.1,0.2-0.3,0.3-0.5,0.3c-0.3,0.1-0.7,0.2-1.2,0.2
		c0,0-0.1,0-0.1,0c0,0,0,0.1-0.1,0.1c-0.1,0.2-0.1,0.3,0,0.3c0,0,0.1,0,0.1,0.1c0.1,0.1,0.1,0.2,0.1,0.4c0,0,0,0,0,0.1
		c-0.1,0-0.2,0-0.3,0c-0.4,0-0.7,0-0.9,0.1c0,0-0.1,0-0.1,0.1c-0.3,0.2-0.7,0.3-1.1,0.4c-1-0.3-1.9-0.9-2.5-1.7
		c-0.7-0.8-1.3-1.7-1.8-2.7c-0.5-1-1-2-1.4-3c-0.2-0.4-0.3-0.8-0.5-1.3c-0.2-0.4-0.3-0.7-0.5-1.1c-0.1-0.1-0.1-0.2-0.2-0.3
		c0.1-0.3,0.1-0.6,0.1-0.9c0-0.3,0-0.5-0.1-0.8c0-0.2-0.1-0.5-0.2-0.7c-0.1-0.3-0.2-0.5-0.4-0.7c1.4-2.9,2.8-5.8,4.1-8.7
		c1.5-3.1,3-6.2,4.5-9.3c3.1-6.4,6.1-12.6,8.9-18.8c1.3,0.5,2.5,1,3.7,1.7c1.1,0.6,2.1,1.2,3.1,2c0.1,0.1,0.1,0.1,0.2,0.2
		c1,0.8,1.8,1.7,2.5,2.8c0.7,1.1,1.2,2.3,1.4,3.5c0,0,0,0.1,0,0.1c-0.1,0.2-0.2,0.3-0.3,0.2c0,0,0,0-0.1,0c-0.1,0-0.2,0-0.3,0.1
		c0,0,0,0-0.1,0.1c0,0.1,0.1,0.1,0.1,0.2c0.1,0.2,0.2,0.3,0.2,0.4c0,0.1,0,0.1,0,0.2c0,0.1,0,0.1,0,0.2c0,0.1,0,0.2,0,0.4
		c0,0,0,0,0,0.1c0,0.2,0.1,0.4,0.2,0.8c-0.1,0-0.2,0-0.3,0c-0.1,0-0.1,0-0.1,0.1c0,0-0.1,0.1-0.1,0.1c-0.1,0-0.2,0-0.4-0.1
		c0.2,0.5,0.3,1,0.2,1.4c0,0,0,0.1,0,0.1c0,0.2-0.1,0.4-0.2,0.6c-0.1,0.1-0.1,0.3-0.2,0.4c-0.2,0.3-0.3,0.6-0.4,1
		c0,0.1,0,0.2-0.1,0.3c0,0.3,0,0.6,0.1,0.9c0,0.1,0,0.1,0,0.2c0,0-0.1,0-0.1,0c-0.1,0-0.2,0.1-0.2,0.1c0,0-0.1,0.1-0.1,0.1
		c0,0-0.1,0.1-0.1,0.1c0,0-0.1,0.1-0.1,0.1c0,0-0.1,0.1-0.1,0.1c-0.1,0.1-0.2,0.1-0.3,0.1c0,0,0,0,0,0c0.1,0.9,0.2,1.8,0.2,2.7
		c0,0.3,0,0.6,0,0.9c-0.1,1.2-0.1,2.4-0.1,3.6c0,1.2,0,2.4,0,3.6c0,0.1,0,0.1,0,0.2c0.1,1.3,0.2,2.7,0.6,4.1c1.5-0.9,2.9-2,4-3.4
		c0.2-0.3,0.5-0.6,0.7-1c0.9-1.4,1.7-3,2.3-4.6c0.2-0.5,0.4-0.9,0.5-1.4c0.6-1.7,1-3.5,1.3-5.2c0.1-0.6,0.2-1.2,0.3-1.9
		c0.4-2.5,0.8-5.1,1.2-7.8c0.5-0.5,0.9-1.1,1.1-1.8c0.3-0.7,0.5-1.4,0.7-2.2l0.6-2.3c0.1-0.5,0.3-1,0.5-1.5c0.1-0.2,0.2-0.5,0.3-0.7
		c0.8,0.1,1.5,0.4,2.1,0.8c0.6,0.4,1.1,0.8,1.6,1.3c0.5,0.5,1,0.9,1.5,1.3c0.3,0.2,0.7,0.4,1.1,0.6c0.3,0.1,0.6,0.2,0.9,0.2
		c0.5,0.6,0.9,1.3,1.3,2c0.1,0.2,0.3,0.5,0.4,0.7c0.5,0.8,0.9,1.8,1.1,2.7c-0.2,0.4-0.4,0.8-0.5,1.2c0,0.1-0.1,0.2-0.1,0.3
		c-0.1,0.5-0.3,1.1-0.4,1.6c-0.2,0.5-0.4,1-0.6,1.5c-0.2,0.4-0.5,0.7-0.9,1c-0.1,0.1-0.2,0.1-0.3,0.2c-0.1,0.7-0.2,1.3-0.3,2
		c-0.1,0.6-0.2,1.2-0.3,1.8c-0.2,1.1-0.5,2.3-0.7,3.4c-0.2,1.1-0.4,2.3-0.6,3.4c0,0,0,0.1,0,0.1c-0.1,0.6-0.1,1.2-0.2,1.8
		c0,0.4,0,0.8,0,1.1c0,0.4,0,0.7,0,1.1c-0.2,0.6-0.4,1.3-0.7,1.9c-0.2,0.7-0.5,1.4-0.7,2c-0.2,0.6-0.4,1.2-0.6,1.8
		c-0.2,0.5-0.3,1.1-0.4,1.6c0,0.2-0.1,0.3-0.1,0.5c-0.9,0.7-1.5,1.5-2,2.5c-0.5,1-1,1.9-1.5,2.9c-0.2,0.2-0.3,0.3-0.4,0.2
		c0,0,0,0,0,0c0,0,0-0.1-0.1-0.1c-0.1-0.1-0.2-0.1-0.4-0.1c0,0,0,0-0.1,0c0.1,0.2,0.1,0.4,0,0.5c0,0,0,0,0,0
		c-0.1,0.1-0.1,0.2-0.2,0.3c0,0,0,0,0,0c0,0-0.1,0.1-0.1,0.1c0,0.1-0.1,0.1-0.1,0.2c0,0,0,0.1,0,0.1c0,0.1,0,0.3,0.1,0.6
		c0,0,0,0,0,0c-0.8,0.3-1.4,0.8-2,1.4c-0.6,0.6-1.2,1.1-1.9,1.6c-0.7,0.5-1.5,0.8-2.4,1c-0.2,0-0.3,0-0.5,0.1
		c-0.9,0-1.9-0.2-3.2-0.6c-2.2-1.6-4.2-3.5-5.9-5.6c-1.2-1.4-2.1-3-2.9-4.7C408.3,54.4,407.9,53.4,407.5,52.4z M534.2,52.4
		c-0.4,0.1-0.8,0.3-1,0.7c0,0-0.1,0.1-0.1,0.1c-0.2,0.5-0.4,0.9-0.6,1.4c-0.1,0.2-0.2,0.5-0.3,0.7c-0.1,0.2-0.2,0.4-0.3,0.6
		c0,0.1-0.1,0.2-0.2,0.3c-0.2,0.2-0.4,0.3-0.7,0.3c0,0.3-0.1,0.5-0.2,0.8c-0.1,0.1-0.1,0.2-0.2,0.4c-0.2,0.3-0.5,0.7-0.7,1
		c-0.2,0.4-0.4,0.7-0.5,1.1c-0.1,0.4-0.1,0.9,0.2,1.4c-0.4,0.3-0.6,0.7-0.7,1.1c0,0.1,0,0.2-0.1,0.3c-0.1,0.4-0.2,0.9-0.3,1.3
		c0,0.1-0.1,0.3-0.1,0.4c-0.1,0.3-0.2,0.6-0.3,0.8c-0.1,0.2-0.2,0.4-0.4,0.5c-0.1,0.2-0.3,0.3-0.5,0.3c-0.3,0.1-0.7,0.2-1.2,0.2
		c0,0-0.1,0-0.1,0c0,0,0,0.1-0.1,0.1c-0.1,0.2-0.1,0.3,0,0.3c0,0,0.1,0,0.1,0.1c0.1,0.1,0.1,0.2,0.1,0.4c0,0,0,0,0,0.1
		c-0.1,0-0.2,0-0.3,0c-0.4,0-0.7,0-0.9,0.1c0,0-0.1,0-0.1,0.1c-0.3,0.2-0.7,0.3-1.1,0.4c-1-0.3-1.9-0.9-2.5-1.7
		c-0.7-0.8-1.3-1.7-1.8-2.7c-0.5-1-1-2-1.4-3c-0.2-0.4-0.3-0.8-0.5-1.3c-0.2-0.4-0.3-0.7-0.5-1.1c-0.1-0.1-0.1-0.2-0.2-0.3
		c0.1-0.3,0.1-0.6,0.1-0.9c0-0.3,0-0.5-0.1-0.8c0-0.2-0.1-0.5-0.2-0.7c-0.1-0.3-0.2-0.5-0.4-0.7c1.4-2.9,2.8-5.8,4.1-8.7
		c1.5-3.1,3-6.2,4.5-9.3c3.1-6.4,6.1-12.6,8.9-18.8c1.3,0.5,2.5,1,3.7,1.7c1.1,0.6,2.1,1.2,3.1,2c0.1,0.1,0.1,0.1,0.2,0.2
		c1,0.8,1.8,1.7,2.5,2.8c0.7,1.1,1.2,2.3,1.4,3.5c0,0,0,0.1,0,0.1c-0.1,0.2-0.2,0.3-0.3,0.2c0,0,0,0-0.1,0c-0.1,0-0.2,0-0.3,0.1
		c0,0,0,0-0.1,0.1c0,0.1,0.1,0.1,0.1,0.2c0.1,0.2,0.2,0.3,0.2,0.4c0,0.1,0,0.1,0,0.2c0,0.1,0,0.1,0,0.2c0,0.1,0,0.2,0,0.4
		c0,0,0,0,0,0.1c0,0.2,0.1,0.4,0.2,0.8c-0.1,0-0.2,0-0.3,0c-0.1,0-0.1,0-0.1,0.1c0,0-0.1,0.1-0.1,0.1c-0.1,0-0.2,0-0.4-0.1
		c0.2,0.5,0.3,1,0.2,1.4c0,0,0,0.1,0,0.1c0,0.2-0.1,0.4-0.2,0.6c-0.1,0.1-0.1,0.3-0.2,0.4c-0.2,0.3-0.3,0.6-0.4,1
		c0,0.1,0,0.2-0.1,0.3c0,0.3,0,0.6,0.1,0.9c0,0.1,0,0.1,0,0.2c0,0-0.1,0-0.1,0c-0.1,0-0.2,0.1-0.2,0.1c0,0-0.1,0.1-0.1,0.1
		c0,0-0.1,0.1-0.1,0.1c0,0-0.1,0.1-0.1,0.1c0,0-0.1,0.1-0.1,0.1c-0.1,0.1-0.2,0.1-0.3,0.1c0,0,0,0,0,0c0.1,0.9,0.2,1.8,0.2,2.7
		c0,0.3,0,0.6,0,0.9c-0.1,1.2-0.1,2.4-0.1,3.6c0,1.2,0,2.4,0,3.6c0,0.1,0,0.1,0,0.2c0.1,1.3,0.2,2.7,0.6,4.1c1.5-0.9,2.9-2,4-3.4
		c0.2-0.3,0.5-0.6,0.7-1c0.9-1.4,1.7-3,2.3-4.6c0.2-0.5,0.4-0.9,0.5-1.4c0.6-1.7,1-3.5,1.3-5.2c0.1-0.6,0.2-1.2,0.3-1.9
		c0.4-2.5,0.8-5.1,1.2-7.8c0.5-0.5,0.9-1.1,1.1-1.8c0.3-0.7,0.5-1.4,0.7-2.2l0.6-2.3c0.1-0.5,0.3-1,0.5-1.5c0.1-0.2,0.2-0.5,0.3-0.7
		c0.8,0.1,1.5,0.4,2.1,0.8c0.6,0.4,1.1,0.8,1.6,1.3c0.5,0.5,1,0.9,1.5,1.3c0.3,0.2,0.7,0.4,1.1,0.6c0.3,0.1,0.6,0.2,0.9,0.2
		c0.5,0.6,0.9,1.3,1.3,2c0.1,0.2,0.3,0.5,0.4,0.7c0.5,0.8,0.9,1.8,1.1,2.7c-0.2,0.4-0.4,0.8-0.5,1.2c0,0.1-0.1,0.2-0.1,0.3
		c-0.1,0.5-0.3,1.1-0.4,1.6c-0.2,0.5-0.4,1-0.6,1.5c-0.2,0.4-0.5,0.7-0.9,1c-0.1,0.1-0.2,0.1-0.3,0.2c-0.1,0.7-0.2,1.3-0.3,2
		c-0.1,0.6-0.2,1.2-0.3,1.8c-0.2,1.1-0.5,2.3-0.7,3.4c-0.2,1.1-0.4,2.3-0.6,3.4c0,0,0,0.1,0,0.1c-0.1,0.6-0.1,1.2-0.2,1.8
		c0,0.4,0,0.8,0,1.1c0,0.4,0,0.7,0,1.1c-0.2,0.6-0.4,1.3-0.7,1.9c-0.2,0.7-0.5,1.4-0.7,2c-0.2,0.6-0.4,1.2-0.6,1.8
		c-0.2,0.5-0.3,1.1-0.4,1.6c0,0.2-0.1,0.3-0.1,0.5c-0.9,0.7-1.5,1.5-2,2.5c-0.5,1-1,1.9-1.5,2.9c-0.2,0.2-0.3,0.3-0.4,0.2
		c0,0,0,0,0,0c0,0,0-0.1-0.1-0.1c-0.1-0.1-0.2-0.1-0.4-0.1c0,0,0,0-0.1,0c0.1,0.2,0.1,0.4,0,0.5c0,0,0,0,0,0
		c-0.1,0.1-0.1,0.2-0.2,0.3c0,0,0,0,0,0c0,0-0.1,0.1-0.1,0.1c0,0.1-0.1,0.1-0.1,0.2c0,0,0,0.1,0,0.1c0,0.1,0,0.3,0.1,0.6
		c0,0,0,0,0,0c-0.8,0.3-1.4,0.8-2,1.4c-0.6,0.6-1.2,1.1-1.9,1.6c-0.7,0.5-1.5,0.8-2.4,1c-0.2,0-0.3,0-0.5,0.1
		c-0.9,0-1.9-0.2-3.2-0.6c-2.2-1.6-4.2-3.5-5.9-5.6c-1.2-1.4-2.1-3-2.9-4.7C535,54.4,534.6,53.4,534.2,52.4z M590.1,46l-0.9-0.2
		c-0.7-0.4-1.4-0.7-2.1-1c-0.5-0.2-0.9-0.3-1.4-0.5c-0.5-0.2-1.1-0.4-1.6-0.6c-0.5-0.2-0.9-0.4-1.3-0.6c-0.1-0.1-0.3-0.1-0.4-0.2
		c-0.2,0.1-0.3,0.2-0.5,0.2c-0.4,0.1-0.8,0.2-1.2,0c-0.3-0.1-0.8-0.2-1.2-0.3c-0.2-0.1-0.5-0.1-0.7-0.2c-1.6-0.1-3.1-0.2-4.7-0.5
		c-0.2,0-0.4-0.1-0.6-0.1c-1.7-0.3-3.3-0.8-4.9-1.5c-0.1-0.2-0.2-0.4-0.3-0.6c0,0-0.1-0.1-0.1-0.1c-0.1-0.1-0.2-0.2-0.3-0.2
		c-0.1,0-0.3,0-0.5,0c0,0-0.1,0-0.1,0c-0.3-0.4-0.6-0.8-1-1.3c-0.3-0.4-0.6-0.8-0.8-1.2c0-0.1-0.1-0.1-0.1-0.2
		c0-0.2,0.1-0.5,0.1-0.7c0-0.2,0.1-0.4,0.1-0.6c0-0.1,0-0.2,0-0.3c0-0.1,0-0.1,0-0.2c0-0.4-0.2-0.8-0.5-1.2c0.1-0.2,0.1-0.3,0.2-0.5
		c0.1-0.5,0.3-0.9,0.3-1.2c0.1-0.4,0.1-0.9,0-1.6c0,0,0-0.1,0-0.1c0.4-1.1,1-2.1,1.8-2.9c0.8-0.8,1.7-1.5,2.7-2.1c1-0.6,2-1,3.1-1.4
		c1.1-0.4,2.1-0.7,3.1-1c1.6-0.7,3.2-1.3,4.9-1.9c0.7-0.2,1.4-0.5,2-0.7c2.5-0.8,5-1.6,7.5-2.2c2.6-0.7,5.2-1.1,7.9-1.3
		c2-0.1,4.1,0,6.2,0.5c0.8,0.2,1.5,0.3,2.3,0.6c0.2,0.5,0.4,1.1,0.7,1.5c0.3,0.5,0.7,1,1,1.5c0.2,0.3,0.4,0.6,0.6,0.9
		c0.1,0.2,0.2,0.3,0.3,0.5c0.2,0.3,0.3,0.6,0.4,0.9c0,0.2,0.1,0.3,0.1,0.5c0.5,0.5,1,1,1.3,1.6c0.3,0.6,0.4,1.3,0.2,2.2
		c-0.4,0.3-0.7,0.6-1.1,0.8c-0.2,0.1-0.3,0.2-0.5,0.3c-0.5,0.4-1.1,0.7-1.7,0.9c-1.5-0.4-3-0.5-4.5-0.5c-0.5,0-1,0-1.5,0.1
		c-0.9,0.1-1.8,0.1-2.7,0.2c-1,0.1-1.9,0.1-2.8,0.2c-0.3-0.3-0.6-0.5-0.9-0.6c-0.3-0.1-0.5-0.1-0.8-0.1c-0.7,0-1.4,0.1-2.1,0.3
		l-2.2,0.6c-0.5,0.1-1,0.2-1.4,0.2c-0.2,0-0.4,0-0.7-0.1c-0.4,0.3-0.8,0.5-1.3,0.7c-0.2,0.1-0.4,0.1-0.7,0.2
		c-0.8,0.1-1.6,0.3-2.5,0.4c0,0,0,0.1,0,0.1c0,0.1,0,0.2,0,0.2c0,0.1,0.1,0.2,0.2,0.2c0.2,0.1,0.2,0.3,0.1,0.5c0,0,0,0,0,0
		c0.3,0.3,0.7,0.6,1.1,0.8c0.1,0,0.1,0,0.2,0.1c0.4,0.1,0.8,0.2,1.2,0.4c0.1,0,0.3,0.1,0.4,0.1c0.3,0.1,0.6,0.2,0.8,0.3
		c0.2,0.1,0.4,0.2,0.7,0.3c0.3,0.2,0.6,0.5,0.8,0.9c0,0.1,0.1,0.2,0.1,0.3c0.8,0,1.5,0.2,2.1,0.6c0.5,0.3,0.9,0.6,1.2,1.1
		c0.1,0.1,0.2,0.2,0.2,0.3c0.4,0.5,0.7,1.1,0.8,1.7c0.1,0.2,0.1,0.5,0.2,0.7c0.1,0.3,0.1,0.6,0.1,0.9c0,0.1,0.1,0.1,0.1,0.2
		c0.1,0.2,0.3,0.4,0.4,0.4c0,0,0,0,0.1,0c0,0,0.1,0,0.1,0c0.2,0,0.4,0.1,0.6,0.3c0,0,0,0,0,0c0.1,0.3,0.2,0.7,0.4,1
		c0.1,0.3,0.3,0.5,0.6,0.8c0.1,0.1,0.2,0.2,0.3,0.3c0.6,0.7,1.2,1.5,1.5,2.4c0.1,1.2,0.2,2.2,0.2,3.1c0,0.2,0,0.3,0,0.5
		c0,0.1,0,0.2,0,0.4c0,0.9-0.2,1.9-0.6,2.8c-0.8,2-1.9,3.8-3.4,5.3c-1.4,1.6-3,3-4.9,4.2c-1.8,1.2-3.7,2.3-5.8,3.1
		c-1.5,0.6-3,1.2-4.5,1.7c-0.5,0.2-1,0.3-1.5,0.5c-0.1,0-0.2,0-0.3,0c-0.1,0-0.2,0-0.3,0c0,0,0,0,0,0c-0.2,0-0.2-0.1-0.1-0.4
		c-0.2,0.2-0.5,0.4-0.8,0.5c-0.2,0.1-0.4,0.2-0.6,0.2c-0.5,0.1-1.1,0.1-1.7,0.1c-0.6,0-1.2-0.1-1.8-0.1c-0.2,0-0.4,0-0.6,0
		c-0.3,0-0.6,0-0.9,0.1c-0.1,0-0.1,0-0.2,0c-0.2-0.2-0.4-0.4-0.6-0.6c-0.1-0.2-0.3-0.3-0.4-0.5c-0.2-0.2-0.3-0.4-0.4-0.7
		c-0.1-0.2-0.2-0.4-0.3-0.7c0,0-0.1,0-0.1,0c-0.2,0-0.2-0.2-0.2-0.4c0,0,0,0,0,0c0-0.2-0.1-0.4-0.3-0.4c0-0.1,0.1-0.1,0.1-0.2
		c0.2-0.4,0.4-0.7,0.3-0.7c0,0,0,0,0,0c0,0,0-0.1-0.1-0.1c0,0-0.1-0.1-0.2-0.1c0,0,0,0,0,0c-0.1-0.1-0.3-0.1-0.4-0.2
		c-0.1-0.1-0.1-0.2-0.1-0.4c0.1-0.3,0.2-0.6,0.2-0.9c0-0.2,0-0.4,0-0.6c0,0,0,0,0,0c-0.1-0.6-0.1-1.2-0.2-1.7
		c-0.1-0.6,0-1.2,0.1-1.7c0.1-0.5,0.5-1,1.2-1.3c0.7,0.1,1.4,0.1,2.1,0.1c1.1,0,2.1-0.1,3.2-0.3c1.6-0.3,3.1-0.8,4.6-1.5
		c0,0,0,0,0.1,0c1.4-0.6,2.8-1.3,4.2-2.1c1.1-0.6,2.3-1.2,3.4-1.8c0.2-0.1,0.3-0.2,0.5-0.2c0.1-0.2,0.2-0.5,0.3-0.7
		c0.1-0.2,0.2-0.4,0.4-0.5c0.3-0.3,0.6-0.6,0.9-0.9c0.3-0.3,0.6-0.6,0.9-0.9c0.2-0.2,0.3-0.4,0.4-0.7c0.1-0.2,0.1-0.3,0.2-0.5
		c0-0.3,0-0.4-0.1-0.6c0-0.1-0.1-0.1-0.2-0.1C590.3,46.5,590.1,46.3,590.1,46C590.1,46,590.1,46,590.1,46z M283.5,24.2v1
		c0.6,0.6,1.2,1.3,1.6,2.1c0.4,0.7,0.7,1.4,1,2.1c0,0.1,0.1,0.2,0.1,0.4l1,2.7c0.3,0.9,0.7,1.7,1.1,2.5c0,0.1-0.1,0.2-0.1,0.3
		c0,0.1,0,0.2-0.1,0.2c0,0.1,0,0.1,0,0.2c0,0.1,0,0.2,0,0.3c0,0.1,0.1,0.2,0.1,0.3c0.1,0.2,0.1,0.4,0.2,0.6c0,0.1,0,0.1,0,0.2
		c0,0.2,0,0.4,0,0.6c0,0,0,0.1,0,0.1c-0.2,2.4-0.9,4.3-2.3,5.7c-1.2,1.3-2.7,2.4-4.3,3.2c-0.2,0.1-0.5,0.2-0.7,0.4
		c-1.8,0.9-3.7,1.6-5.6,2.2c-0.2,0.1-0.4,0.1-0.6,0.2c-2.2,0.6-4.2,1.3-6,2.1c0,0,0,0.1,0,0.1c0,0.1,0.1,0.2,0.2,0.2c0,0,0,0,0.1,0
		c0,0,0.1,0,0.1,0c0.1,0,0.1,0.2,0.1,0.4c1.3,0.8,2.3,1.5,3.1,1.9c0.8,0.5,1.5,0.9,2.1,1.2c0.5,0.2,1.1,0.5,1.6,0.7
		c0.2,0.1,0.4,0.1,0.6,0.2c0.2,0.1,0.4,0.1,0.6,0.2c0.7,0.2,1.6,0.4,2.6,0.7c0.3,0.1,0.7,0.2,1,0.2c0.6,0.1,1.2,0.3,1.7,0.4
		c0.2,0,0.4,0.1,0.6,0.1c0.8,0.2,1.5,0.3,2.1,0.5c0.6,0.1,1.3,0.2,2,0.3c0.2,0,0.4,0,0.6,0.1c0.4,0,0.9,0.1,1.5,0.1
		c0.3,0,0.6,0,0.8,0.1c0.5,0.5,0.9,1.1,1.3,1.7c0.2,0.4,0.4,0.8,0.5,1.3c0.1,0.2,0.1,0.5,0.2,0.7c0.1,0.4,0.1,0.9,0.1,1.3
		c0,0.2,0,0.4,0,0.6c-0.1,0.6-0.2,1.1-0.5,1.4c0,0,0,0-0.1,0.1c0.1,0.2,0.2,0.2,0.3,0.2c0,0,0,0,0,0c0.2,0,0.4,0,0.6,0
		c-0.3,0.2-0.6,0.5-0.8,0.8l-0.6,1c-0.2,0.3-0.4,0.5-0.6,0.7c0,0-0.1,0.1-0.1,0.1c-0.3,0.2-0.6,0.4-1.1,0.4
		c-0.6,0.2-1.2,0.4-1.8,0.4c-1.3,0.2-2.7,0.1-4.4-0.3c0,0-0.1,0-0.1,0c-2.5-0.6-5.7-1.6-9.6-3.1c-1.9-0.8-3.5-1.4-4.7-2
		c-0.5-0.3-1.1-0.5-1.6-0.8c-0.5-0.3-1-0.5-1.4-0.8c-0.1,0-0.1-0.1-0.2-0.1c-0.9-0.6-1.7-1.2-2.4-1.8c-0.5-0.4-1.1-1-1.7-1.5
		c-0.3-0.3-0.6-0.5-0.9-0.8c-0.1,0.5-0.3,1-0.4,1.5c-0.3,1.1-0.6,2-0.9,2.7c-0.1,0.2-0.2,0.4-0.2,0.6c-0.2,0.6-0.5,1.1-0.9,1.7
		c-0.3,0.6-0.7,1.2-1.2,1.7c-0.5-0.1-0.9-0.1-1.2,0.1c-0.1,0-0.2,0.1-0.2,0.2c-0.3,0.3-0.6,0.5-0.9,0.7c-0.5,0.1-0.8,0.1-1.1,0
		c-0.1-0.1-0.2-0.1-0.4-0.2c-0.1,0-0.1-0.1-0.2-0.2c-0.1-0.1-0.2-0.1-0.2-0.2c-0.1-0.1-0.2-0.1-0.3-0.2c0,0-0.1,0-0.1-0.1
		c-0.1,0-0.2-0.1-0.3-0.1c-0.2-0.1-0.5-0.1-0.8-0.1c-0.1-0.3-0.2-0.6-0.2-0.9c0-0.1-0.1-0.2-0.1-0.4c-0.1-0.4-0.5-0.5-1-0.4
		c0,0,0,0-0.1,0c0.1-0.4,0.1-0.7,0.1-1c0,0,0-0.1,0-0.1c0-0.2-0.1-0.3-0.1-0.5c0-0.1-0.1-0.2-0.1-0.3c-0.1-0.2-0.1-0.5-0.2-0.7
		c0-0.1,0-0.1,0-0.2c0-0.2,0-0.4,0.1-0.6c0-0.1,0-0.1,0-0.2c-0.2,0-0.3-0.1-0.4-0.2c-0.1-0.1-0.2-0.2-0.2-0.4
		c-0.2-0.4-0.3-0.7-0.5-1.1c0,0,0,0,0-0.1c0.1-0.5,0.2-0.9,0.2-1.4c0.1-0.4,0.2-0.9,0.2-1.3c0.1-0.6,0.2-1.1,0.4-1.7
		c0.1-0.2,0.1-0.5,0.2-0.7c0.2-0.7,0.4-1.5,0.6-2.3c0.1-0.3,0.1-0.5,0.1-0.8c0-0.4-0.1-0.7-0.2-1.1c0-0.2-0.1-0.3-0.2-0.5
		c0,0,0,0,0.1,0c0.2,0.1,0.3,0.1,0.4-0.1c0,0,0,0,0-0.1c0-0.1,0.1-0.2,0.1-0.3c0.1-0.2,0.1-0.4,0.1-0.7c0.1-0.4,0.1-0.8,0.1-1.2
		c0-0.1,0-0.3,0-0.4c0-0.1,0-0.2,0-0.4c0-0.1,0-0.2,0-0.2c0.5-1.4,1-2.9,1.3-4.3c0.4-1.5,0.7-3,1-4.4c0.3-1.4,0.6-2.9,0.9-4.3
		c0.2-0.9,0.5-1.8,0.8-2.7c0.1-0.4,0.3-0.8,0.5-1.1c0.4-0.1,0.8-0.1,1.3,0c0.2,0,0.4,0.1,0.7,0.2c0.2,0.1,0.3,0.1,0.5,0.2
		c0.4,0.2,0.7,0.5,0.8,0.7c1.4-1.1,2.6-2.4,3.7-3.9c1.1-1.5,2.2-3,3.3-4.5c1.1-1.5,2.4-2.7,3.8-3.9c0.9-0.8,2-1.3,3.2-1.6
		c0.7-0.2,1.3-0.3,2-0.4c0.7,0.5,1.4,1,2,1.5c0.5,0.3,1,0.7,1.5,1c1.3,0.8,2.4,2,3.3,3.3c0.2,0.1,0.4,0.2,0.5,0.3
		c0.2,0.1,0.4,0.3,0.6,0.4c0.1,0.1,0.3,0.2,0.4,0.3c0.2,0.1,0.3,0.2,0.5,0.3C283.4,24.1,283.4,24.2,283.5,24.2z M122.8,60l-0.2,0.3
		c-0.2,0.6-0.5,1.2-0.8,1.7c-0.2,0.4-0.4,0.7-0.6,1.1c-0.6,0.9-1.3,1.8-2.2,2.5c-0.8,0.7-1.8,1.3-2.8,1.8c-1,0.5-2.1,0.8-3.2,0.8
		c-0.5-0.1-0.9-0.2-1.2-0.4c-0.1,0-0.2-0.1-0.2-0.1c-0.2-0.2-0.5-0.4-0.8-0.5c-0.2-0.1-0.3-0.2-0.4-0.3c-0.1-0.1-0.2-0.1-0.3-0.2
		c0,0,0,0,0,0l-1-0.4l0.3-1.1c0-0.1,0-0.1,0-0.2c0.1-0.3,0-0.6-0.1-0.8c-0.1-0.1-0.1-0.1-0.2-0.2c-0.1-0.1-0.3-0.3-0.5-0.5
		c-0.1-0.1-0.2-0.2-0.3-0.3l-0.5-0.5c-0.1-0.1-0.2-0.2-0.2-0.3c-0.1-0.1-0.1-0.1-0.2-0.2l-1.4-1.5l2.2-0.6c0.3-0.1,0.7-0.2,1-0.3
		c0.6-0.3,1.1-0.5,1.5-0.9c0.1-0.1,0.2-0.2,0.3-0.3c0.2-0.2,0.3-0.4,0.3-0.7c0.2-0.5,0.2-1.2,0.2-2c0-0.1,0-0.2,0-0.3
		c-0.3-0.1-0.5-0.1-0.8-0.1c-0.6-0.1-1.1-0.1-1.5,0c-0.1,0-0.3,0-0.4,0.1c-0.7,0.2-1.5,0.4-2.2,0.6c-1,0.3-2,0.5-3,0.7
		c-0.6,0.1-1.2,0.2-1.9,0.2c-0.5,0-0.9,0-1.4,0c-0.3,0-0.5,0-0.8,0c-0.1,0-0.3,0-0.4,0c-0.4,0-0.8-0.1-1.2-0.1l-0.8-0.2
		c0-0.1,0-0.2-0.1-0.3c-0.1-0.4-0.2-0.6-0.3-0.7c-0.1-0.1-0.1-0.1-0.2-0.2c0,0-0.1-0.1-0.1-0.1c-0.3-0.3-0.6-0.6-0.8-1.1
		c-0.2-0.2-0.2-0.5-0.3-0.8c0-0.2,0-0.4,0-0.6c0-0.1,0-0.2,0.1-0.3c-0.1-0.3-0.3-0.5-0.4-0.8c-0.1-0.2-0.1-0.4-0.1-0.6
		c-0.3,0.6-0.6,1.3-0.7,2l-0.3,0.8l-0.8,0.2c0,0-0.1,0.1-0.1,0.1c0,0.1-0.1,0.2-0.1,0.3c0,0,0,0.1,0,0.1c0,0.1,0,0.2,0,0.3
		c0,0,0,0,0,0l-0.4,1.4c-0.1,0.1-0.1,0.1-0.2,0.2c0,0-0.1,0.1-0.1,0.1c-0.1,0.1-0.1,0.1-0.2,0.2c0,0-0.1,0.1-0.1,0.1
		c-0.1,0.5-0.2,1-0.4,1.5c-0.1,0.3-0.2,0.6-0.3,1c0,0.1-0.1,0.3-0.2,0.4c-0.2,0.6-0.4,1.2-0.6,1.8c0,0.1-0.1,0.2-0.1,0.3
		c-0.2,0.7-0.3,1.3-0.2,2l-0.3,0.9c-0.2,0.2-0.3,0.4-0.5,0.5c-0.1,0.1-0.2,0.2-0.4,0.3c-0.3,0.2-0.6,0.4-1,0.5
		c-0.1,0.1-0.2,0.2-0.4,0.2c0,0-0.1,0-0.1,0c0,0-0.1,0-0.1,0.1c-0.1,0.1-0.2,0.1-0.3,0.1l-0.2,0.9l-1,0.2c-0.1,0-0.3,0.1-0.4,0.1
		c-0.3,0.1-0.6,0.1-0.8,0.2c0,0,0,0-0.1,0c-0.2,0.1-0.5,0.1-0.8,0.1l-0.8-0.1c-0.1-0.1-0.3-0.2-0.4-0.3c-0.3-0.3-0.6-0.5-0.8-0.7
		c-0.1-0.1-0.1-0.1-0.2-0.2c-0.2-0.2-0.4-0.4-0.7-0.5c-0.2-0.1-0.3-0.2-0.5-0.3c-0.1-0.1-0.2-0.3-0.3-0.4c-0.3-0.4-0.5-0.8-0.5-1
		c0-0.2-0.1-0.3-0.1-0.5c0-0.1-0.1-0.3-0.1-0.4c-0.1-0.2-0.1-0.4-0.2-0.6c0-0.1,0-0.2,0-0.2c0-0.1,0-0.1,0-0.2c0-0.1,0-0.1-0.1-0.2
		c0,0-0.1-0.1-0.1-0.1l-1.1-1l0.9-0.7l0.1-1.4c1.1-2.7,2.2-5.4,3.4-7.9c1.2-2.6,2.5-5.2,3.8-7.8c0.4-0.9,0.8-1.7,1.3-2.6
		c0.4-0.9,0.8-1.7,1.3-2.6c-0.1-0.2-0.1-0.3-0.1-0.5c0,0,0,0,0,0c0-0.1,0-0.2,0-0.3c0-0.1,0-0.2,0.1-0.3c0,0,0-0.1,0-0.1
		c0.2-0.3,0.4-0.7,0.6-1c0.2-0.4,0.4-0.7,0.6-1c0.1-0.1,0.2-0.3,0.2-0.4c0.4-0.7,0.8-1.5,1.1-2.2c0.4-0.9,0.9-1.8,1.3-2.7
		c0.3-0.5,0.6-1,0.9-1.5c0.3-0.4,0.6-0.8,0.9-1.2l1.3-0.6c0.1,0,0.1,0,0.2-0.1c0.1,0,0.1,0,0.2-0.1c0.1,0,0.1,0,0.2-0.1
		c0.1-0.1,0.3-0.1,0.4-0.1c0.1,0,0.2,0,0.3,0l1.2,0.2c1.5-0.7,2.9-1.7,4-3c0.6-0.7,1.1-1.3,1.7-2c0.5-0.7,1.1-1.4,1.6-2.2
		c0.1-0.1,0.2-0.2,0.2-0.3l0.8-1.1l1.1,0.6c0.1,0.1,0.2,0.1,0.3,0.2c0.2,0.1,0.5,0.2,0.8,0.3c0.2,0.1,0.5,0.1,0.7,0.2
		c0.3,0.1,0.5,0.2,0.8,0.2c0.7,0.2,1.4,0.3,2.1,0.5c0.2,0.1,0.5,0.1,0.7,0.2c0.4,0.1,0.8,0.3,1.1,0.5c0.4,0.2,0.7,0.5,1,0.7
		c0.3,0.9,0.5,1.5,0.6,1.9c0.1,0.4,0.1,0.9,0.2,1.3c0.2,0.9,0.3,1.8,0.4,2.7c0.1,0.5,0.1,1,0.2,1.5c0,0.5,0.1,1.1,0.1,1.6
		c0.3,0.9,0.5,1.8,0.7,2.7c0.2,0.9,0.4,1.8,0.5,2.7c0.2,1.1,0.5,2.2,0.7,3.3c0,0.2,0.1,0.3,0.1,0.5c0.3,1.2,0.6,2.4,1.1,3.4
		c0.1,0,0.2,0,0.2,0c0.3,0,0.5,0,0.6,0.1c0.3-0.1,0.6-0.2,0.8-0.2c0.1,0,0.3-0.1,0.4-0.1c0.2,0,0.4-0.1,0.6-0.1l0.9-0.1l0.3,0.8
		c0,0.2,0.2,0.5,0.6,0.7c0.1,0,0.1,0.1,0.2,0.1c0.2,0,0.4,0,0.5,0.1c0.4,0.1,0.8,0.2,1,0.4c0.3,0.2,0.6,0.5,0.9,0.8
		c0.2,0.2,0.4,0.4,0.6,0.5c0,0,0,0,0,0l1.2,0.5l-0.6,1.2c-0.3,0.6-0.7,1.1-1.1,1.6c-0.4,0.4-0.8,0.8-1.2,1.2c-1,0.9-2.1,1.6-3.4,2.2
		c0,0.2,0.1,0.5,0.1,0.7c0,0.1,0,0.2,0,0.2c0,0.2,0.1,0.4,0.1,0.6c0,0.1,0.1,0.2,0.1,0.4c0.2,0.9,0.3,1.9,0.4,2.8
		c0.1,0.5,0.1,1,0.1,1.5C122.9,59,122.9,59.5,122.8,60z M151.2,65.8l-1.9,0.5c-0.8,0.3-1.6,0.5-2.4,0.7c-0.9,0.3-1.7,0.5-2.6,0.7
		c-1.8,0.5-3.6,0.7-5.3,0.7c-0.9,0-1.7-0.1-2.6-0.2c-1-0.2-2-0.6-2.8-1c-0.4-0.2-0.7-0.5-1-0.7c-0.1-0.1-0.1-0.3-0.2-0.4
		c-0.2-0.4-0.4-0.6-0.5-0.8c-0.2-0.2-0.3-0.4-0.4-0.7c-0.1-0.1-0.1-0.2-0.1-0.3c-0.1-0.2-0.1-0.4-0.2-0.7c-0.6-0.7-1.1-1.5-1.4-2.3
		c0-0.1-0.1-0.2-0.1-0.3c-0.4-1-0.6-2-0.8-3.1c-0.1-0.7-0.1-1.3-0.1-2c0-0.4,0-0.8,0-1.2c0.1-0.9,0.2-1.8,0.4-2.6
		c0-0.2,0.1-0.3,0.1-0.5c0.1-0.1,0.1-0.3,0.2-0.4c0-0.1,0-0.2,0-0.2c0-0.1,0-0.2,0-0.3c0-0.1,0-0.3,0.1-0.4c0.2-0.8,0.4-1.7,0.7-2.5
		c0.1-0.4,0.3-0.9,0.5-1.3c0.1-0.3,0.3-0.6,0.5-0.8c-0.1-0.2-0.2-0.5-0.2-0.8c0-0.3,0.1-0.6,0.2-0.8c0.1-0.4,0.3-0.7,0.4-1
		c0.1-0.2,0.2-0.4,0.3-0.6c0.3-0.7,0.5-1.4,0.8-2.2c0.4-1.1,0.8-2.1,1.1-3c0.5-1.4,1-2.8,1.6-4.2c0.9-2.4,1.8-4.8,2.6-7.2
		c0.5-1.5,1-3.1,1.4-4.7c0.3-1,0.5-2,0.8-3c0.1-0.1,0.2-0.1,0.3-0.2c0.3-0.2,0.5-0.3,0.7-0.4c0.1,0,0.2-0.1,0.2-0.1
		c0.2-0.1,0.4-0.1,0.5-0.2c0,0,0,0,0,0c0.5,0.2,1,0.5,1.5,0.7c0.6,0.3,1.2,0.5,1.9,0.7c0.4,0.1,0.8,0.3,1.2,0.4
		c0.4,0.1,0.7,0.2,1.1,0.2c0.3,0.1,0.7,0.1,1,0.1c0.1,0.1,0.2,0.1,0.3,0.2c0.3,0.2,0.5,0.3,0.5,0.4c0.1,0.1,0.1,0.2,0.2,0.2
		c0,0,0.1,0.1,0.1,0.1c0.4,0.5,0.9,1.1,1.2,1.7c0.1,0.2,0.2,0.3,0.3,0.5c0.2,0.3,0.3,0.7,0.4,1c0.1,0.4,0.1,0.9,0.1,1.5
		c0,0.1,0,0.2,0,0.4c-0.1,0.1-0.1,0.2-0.2,0.2c-0.2,0.3-0.4,0.5-0.6,0.5c-0.3,1.1-0.6,2-0.8,2.7c-0.3,0.8-0.6,1.5-0.9,2.3
		c-0.4,0.8-0.7,1.6-1.1,2.4c-0.3,0.8-0.6,1.8-0.8,3c-0.1,0.1-0.1,0.2-0.2,0.3c-0.1,0.1-0.1,0.2-0.2,0.3c0,0.1-0.1,0.1-0.1,0.2
		c-0.1,0.2-0.2,0.5-0.3,0.7c-0.1,0.2-0.1,0.3-0.2,0.5c0,0.1-0.1,0.2-0.1,0.3c-0.1,0.3-0.3,0.5-0.6,0.7c0,0,0,0,0,0
		c-0.1,0.5-0.1,0.9-0.2,1.3c-0.1,0.4-0.2,0.8-0.3,1.2c-0.1,0.3-0.2,0.6-0.3,0.9c-0.4,0.9-0.7,1.7-1.1,2.6c-0.6,1.5-1.2,3.1-1.7,4.7
		c-0.3,0.9-0.5,1.8-0.6,2.7c-0.1,0.9-0.2,1.8-0.3,2.7c0.1-0.1,0.3-0.1,0.4-0.1c0.1,0,0.3,0,0.4,0h0.7c0.2,0,0.4,0,0.6,0
		c0.2,0,0.4,0.1,0.6,0.1c0.1,0,0.3,0.1,0.4,0.1c1.6-0.9,3.4-1.4,5.3-1.5c1.9-0.2,3.8-0.3,5.7-0.3h2.3c0.4,0,0.9,0,1.3-0.1
		c0.3,0,0.5-0.1,0.8-0.1c0.5,0.3,0.8,0.4,0.9,0.4c0,0,0.1,0,0.1,0c0.1,0,0.3,0,0.5,0c0.1,0,0.3,0,0.4,0c0.1,0,0.3,0,0.4,0
		c0.1,0,0.1,0,0.2,0c0.5,0.5,1,0.9,1.5,1.1c0.1,0.1,0.2,0.1,0.3,0.2c0.6,0.3,1.2,0.5,1.9,0.7c0.6,0.2,1.2,0.4,1.7,0.7
		c0.4,0.2,0.8,0.4,1.1,0.6c0.2,0.1,0.3,0.2,0.5,0.4l0.6,3.5c0.1,0.1,0.1,0.1,0.2,0.2c0.3,0.4,0.4,0.6,0.3,0.7c0,0.1,0,0.2,0,0.4
		c0,0.1-0.1,0.3-0.1,0.4c0,0.1-0.1,0.2-0.2,0.3l0.2,0.9c-0.2,0-0.4,0.1-0.6,0.1c-0.3,0.1-0.6,0.2-0.8,0.3c-0.1,0-0.2,0.1-0.3,0.2
		c-0.3,0.2-0.6,0.5-0.8,0.7c-0.1,0-0.2,0-0.3,0c-0.2,0-0.3,0-0.5,0c-0.1,0-0.1,0-0.2,0h-0.5c-0.3,0-0.6,0-0.9,0.1
		c-0.3,0-0.6,0.1-1,0.2c-0.3,0.1-0.6,0.1-0.8,0.2c-1.5-0.5-3-0.7-4.5-0.7c-0.5,0-0.9,0-1.4,0c-0.2,0-0.3,0-0.5,0l-1.9,0.2
		c-0.7,0.1-1.3,0.2-2,0.2C152.6,65.8,151.9,65.8,151.2,65.8z M508,65.3c0-0.1,0.1-0.1,0.1-0.2c0.4-0.9,0.4-2.1,0.2-3.6
		c-0.4-2-0.6-4.1-0.6-6.2c0-0.6,0-1.1,0-1.7c0.1-2.6,0.5-5.2,1-7.7c0.5-2.6,1.2-5.1,2.1-7.6c0.8-2.5,1.7-5.1,2.7-7.7
		c-0.3-0.1-0.5-0.3-0.7-0.5c-0.1-0.1-0.2-0.3-0.2-0.5c-0.1-0.2-0.1-0.4-0.2-0.7c-0.1-0.3-0.1-0.7-0.2-1c-0.1-0.6-0.1-1.3-0.1-1.9
		v-1.6c-0.2-0.1-0.3-0.2-0.5-0.3c-0.4-0.3-0.7-0.6-0.9-1.1c-0.3-0.6-0.5-1.2-0.6-1.8l-0.4-1.9c-0.1-0.7-0.4-1.3-0.8-1.8
		c-0.1,0-0.1,0-0.2,0c-0.3,0-0.6,0-0.9,0.1c-0.3,0.1-0.6,0.2-0.9,0.3c-0.1,0-0.2,0.1-0.3,0.2c-0.4,0.2-0.8,0.5-1.2,0.8c0,0,0,0,0,0
		c-0.5,0.4-0.9,0.7-1.3,1.1c-0.4,0.4-0.9,0.8-1.4,1.1c0.1,0.9,0,1.8-0.4,2.6c-0.1,0.2-0.2,0.4-0.3,0.6c-0.3,0.6-0.5,1-0.7,1.3
		c-0.2,0.4-0.3,0.8-0.3,1.1c0,0.1,0,0.2,0,0.3c0,0,0,0.1,0,0.1c0,0.4,0,0.8-0.1,1.3c-0.1,0.3-0.2,0.4-0.5,0.5c0,0,0,0,0,0
		c-0.1,0-0.1,0.1-0.2,0.1c-0.1,0.1-0.2,0.2-0.3,0.4c0,0.1-0.1,0.3-0.1,0.4c0,0.1,0,0.3,0,0.4c0,0.1,0.1,0.3,0.1,0.4
		c0.1,0.3,0.2,0.6,0.2,0.9c0,0.2,0,0.3-0.1,0.5c-0.4,2.2-1,4.3-1.7,6.4c-0.7,2-1.3,4.2-1.7,6.5c0,0.2-0.1,0.4-0.1,0.6
		c-0.1,0.6-0.1,1.3-0.1,1.9c0,0.9-0.1,1.8-0.1,2.6c0,0.9-0.1,1.7-0.2,2.5c0,0.4-0.1,0.7-0.2,1c-0.1,0.4-0.2,0.8-0.4,1.2
		c0,0.1,0.1,0.3,0.1,0.4c0.1,0.4,0.2,0.8,0.3,1.3c0.1,0.5,0.2,1,0.4,1.5c0.3,1.2,0.6,2.4,1,3.6c0.4,1.2,0.8,2.4,1.2,3.5
		c0.1,0.2,0.1,0.3,0.2,0.5c0.2,0.5,0.4,0.9,0.6,1.3c0.2,0.4,0.4,0.7,0.7,1.1c0.7,0.1,1.5,0.2,2.3,0.2c0.3,0,0.5,0,0.8,0
		c0.3,0,0.6,0,0.9-0.1c0.7-0.1,1.4-0.3,2-0.7c0.3-0.2,0.7-0.4,0.9-0.7C507.4,66.3,507.8,65.8,508,65.3z M105.5,35.1l-0.5,0.8
		c-0.8,0.9-1.6,1.8-2.4,2.8c-0.3,0.3-0.5,0.7-0.8,1c-1,1.4-1.8,2.7-2.5,4l-1,1.5c-0.3,0.5-0.6,1-0.9,1.5c0.2,0,0.4-0.1,0.6-0.1
		c0.1,0,0.2,0,0.3,0c0.2,0,0.5,0,0.7-0.1c0.1,0,0.1,0,0.2,0c1.6-0.1,3.1-0.2,4.4-0.4c0.7-0.1,1.4-0.2,2.1-0.3
		c0.7-0.1,1.5-0.3,2.3-0.4c-0.3-1.3-0.6-2.5-0.9-3.8c-0.1-0.4-0.2-0.9-0.3-1.3C106.5,38.5,106,36.8,105.5,35.1z M270.2,33.4
		c0.7-0.7,1.4-1.5,2-2.3c0.6,0.2,1.2,0.5,1.8,1c0.4,0.3,0.8,0.7,1.1,1c0.9,1,1.5,2.4,1.7,4c-0.9,0.4-1.9,0.8-2.8,1.2
		c-1,0.4-2,0.8-3,1.2c-0.8,0.3-1.5,0.6-2.3,0.8c-1.2,0.4-2.4,0.6-3.6,0.8c0.2-1.2,0.6-2.2,1.1-3.1c0.5-0.9,1.1-1.7,1.8-2.4
		C268.8,34.8,269.5,34.1,270.2,33.4z"/>
</g>
</svg>
