<?xml version="1.0" encoding="utf-8"?>
<!-- Generator: Adobe Illustrator 24.1.1, SVG Export Plug-In . SVG Version: 6.00 Build 0)  -->
<svg version="1.1" id="Layer_1" xmlns="http://www.w3.org/2000/svg" xmlns:xlink="http://www.w3.org/1999/xlink" x="0px" y="0px"
	 viewBox="0 0 39 48.5" style="enable-background:new 0 0 39 48.5;" xml:space="preserve">
<path d="M36.7,1H24.9c-0.6,0-1.1,0.5-1.1,1.1v44.2c-1.4,0.1-2.9,0.1-4.3,0V22.2c0-0.2-0.1-0.4-0.2-0.5l0,0L11.4,8.7
	c-0.2-0.3-0.5-0.5-0.9-0.5c-0.4,0-0.7,0.2-0.9,0.5l-8,12.9l0,0c-0.1,0.2-0.2,0.3-0.2,0.5v18.3c0,0.3,0.2,0.6,0.4,0.8
	c1.3,1.2,2.8,2.2,4.3,3.1c3.7,2.2,7.9,3.5,12.1,4c1,0.1,2,0.2,3,0.2c1.2,0,2.4-0.1,3.6-0.2c4.3-0.5,8.4-1.9,12.1-4.2
	c0.2-0.1,0.4-0.3,0.5-0.5c0.1-0.2,0.1-0.4,0.1-0.6v-41C37.8,1.5,37.3,1,36.7,1z M7.8,23.2h5V45c-1.8-0.6-3.4-1.3-5-2.2V23.2z
	 M4.5,21.1l3-4.9c1,0.4,2,0.6,3,0.6c1.1,0,2.1-0.2,3-0.6l3,4.9L4.5,21.1L4.5,21.1z M10.5,11.3l1.9,3c-1.2,0.4-2.5,0.4-3.7,0
	L10.5,11.3z M3.6,23.2h2.1v18.3C5,41,4.3,40.5,3.6,40V23.2z M17.4,46.1c-0.8-0.1-1.6-0.3-2.4-0.5V23.2h2.4V46.1z M35.6,42.6
	c-3,1.7-6.3,2.9-9.6,3.4V24.8h4.8v-2.1H26v-2.1h3v-2.1h-3v-2.1h2.9v-2.1H26v-2.1h4.8V10H26V8.1h2.9V5.9H26V3.2h9.6
	C35.6,3.2,35.6,42.6,35.6,42.6z"/>
</svg>
